<svg xmlns="http://www.w3.org/2000/svg" width="250" height="249" viewBox="0 0 250 249"><g><g><path fill="#cccaca" d="M153.554 174.388H76.65v-39.571h80.09c14.944 0 21.994 6.434 21.994 20.467 0 13.45-8.056 19.104-25.181 19.104m3.188-60.818h-80.09V73.999h76.902c17.125 0 25.181 5.653 25.181 19.104 0 14.033-7.05 20.467-21.993 20.467m24.642 10.623c11.905-5.942 18.006-17.558 18.006-34.403 0-24.175-15.617-37.038-46.005-37.038H56.507v142.883h96.878c30.388 0 46.005-12.868 46.005-37.038 0-16.845-6.101-28.461-18.006-34.404"/></g><g><path fill="#cccaca" d="M62.553 18.399c-23.9 0-43.347 19.446-43.347 43.35v124.888c0 23.905 19.446 43.351 43.347 43.351h124.892c23.9 0 43.346-19.446 43.346-43.351V61.75c0-23.905-19.446-43.351-43.346-43.351zm124.892 229.899H62.553c-34 0-61.66-27.662-61.66-61.661V61.75c0-34 27.66-61.66 61.66-61.66h124.892c33.999 0 61.66 27.66 61.66 61.66v124.887c0 33.999-27.661 61.66-61.66 61.66"/></g></g></svg>