<svg width="352" height="145" viewBox="0 0 352 145" fill="none" xmlns="http://www.w3.org/2000/svg">
<path d="M55.7759 20.2802L65.6398 0.5H67.4333V141.533H55.7759V20.2802ZM65.6398 0.5L67.4333 7.81868L13.4508 81.5989H75.1451C78.4928 81.5989 80.7047 81.2692 81.7808 80.6099C82.8568 79.9506 83.9329 78.9615 85.0089 77.6429H86.8024L83.0362 92.478H0V90.5L65.6398 0.5ZM67.4333 129.071C67.4333 131.973 68.3898 134.478 70.3028 136.588C72.3353 138.698 74.6668 139.753 77.2972 139.753H79.27V141.731H43.7599L43.9392 139.753H45.7327C48.4826 139.753 50.8141 138.764 52.7271 136.786C54.7596 134.676 55.7759 132.104 55.7759 129.071H67.4333Z" fill="white"/>
<path d="M177.731 0.5C186.459 0.5 193.932 3.4011 200.149 9.2033C206.486 15.0055 211.328 23.3132 214.676 34.1264C218.143 44.8077 219.877 57.5989 219.877 72.5C219.877 87.4011 218.143 100.258 214.676 111.071C211.328 121.753 206.486 129.995 200.149 135.797C193.932 141.599 186.459 144.5 177.731 144.5C169.003 144.5 161.471 141.599 155.134 135.797C148.917 129.995 144.074 121.753 140.607 111.071C137.259 100.258 135.585 87.4011 135.585 72.5C135.585 57.5989 137.259 44.8077 140.607 34.1264C144.074 23.3132 148.917 15.0055 155.134 9.2033C161.471 3.4011 169.003 0.5 177.731 0.5ZM177.731 6.43407C168.644 6.43407 161.411 12.3681 156.03 24.2363C150.77 35.9725 148.139 52.0604 148.139 72.5C148.139 92.9396 150.77 109.093 156.03 120.962C161.411 132.698 168.644 138.566 177.731 138.566C186.937 138.566 194.171 132.698 199.432 120.962C204.692 109.093 207.323 92.9396 207.323 72.5C207.323 52.0604 204.692 35.9725 199.432 24.2363C194.171 12.3681 186.937 6.43407 177.731 6.43407Z" fill="white"/>
<path d="M320.974 20.2802L330.837 0.5H332.631V141.533H320.974V20.2802ZM330.837 0.5L332.631 7.81868L278.648 81.5989H340.343C343.69 81.5989 345.902 81.2692 346.978 80.6099C348.054 79.9506 349.131 78.9615 350.207 77.6429H352L348.234 92.478H265.198V90.5L330.837 0.5ZM332.631 129.071C332.631 131.973 333.587 134.478 335.5 136.588C337.533 138.698 339.864 139.753 342.495 139.753H344.468V141.731H308.957L309.137 139.753H310.93C313.68 139.753 316.012 138.764 317.925 136.786C319.957 134.676 320.974 132.104 320.974 129.071H332.631Z" fill="white"/>
</svg>
