<svg width="161" height="145" viewBox="0 0 161 145" fill="none" xmlns="http://www.w3.org/2000/svg">
<path d="M1.70244 45.5713C1.6955 40.4851 0.77777 13.8942 0.338136 6.04167L0 0H8.14418H16.2884L15.9497 5.50463C15.7638 8.53244 15.4769 16.5676 15.3129 23.3611C14.9823 37.0276 14.2061 41.3518 13.994 44.2766C13.994 45.5713 14.2563 46.3071 14.2061 55.9201L14.1511 66.4374L20.0821 66.7811C23.3444 66.9701 36.8886 67.1259 50.1808 67.1269L74.3478 67.1296L74.0107 60.5509C73.8259 56.9324 73.6154 53.8997 73.5438 53.8116C73.4728 53.723 62.8692 53.853 49.981 54.1006C37.0922 54.3476 26.5094 54.5409 26.4635 54.5297C26.4176 54.5184 26.2974 49.9047 26.1964 44.2766C25.5757 44.7948 25.8289 30.4715 25.2723 18.3812C24.909 10.4867 24.4758 3.1218 24.3091 2.01389L24.0068 0H32.152H40.2967L39.9442 5.50463C39.2759 15.9457 38.5809 31.9682 38.574 37.1136L38.5665 42.2729L41.8502 42.6182C43.6557 42.8078 51.5285 42.9635 59.3447 42.9635L73.5556 42.9646L73.3756 36.3848C73.2762 32.7662 73.1197 29.7288 73.0273 29.6348C72.9349 29.5408 67.968 29.6998 61.9894 29.9887C56.0114 30.2771 51.0451 30.4398 50.9532 30.3501C50.8613 30.2599 50.559 26.2343 50.2812 21.4036C49.7502 12.1687 48.8581 2.52676 48.388 0.939815C48.1316 0.0741111 48.7433 0 56.1588 0C63.5135 0 64.2074 0.0821672 64.2074 0.953778C64.2074 1.47846 63.9841 3.83498 63.7111 6.18989C63.4381 8.54533 63.0567 12.3449 62.8639 14.6343L62.5135 18.7963H67.6844H72.8548L72.5524 16.2454C72.3863 14.8426 72.0946 10.6135 71.9039 6.84722L71.5572 0H80.5H89.4428L89.0961 6.84722C88.9054 10.6135 88.6137 14.8426 88.4476 16.2454L88.1453 18.7963H93.2926H98.4395L98.1073 14.6343C97.9246 12.3449 97.5538 8.54533 97.2835 6.18989C97.0138 3.83498 96.7926 1.47846 96.7926 0.953778C96.7926 0.0821672 97.4865 0 104.841 0C112.258 0 112.868 0.0741111 112.609 0.939815C112.169 2.41398 111.258 12.3422 110.707 21.677C110.43 26.3631 110.131 30.2679 110.041 30.3549C109.953 30.4419 104.989 30.2771 99.0106 29.9887C93.032 29.6998 88.0651 29.5408 87.9727 29.6348C87.8803 29.7288 87.7238 32.7925 87.6244 36.4428L87.4444 43.0806L104.63 42.8846C114.082 42.7771 122.002 42.5011 122.23 42.2718C122.624 41.8765 121.694 13.0538 121.001 4.16204L120.677 0H128.827H136.978L136.668 2.28241C136.315 4.88381 135.359 25.8793 134.818 42.913L134.453 54.4094L92.5191 53.7037H87.1773V57.0768C87.2996 57.8378 86.516 64.5508 86.5838 65.9213L86.6431 67.1296H110.33C123.359 67.1296 136.924 66.9723 140.477 66.7806L146.937 66.4315L146.698 58.0537C146.567 53.4459 146.219 41.0968 145.924 30.6111C145.629 20.1255 145.237 8.94811 145.052 5.77315L144.717 0H152.858H161L160.671 6.04167C160.259 13.6091 159.44 40.7445 158.97 62.4273L158.612 78.9385L155.079 78.6851C153.136 78.5454 136.944 78.2973 119.095 78.133L86.6431 77.8339V96.9921V116.151L98.0736 115.886L109.505 115.62L109.848 122.12C110.349 131.613 111.228 142.978 111.546 144.06C111.799 144.922 111.235 145 104.765 145H97.7087L98.0565 141.654C98.2477 139.814 98.557 135.622 98.7435 132.34L99.0827 126.372L96.2013 126.024C94.6169 125.833 91.9497 125.674 90.274 125.671L87.2275 125.667L87.5101 128.486C87.665 130.037 88.1346 134.126 88.5528 137.573C88.9716 141.02 89.314 144.101 89.314 144.42C89.314 144.811 78.7441 144.42 73.0214 144.42L73.8024 125.667L70.741 125.671C69.0572 125.674 66.3847 125.832 64.8019 126.023L61.9237 126.371L62.2865 132.938C62.4862 136.55 62.8441 140.741 63.0819 142.253L63.5135 145H56.3458C49.7705 145 49.2011 144.922 49.4543 144.06C49.7716 142.978 50.6514 131.613 51.1524 122.12L51.4954 115.62L62.9264 115.886L74.3569 116.151V97.0104V77.8704L2.24144 78.6759L2.15811 70.3519C2.1127 65.7736 2.01494 59.8447 1.94069 57.1773L1.80554 52.3262C1.80554 50.75 1.70672 48.7393 1.70244 45.5713Z" fill="url(#paint0_linear_19_104)"/>
<defs>
<linearGradient id="paint0_linear_19_104" x1="80.5" y1="0" x2="80.5" y2="145" gradientUnits="userSpaceOnUse">
<stop stop-color="#FFFFC8"/>
<stop offset="1" stop-color="#97793D"/>
</linearGradient>
</defs>
</svg>
