<svg width="92" height="90" viewBox="0 0 92 90" fill="none" xmlns="http://www.w3.org/2000/svg">
<g filter="url(#filter0_d_292_188)">
<path fill-rule="evenodd" clip-rule="evenodd" d="M42.7366 0.0956102C24.7651 1.53083 9.64015 13.9735 5.28873 30.9023C2.83182 40.4603 3.90925 50.445 8.33817 59.1673C14.4979 71.2976 26.0637 79.5647 39.8001 81.6554C42.8213 82.1151 49.2961 82.1149 52.1934 81.6548C59.4605 80.5011 66.057 77.7582 71.5923 73.5885C84.8008 63.639 90.7559 47.024 86.7876 31.1937C86.051 28.2553 85.1269 25.7984 83.6656 22.8934C77.4971 10.6314 65.5378 2.22193 51.6249 0.363594C49.0055 0.0137926 45.1994 -0.100899 42.7366 0.0956102ZM40.0633 7.84331L34.3766 13.386L26.2337 13.3378L18.0908 13.2896L20.1393 11.5943C27.0532 5.87287 35.9347 2.42823 44.045 2.32277L45.75 2.30061L40.0633 7.84331ZM50.7772 2.49361C58.799 3.45787 66.7657 7.00833 72.583 12.2116L73.8914 13.3819H65.7888H57.6861L52.0039 7.84128L46.3217 2.30061H47.7465C48.5302 2.30061 49.8942 2.38742 50.7772 2.49361ZM50.2038 9.22645L54.4641 13.3819H45.9403H37.4165L41.6768 9.22645C44.02 6.94092 45.9386 5.07095 45.9403 5.07095C45.942 5.07095 47.8606 6.94092 50.2038 9.22645ZM31.9136 8.46848C30.2078 9.19283 30.7867 11.9044 32.6469 11.9044C33.4604 11.9044 34.3891 11.2 34.5312 10.4751C34.6739 9.74819 34.2229 8.83749 33.553 8.49988C32.8667 8.15396 32.6632 8.15008 31.9136 8.46848ZM45.3506 8.38464C45.1306 8.47513 44.7681 8.77525 44.5453 9.05136C43.3221 10.5669 45.0315 12.5106 46.8697 11.6941C47.4873 11.4198 47.9917 10.383 47.8384 9.70276C47.6085 8.68291 46.3049 7.99217 45.3506 8.38464ZM57.8328 8.49305C57.2848 8.86723 56.993 9.91183 57.242 10.6079C57.4944 11.3136 58.168 11.7197 59.0863 11.7197C60.0288 11.7197 60.8151 10.9217 60.8151 9.9652C60.8151 9.56978 60.6385 9.14242 60.3246 8.77895C59.9206 8.31095 59.6939 8.21066 59.0404 8.21066C58.6038 8.21066 58.0604 8.33772 57.8328 8.49305ZM17.8012 21.7402V29.5444L12.0218 35.1752C5.42838 41.5991 6.05748 41.3404 6.44366 37.4698C7.1605 30.2841 9.90676 23.3099 14.1837 17.8145C15.6509 15.9292 17.4298 13.936 17.6455 13.936C17.7311 13.936 17.8012 17.4479 17.8012 21.7402ZM76.7657 16.5061C79.3149 19.5799 81.5187 23.2477 82.9897 26.8642C84.4883 30.5493 85.6381 35.9386 85.6381 39.2777V40.7818L79.9605 35.1621L74.2829 29.5422L74.2758 21.7029L74.2688 13.8636L74.9493 14.5001C75.3237 14.85 76.141 15.7528 76.7657 16.5061ZM26.1387 21.4159C22.8572 24.6157 20.1077 27.2336 20.0289 27.2336C19.8526 27.2336 19.836 15.893 20.012 15.7214C20.0813 15.6536 22.8308 15.5982 26.1219 15.5982H32.1053L26.1387 21.4159ZM64.3671 23.031L71.995 30.464V41.0277V51.5913L64.4833 58.9894L56.9716 66.3877H46.0564H35.1411L27.5135 58.9549L19.8856 51.5219L19.89 41.0862L19.8941 30.6504L27.4936 23.1243L35.093 15.5982H45.9162H56.7394L64.3671 23.031ZM71.995 21.4159C71.995 24.6157 71.9732 27.2336 71.9465 27.2336C71.9197 27.2336 69.2129 24.6157 65.9313 21.4159L59.9647 15.5982H65.9798H71.995V21.4159ZM22.9174 17.4651C21.0583 18.1759 21.6221 20.9542 23.6253 20.9542C24.4165 20.9542 25.2144 20.3384 25.4626 19.5363C25.6483 18.9361 25.1145 17.8808 24.4576 17.5496C23.8065 17.2214 23.5859 17.2094 22.9174 17.4651ZM67.7103 17.4344C67.1416 17.6684 66.4998 18.5244 66.4998 19.0491C66.4998 19.642 66.9838 20.5278 67.4368 20.764C67.9049 21.0081 68.8845 21.0081 69.3525 20.764C69.8122 20.5242 70.2896 19.6394 70.2896 19.027C70.2896 17.9923 68.7161 17.0209 67.7103 17.4344ZM42.9003 22.9189C41.2374 25.7266 39.8492 28.1368 39.8154 28.2749C39.7681 28.4688 40.058 28.5264 41.0816 28.5264C42.639 28.5264 42.4001 28.7619 44.5017 25.1559C45.2564 23.8608 45.9316 22.802 46.0019 22.8033C46.0722 22.8046 48.3841 26.6323 51.1393 31.3095C53.8946 35.9866 56.2026 39.8458 56.2684 39.8854C56.3341 39.9251 56.7008 39.4272 57.0832 38.7793L57.7782 37.6011L55.2285 33.2946C53.8259 30.9261 51.205 26.4762 49.4041 23.4061C47.6032 20.336 46.0835 17.8221 46.0269 17.8193C45.9704 17.8167 44.5635 20.1115 42.9003 22.9189ZM76.9952 26.2995C76.7752 26.39 76.4046 26.6995 76.1719 26.9874C75.2729 28.0989 76.1453 29.8193 77.608 29.8193C78.4814 29.8193 78.9354 29.5648 79.3051 28.8679C80.075 27.4168 78.51 25.6765 76.9952 26.2995ZM12.9503 27.1228C12.2234 27.8313 12.1281 28.4529 12.6216 29.267C13.3566 30.4797 15.1759 30.4635 15.8258 29.2384C16.3287 28.2904 16.0223 27.2124 15.1209 26.758C14.2699 26.3292 13.6592 26.4319 12.9503 27.1228ZM25.4399 29.5884C29.8989 37.1693 31.5088 39.8974 31.5536 39.9498C31.6422 40.0533 32.7615 38.2634 32.8826 37.8242C32.9616 37.5378 32.5355 36.6546 31.3675 34.6845L29.7422 31.9432L39.9729 31.8954C45.6 31.8691 50.2038 31.801 50.2038 31.7439C50.2038 31.6867 49.9267 31.1483 49.5879 30.5471L48.9721 29.4543L37.1653 29.4521C30.6715 29.4508 25.395 29.5123 25.4399 29.5884ZM54.183 29.5642C54.183 29.6272 54.4877 30.1674 54.8599 30.7647L55.5369 31.8508H58.8392C60.6556 31.8508 62.1416 31.9147 62.1416 31.9929C62.1416 32.0708 60.9374 34.1694 59.4654 36.6563C57.9935 39.1429 55.8092 42.8398 54.6117 44.8714C53.4139 46.903 52.3585 48.6442 52.2664 48.7407C51.8921 49.1324 52.1663 49.2247 53.5513 49.1732L55.0039 49.1193L58.3815 43.4168C65.0277 32.1962 66.4998 29.685 66.4998 29.5683C66.4998 29.5033 63.7285 29.4499 60.3414 29.4499C56.9543 29.4499 54.183 29.5014 54.183 29.5642ZM17.7008 49.1863C17.6434 49.2423 15.7032 47.4427 13.389 45.1872L9.18158 41.0864L13.4441 36.9287L17.7065 32.7712L17.7559 40.9278C17.783 45.414 17.7582 49.1304 17.7008 49.1863ZM36.8678 33.1898C36.3813 33.9384 25.3808 52.5718 25.3808 52.6472C25.3808 52.6876 28.1947 52.7207 31.6339 52.7207C35.0731 52.7207 37.887 52.6755 37.887 52.6202C37.887 52.5648 37.5715 51.9849 37.1859 51.3313L36.4846 50.1432L33.1381 50.0929L29.7915 50.0427L34.6096 41.9164C37.2596 37.4469 39.5522 33.5614 39.7044 33.2822L39.9811 32.7743H38.5595C37.2915 32.7743 37.1086 32.8192 36.8678 33.1898ZM78.5812 36.8851L82.7958 40.9959L78.5323 45.1485L74.2688 49.3008V41.0376C74.2688 36.4928 74.2908 32.7743 74.3177 32.7743C74.3446 32.7743 76.2632 34.6241 78.5812 36.8851ZM13.0494 39.7783C12.1242 40.6801 12.3819 42.1081 13.5688 42.6572C14.5883 43.1287 15.728 42.6332 16.0913 41.5605C16.6918 39.7871 14.4113 38.4509 13.0494 39.7783ZM76.4468 39.6543C76.1167 39.931 75.9159 40.3238 75.8465 40.8286C75.7559 41.4864 75.8177 41.6695 76.3125 42.2091C77.042 43.005 78.1424 43.0822 78.8977 42.3905C79.793 41.5707 79.6514 39.9574 78.6375 39.4286C78.0082 39.1003 76.9815 39.2059 76.4468 39.6543ZM12.1628 46.9481L17.8012 52.4413V60.3726V68.3036L17.2161 67.7612C16.8941 67.463 16.009 66.4708 15.2492 65.5566C9.91453 59.1386 6.92117 51.6517 6.33319 43.2554C6.26384 42.2649 6.27843 41.4547 6.36578 41.4547C6.45295 41.4547 9.06164 43.9267 12.1628 46.9481ZM85.4543 45.5158C84.5385 53.1785 81.1816 60.58 75.9157 66.5465L74.3636 68.3051L74.3141 60.3775L74.2647 52.4499L79.904 46.9497L85.5434 41.4497L85.6037 42.6064C85.6368 43.2426 85.5695 44.5519 85.4543 45.5158ZM34.9674 43.113C34.5929 43.7354 34.2867 44.3094 34.2867 44.3885C34.2867 44.6256 45.8035 64.0654 45.9774 64.1219C46.1019 64.1624 51.9683 54.5155 52.2593 53.7919C52.2955 53.7018 51.6666 53.6525 50.8619 53.6822L49.3983 53.7365L47.8174 56.3993C46.948 57.8639 46.1698 59.1274 46.0881 59.207C46.0066 59.2864 45.2449 58.1712 44.3956 56.7286C39.4931 48.4027 35.7615 42.0935 35.7087 42.0411C35.6753 42.008 35.3416 42.4904 34.9674 43.113ZM59.5952 43.2009L58.8956 44.4202L60.5186 47.1802C61.4113 48.6984 62.1416 49.9842 62.1416 50.0377C62.1416 50.0913 57.5796 50.1351 52.0039 50.1351C44.0162 50.1351 41.8678 50.184 41.8737 50.3659C41.8777 50.493 42.1609 51.0539 42.5028 51.6126L43.1247 52.6284L54.8121 52.676C61.8566 52.7046 66.4998 52.6559 66.4998 52.5532C66.4998 52.3835 60.7022 42.4226 60.4352 42.1338C60.3579 42.0501 59.9801 42.5303 59.5952 43.2009ZM77.0344 52.0793C76.2573 52.4743 75.9871 52.8908 75.9803 53.7045C75.9725 54.613 76.796 55.491 77.6561 55.491C78.7434 55.491 79.2804 55.0779 79.6501 53.957C79.8479 53.3575 79.2651 52.3607 78.5452 52.0676C77.7279 51.7348 77.7118 51.735 77.0344 52.0793ZM13.4638 52.4152C11.8843 53.3004 12.3279 55.5651 14.127 55.8002C14.802 55.8885 14.9898 55.8283 15.5435 55.3461C16.3767 54.6204 16.4449 53.5311 15.7025 52.8073C15.1253 52.2448 14.091 52.0636 13.4638 52.4152ZM26.0597 60.5659L31.9496 66.3877H25.9176H19.8856V60.57C19.8856 57.3702 19.9497 54.7504 20.0277 54.7482C20.1058 54.746 22.8202 57.364 26.0597 60.5659ZM71.995 60.57V66.3877H65.9798H59.9647L65.9313 60.57C69.2129 57.3702 71.9197 54.7523 71.9465 54.7523C71.9732 54.7523 71.995 57.3702 71.995 60.57ZM22.6853 61.3196C21.0822 62.1675 21.7327 64.7255 23.5514 64.7255C24.3649 64.7255 25.2936 64.0211 25.4357 63.2962C25.5784 62.5692 25.1274 61.6585 24.4576 61.3209C23.7534 60.966 23.3544 60.9658 22.6853 61.3196ZM67.7103 61.2127C67.1454 61.4351 66.4998 62.2926 66.4998 62.8204C66.4998 63.8205 67.3999 64.7255 68.3947 64.7255C69.0183 64.7255 69.7391 64.304 70.0196 63.7753C70.4595 62.9458 70.3542 62.3506 69.6453 61.6596C68.994 61.0249 68.4855 60.9074 67.7103 61.2127ZM39.9714 74.237C46.5582 80.6595 46.2872 80.0537 42.4075 79.6818C33.7245 78.8494 25.1282 75.1421 19.2485 69.6945L18.0855 68.6169L26.1399 68.6104L34.1943 68.604L39.9714 74.237ZM54.3725 68.7441C54.3725 68.8212 52.4964 70.7114 50.2032 72.9447L46.0339 77.0053L41.7242 72.8045L37.4142 68.604H45.8935C50.557 68.604 54.3725 68.6669 54.3725 68.7441ZM72.9424 69.5485C67.0014 74.8413 59.7705 78.2371 52.0039 79.3817C49.5137 79.7486 46.414 79.9555 46.414 79.7546C46.414 79.667 48.9503 77.1222 52.0502 74.0996L57.6861 68.604L65.8354 68.6119L73.9846 68.62L72.9424 69.5485ZM45.3506 70.2554C44.1229 70.7604 43.7867 72.2593 44.6898 73.2016C45.9706 74.5378 48.2862 73.284 47.8276 71.5028C47.5778 70.533 46.2732 69.8761 45.3506 70.2554ZM58.7308 70.2119C58.1951 70.4028 57.6135 71.0515 57.4911 71.5944C57.0462 73.5689 59.9729 74.6182 60.9241 72.825C61.3641 71.9956 61.2587 71.4003 60.5499 70.7094C59.9338 70.109 59.4165 69.9675 58.7308 70.2119ZM31.838 70.7443C31.3542 71.141 31.2549 71.3571 31.2549 72.0122C31.2549 73.499 32.5819 74.3511 33.8791 73.6973C35.0286 73.1179 35.2334 71.7147 34.3013 70.806C33.5754 70.0985 32.6535 70.0754 31.838 70.7443Z" fill="url(#paint0_linear_292_188)"/>
</g>
<defs>
<filter id="filter0_d_292_188" x="0" y="0" width="92" height="90" filterUnits="userSpaceOnUse" color-interpolation-filters="sRGB">
<feFlood flood-opacity="0" result="BackgroundImageFix"/>
<feColorMatrix in="SourceAlpha" type="matrix" values="0 0 0 0 0 0 0 0 0 0 0 0 0 0 0 0 0 0 127 0" result="hardAlpha"/>
<feOffset dy="4"/>
<feGaussianBlur stdDeviation="2"/>
<feComposite in2="hardAlpha" operator="out"/>
<feColorMatrix type="matrix" values="0 0 0 0 0 0 0 0 0 0 0 0 0 0 0 0 0 0 0.25 0"/>
<feBlend mode="normal" in2="BackgroundImageFix" result="effect1_dropShadow_292_188"/>
<feBlend mode="normal" in="SourceGraphic" in2="effect1_dropShadow_292_188" result="shape"/>
</filter>
<linearGradient id="paint0_linear_292_188" x1="46" y1="0" x2="46" y2="82" gradientUnits="userSpaceOnUse">
<stop stop-color="#FFFFC8"/>
<stop offset="1" stop-color="#97793D"/>
</linearGradient>
</defs>
</svg>
