<svg width="32" height="24" viewBox="0 0 32 24" fill="none" xmlns="http://www.w3.org/2000/svg">
<g clip-path="url(#clip0_716_45)">
<path d="M0 4.05246V7.55557H5.00267L0 4.05246ZM4.14578 23.5556H11.5556V18.3671L4.14578 23.5556ZM20.4444 18.368V23.5556H27.8533L20.4444 18.368ZM0 16.4445V19.9476L5.00444 16.4445H0ZM27.8551 0.444458H20.4444V5.6329L27.8551 0.444458ZM32 19.9485V16.4445H26.9947L32 19.9485ZM32 7.55557V4.05246L26.9964 7.55557H32ZM11.5556 0.444458H4.14578L11.5556 5.6329V0.444458Z" fill="#00247D"/>
<path d="M22.3466 16.4447L30.9795 22.49C31.4011 22.0557 31.7041 21.5203 31.8595 20.9353L25.4462 16.4447H22.3466ZM11.5555 16.4447H9.65242L1.02042 22.4891C1.48353 22.9602 2.0773 23.2971 2.74308 23.4535L11.5555 17.2829V16.4447ZM20.4444 7.55576H22.3475L30.9795 1.51132C30.5085 1.03334 29.9114 0.698898 29.2577 0.546875L20.4444 6.71754V7.55576ZM9.65242 7.55576L1.02042 1.51132C0.59904 1.94596 0.295806 2.48114 0.139526 3.06599L6.55286 7.55576H9.65242Z" fill="#CF1B2B"/>
<path d="M32 14.6667H18.6667V23.5556H20.4444V18.368L27.8533 23.5556H28.4444C28.9167 23.5556 29.3842 23.4614 29.8195 23.2784C30.2548 23.0954 30.6492 22.8273 30.9796 22.4898L22.3467 16.4445H25.4462L31.8596 20.9351C31.9422 20.6356 32 20.3253 32 20V19.9485L26.9947 16.4445H32V14.6667ZM0 14.6667V16.4445H5.00444L0 19.9476V20C0 20.9698 0.390222 21.8471 1.02044 22.4889L9.65244 16.4445H11.5556V17.2827L2.74311 23.4525C3.00444 23.5147 3.27467 23.5556 3.55556 23.5556H4.14578L11.5556 18.3671V23.5556H13.3333V14.6667H0ZM32 4.00001C32.0005 3.06844 31.6339 2.17419 30.9796 1.51112L22.3476 7.55557H20.4444V6.71735L29.2578 0.54668C28.9915 0.481371 28.7186 0.44707 28.4444 0.444458H27.8551L20.4444 5.6329V0.444458H18.6667V9.33335H32V7.55557H26.9964L32 4.05246V4.00001ZM11.5556 0.444458V5.6329L4.14578 0.444458H3.55556C3.08322 0.444253 2.61561 0.538514 2.18025 0.721698C1.74488 0.904882 1.35055 1.17329 1.02044 1.51112L9.65244 7.55557H6.55289L0.139556 3.06579C0.0513602 3.36953 0.00442081 3.68376 0 4.00001L0 4.05246L5.00267 7.55557H0V9.33335H13.3333V0.444458H11.5556Z" fill="#EEEEEE"/>
<path d="M18.6667 9.33335V0.444458H13.3333V9.33335H0V14.6667H13.3333V23.5556H18.6667V14.6667H32V9.33335H18.6667Z" fill="#CF1B2B"/>
</g>
<rect x="0.5" y="0.5" width="31" height="23" rx="1.5" stroke="white"/>
<defs>
<clipPath id="clip0_716_45">
<rect width="32" height="24" rx="2" fill="white"/>
</clipPath>
</defs>
</svg>
