<svg width="81" height="212" viewBox="0 0 81 212" fill="none" xmlns="http://www.w3.org/2000/svg">
<g filter="url(#filter0_d_13_5)">
<path fill-rule="evenodd" clip-rule="evenodd" d="M9.11854 8.31694C9.17838 8.49782 9.69652 10.3018 10.2698 12.3262C10.843 14.3505 11.5367 16.5316 11.811 17.1728L12.31 18.3388L12.6559 17.1002C12.8465 16.419 13.0888 15.8083 13.1945 15.7429C13.3003 15.6774 13.4471 16.8339 13.5208 18.3127C13.6434 20.7722 13.7455 21.1928 14.7174 23.2366C16.3275 26.6223 16.87 28.873 17.0524 32.9248C17.1396 34.855 17.2984 36.2747 17.4057 36.0796C17.5131 35.8843 17.7493 34.7953 17.9307 33.6599C18.1963 31.9968 18.1953 30.8621 17.9254 27.8271C17.5819 23.9662 17.6745 22.3054 18.3202 20.7577C18.6874 19.877 20.1279 18.2415 20.536 18.2415C20.6547 18.2415 20.4604 19.0814 20.104 20.1078C19.0992 23.0016 19.1922 25.3543 20.4925 29.9406C21.8563 34.7496 22.1169 36.0602 22.1169 38.1034C22.1169 39.0588 22.2316 39.7994 22.3794 39.7994C22.5238 39.7994 22.6513 39.119 22.6629 38.2877C22.6878 36.5039 23.1705 34.4906 23.607 34.3482C23.8341 34.2743 23.8774 34.762 23.77 36.1822C23.58 38.7 24.0551 40.3536 26.0932 44.2687C27.9374 47.8106 28.1539 48.0934 28.1539 46.9595C28.1539 45.6624 29.0967 41.1394 29.7038 39.5236C30.2829 37.9828 31.7714 35.4481 31.9766 35.6537C32.0433 35.7205 31.8966 36.2371 31.6504 36.8013C31.3212 37.5558 31.2073 38.5243 31.2202 40.4567C31.2346 42.6564 31.4546 44.0087 32.5659 48.7381C33.2964 51.8469 34.0765 55.2186 34.2993 56.2308L34.7046 58.0711L34.5739 56.317C34.5019 55.3524 34.0392 52.7497 33.5457 50.5332C31.8774 43.0392 31.8102 39.3296 33.2867 36.2752C33.9573 34.8884 34.9064 33.5928 35.1056 33.7924C35.1684 33.8552 34.9723 34.6707 34.6702 35.6043C34.262 36.8654 34.1208 37.9775 34.1211 39.9309C34.1219 42.8777 34.6282 45.3438 36.2805 50.4469C37.7656 55.0335 38.396 57.5674 38.5695 59.6485C38.6538 60.6607 38.806 61.6465 38.9073 61.8393C39.1024 62.2097 40.7449 58.196 41.2969 56.0005C41.4662 55.3269 41.7253 54.7012 41.8728 54.61C42.172 54.4249 41.9429 57.5321 41.5132 59.4863C41.073 61.4891 41.4423 60.9472 42.4258 58.1481C43.9595 53.7837 44.2453 52.1939 44.2721 47.8844C44.2855 45.7523 44.3317 44.0072 44.3753 44.0066C44.7391 44.0027 46.8021 51.1565 47.4079 54.5219C48.025 57.9504 48.4101 62.6153 48.2324 64.5122C47.8363 68.742 47.1533 72.5906 45.9759 77.2277C45.6871 78.365 45.495 79.3401 45.5493 79.3942C45.6491 79.4944 49.0728 71.6486 49.5345 70.2618C49.9267 69.0838 50.375 69.364 50.9569 71.1504C52.4409 75.7076 52.6383 79.8167 51.527 83.0241C51.2307 83.8793 51.0369 84.6278 51.0965 84.6875C51.2684 84.8597 53.1927 81.382 54.0042 79.4318C54.4106 78.4559 54.856 77.6572 54.994 77.6572C55.1321 77.6572 55.1885 77.805 55.1193 77.9859C55.0502 78.1668 54.8363 79.0186 54.6439 79.879C54.4518 80.7398 53.7985 82.4334 53.1924 83.643C51.9008 86.221 52.3475 85.992 54.656 82.8929C56.3484 80.6207 58.1868 77.183 59.5197 73.7986C60.3069 71.8001 60.4105 71.6429 60.2691 72.6621C59.7449 76.4403 56.5169 83.7999 52.9638 89.3183C51.8601 91.0324 51.0154 92.4933 51.0868 92.5648C51.1582 92.6366 51.6086 92.5675 52.0874 92.4116C52.5661 92.2557 54.3599 91.8263 56.0731 91.4575C60.1785 90.5739 62.0749 89.9124 63.8083 88.7601C64.9771 87.983 65.3792 87.5071 66.0126 86.1511C66.4388 85.2391 66.852 84.4927 66.9307 84.4927C67.2801 84.4927 66.715 87.5195 66.1244 88.8116C64.8152 91.676 62.093 93.877 55.8379 97.1293C52.3792 98.9276 48.7237 101.24 48.9621 101.479C49.0216 101.538 49.5692 101.411 50.1789 101.195C50.7886 100.98 53.2068 100.268 55.5531 99.614C64.5028 97.1183 67.9316 95.416 71.8262 91.535C72.8202 90.5444 73.6814 89.7823 73.7402 89.8412C73.9525 90.0538 72.5606 92.803 71.59 94.0886C70.212 95.9137 67.7003 98.0426 64.9913 99.6826C62.2893 101.318 62.0875 101.48 63.4705 100.902C65.2593 100.156 67.0987 99.1813 68.0022 98.5019C69.3749 97.4698 69.2581 97.9824 67.8518 99.1618C65.8233 100.863 62.7277 102.663 58.0763 104.848C55.6943 105.966 53.0071 107.292 52.105 107.793C50.4986 108.686 50.0088 109.119 50.9238 108.836C51.1763 108.758 52.7367 108.568 54.3911 108.414C58.8139 108.002 60.1145 107.611 61.6843 106.22C62.5164 105.483 62.7513 105.908 62.1384 107.04C61.4381 108.335 60.5447 108.797 56.8999 109.752C55.1943 110.199 53.1963 110.84 52.4598 111.178L51.1207 111.791L52.473 111.813C53.2166 111.825 55.9912 112.249 58.6385 112.755C61.2859 113.261 64.1739 113.675 65.0566 113.675H66.6614L66.5743 115.318C66.5265 116.222 66.4178 117.257 66.3328 117.618C66.1829 118.256 66.1903 118.26 66.5811 117.75C68.3528 115.436 64.2873 125.341 61.8809 129.201C61.4804 129.843 60.5764 131.109 59.8724 132.012C59.1685 132.916 58.7044 133.655 58.8412 133.655C59.2202 133.655 62.4143 129.893 63.775 127.843C64.4388 126.843 65.0317 126.075 65.0926 126.136C65.2606 126.304 63.6692 129.845 62.361 132.212C61.2281 134.262 59.1415 137.258 57.2962 139.483C56.4248 140.534 56.4133 140.575 57.0338 140.4C64.6548 138.256 71.0745 139.888 72.1315 144.237C72.2315 144.649 72.1976 144.96 72.053 144.96C71.9133 144.96 70.9262 144.559 69.8592 144.07C67.6006 143.033 64.728 142.331 62.7434 142.331C60.0945 142.331 56.9038 143.54 54.7954 145.344L54.0079 146.017L55.4515 145.456C57.8782 144.514 59.4365 144.178 61.3838 144.175C63.3718 144.171 64.6052 144.48 65.7286 145.263C66.1118 145.53 66.7696 145.749 67.1903 145.749C69.4363 145.749 72.0377 147.252 73.2827 149.27C74.3063 150.929 74.2208 153.553 73.1131 154.469C72.737 154.781 72.7073 154.732 72.8436 154.03C73.1118 152.649 72.5491 150.798 71.5595 149.807C70.4211 148.667 69.1348 148.124 67.1318 147.94C62.9342 147.553 58.5501 149.631 53.5903 154.359C51.1829 156.653 50.0382 158.066 48.7426 160.34L47.9938 161.654L49.1314 160.639C50.4542 159.458 52.075 158.677 53.3628 158.601C54.5145 158.533 56.5015 158.876 56.5015 159.143C56.5015 159.255 55.7943 159.411 54.9303 159.489C53.0365 159.661 51.2679 160.473 50.05 161.729C49.5542 162.24 49.1844 162.695 49.2282 162.738C49.272 162.782 49.882 162.645 50.5842 162.433C53.0627 161.686 55.1888 162.057 56.4815 163.461C57.2359 164.28 56.9448 164.356 55.8453 163.626C54.8476 162.964 53.0528 162.949 51.6456 163.59C50.1713 164.262 47.6785 166.623 46.772 168.206C46.3515 168.941 46.0063 169.617 46.0047 169.708C46.0034 169.8 46.7998 169.451 47.7741 168.932C49.3245 168.107 49.8296 167.976 51.817 167.88C53.8126 167.784 54.2602 167.849 55.5038 168.42C57.5112 169.34 58.7275 170.514 59.6782 172.449C60.4549 174.029 60.4969 174.265 60.3924 176.454C60.3003 178.384 60.1609 178.986 59.5717 179.993C58.3627 182.059 56.3463 182.996 54.5772 182.313C53.3872 181.853 53.8565 181.359 55.3865 181.46C57.7477 181.615 58.8693 180.163 58.858 176.963C58.8509 174.976 58.2658 173.595 56.8608 172.249C55.4781 170.924 54.2436 170.462 52.0897 170.462C49.7046 170.462 47.7058 171.436 45.637 173.609C43.7776 175.562 42.9973 177.245 42.1954 181.033C40.0045 191.383 36.2739 200.469 30.8572 208.648C29.1219 211.268 28.5098 212 28.0542 212C27.3927 212 26.8415 211.546 26.8415 211.001C26.8415 210.799 27.4762 209.551 28.2518 208.228C32.2383 201.427 34.9618 194.347 36.0038 188.076C36.9655 182.287 37.1487 178.89 36.6771 175.592C35.8285 169.661 34.725 166.794 32.2961 164.21C30.5984 162.404 30.623 162.377 32.5869 163.891C33.5462 164.631 33.6864 164.681 33.4247 164.192C32.7189 162.871 29.6839 159.995 28.108 159.154C26.0919 158.077 23.4123 157.793 21.4852 158.451C19.9106 158.988 19.936 158.584 21.5264 157.8C22.5248 157.308 23.196 157.186 24.8966 157.188C26.794 157.192 27.2182 157.29 28.8791 158.116C29.9015 158.624 30.6792 158.945 30.6073 158.829C30.5356 158.712 29.0978 157.569 27.4124 156.288C24.4469 154.034 23.3571 153.026 22.161 151.431C21.2867 150.266 21.5054 149.968 22.455 151.03C23.7306 152.458 25.3417 153.651 28.8101 155.737C30.5425 156.779 32.3732 157.935 32.8785 158.305L33.7972 158.979L32.8785 157.986C32.3732 157.439 30.4243 155.843 28.5476 154.439C24.3845 151.324 21.8277 148.671 20.7069 146.301C20.0106 144.829 19.8859 144.261 19.8854 142.56L19.8846 140.554L17.8916 138.465C13.698 134.068 11.8858 130.356 11.8871 126.163C11.8874 124.161 12.073 123.139 12.436 123.139C12.5633 123.139 12.6678 123.355 12.6678 123.618C12.6678 125.127 13.6024 126.742 15.6676 128.8C18.6892 131.812 20.2654 132.939 26.3239 136.425C29.2794 138.125 32.0223 139.743 32.4192 140.021C32.816 140.299 33.141 140.415 33.141 140.279C33.141 139.871 29.5563 136.589 25.9229 133.671C16.2031 125.864 12.342 120.332 12.0194 113.747C11.9572 112.478 11.7226 110.92 11.4979 110.285C10.9401 108.708 10.7225 105.94 11.0267 104.291C11.3391 102.595 10.9194 100.214 9.94666 98.1636C9.28521 96.7697 9.07104 95.7975 9.42538 95.7975C9.64796 95.7975 11.5021 97.3065 14.1114 99.6116C16.091 101.36 18.6407 103.279 20.4108 104.351L21.1983 104.828L20.6733 104.301C20.3846 104.011 18.5538 102.351 16.6049 100.612C12.6764 97.1065 11.3622 95.7504 10.0755 93.8749C8.75606 91.9512 6.74049 87.5318 5.98298 84.9018C5.08767 81.793 4.35326 76.1727 4.68871 75.0004L4.93885 74.127L6.9447 77.0326C9.80229 81.1725 13.6465 84.7188 20.2796 89.334L21.7232 90.3386L20.5371 89.1902C19.8848 88.5587 17.9233 86.832 16.1784 85.3534C10.6034 80.6293 8.37336 77.9028 6.7145 73.7818C5.73152 71.3403 5.39949 69.4708 5.77379 68.4862C6.00397 67.8813 6.08824 67.9349 8.2004 70.0279C10.9727 72.7752 13.4581 74.7532 16.6107 76.7221C17.979 77.5765 19.6775 78.6923 20.3851 79.2013C21.5781 80.0594 21.6392 80.077 21.2243 79.4426C20.9781 79.0664 19.2769 77.3964 17.4441 75.7315C15.6112 74.0665 13.4618 72.0238 12.6678 71.1917L11.2241 69.6792L12.9302 70.9977C13.8686 71.7228 16.2309 73.5523 18.1798 75.0632C22.6702 78.5443 22.7902 78.6111 21.1589 76.7237C19.1103 74.3536 15.9548 71.3939 13.324 69.3748C5.43782 63.3228 2.99704 60.3357 1.57835 55.0014C1.05707 53.0407 0.996956 52.1842 1.00011 46.7663C1.00457 39.2155 1.86996 31.8493 3.75061 23.3497C4.55405 19.7177 7.44473 9.99688 8.09646 8.73443C8.5033 7.94625 8.9369 7.76905 9.11854 8.31694ZM3.76846 46.5034C5.0979 50.9507 7.80406 55.3385 11.6772 59.3272C13.545 61.2509 13.8374 61.4801 13.0927 60.4372C8.15577 53.5218 5.71185 49.2931 4.37715 45.3553C3.69077 43.3312 3.61491 43.2158 3.42488 43.9094C3.28288 44.4267 3.39075 45.2402 3.76846 46.5034ZM3.31465 51.1699C3.53198 54.2175 3.99445 55.9857 5.19633 58.364C6.48405 60.9123 8.78835 63.3522 13.5255 67.184C15.7246 68.9628 18.342 71.2482 19.342 72.263C21.4033 74.3544 21.4041 74.3565 18.732 70.4275C16.4548 67.0791 14.535 64.6568 11.9609 61.8832C8.48492 58.1379 6.1011 54.9673 4.77822 52.329C4.0648 50.9062 3.48105 49.5163 3.48105 49.24C3.48105 48.9639 3.40467 48.7381 3.31097 48.7381C3.21752 48.7381 3.21911 49.8323 3.31465 51.1699ZM44.1781 58.5948C43.864 59.7502 42.5041 63.6543 41.1565 67.2705C38.6735 73.9325 36.9338 79.1776 37.1388 79.3829C37.2005 79.4447 37.7601 78.3424 38.3824 76.9332C42.818 66.8864 43.6907 64.509 44.2808 60.8662C45.1275 55.6395 45.1068 55.1794 44.1781 58.5948ZM45.0866 66.221C44.8414 67.0886 44.128 69.4547 43.5012 71.4791C41.3269 78.5014 39.747 84.6244 40.035 84.9128C40.0979 84.9759 41.0499 82.619 42.1508 79.675C44.6351 73.0302 45.9654 67.7937 46.1362 63.9864L46.2599 61.2259L45.8963 62.9348C45.6963 63.8746 45.332 65.3535 45.0866 66.221ZM47.7783 79.8919C47.1179 81.4825 46.0837 83.8486 45.48 85.1499C44.2191 87.8676 42.976 91.0579 43.3288 90.6706C43.7658 90.1908 46.5418 85.1854 47.7024 82.7838C48.9358 80.2326 49.9508 76.6304 49.9209 74.9126L49.9023 73.8452L49.4406 75.4226C49.1867 76.2902 48.4387 78.3014 47.7783 79.8919ZM56.2196 93.0044C53.2845 93.7474 50.4766 94.8255 49.0865 95.7433C48.0723 96.4129 47.7478 96.7936 48.5615 96.3596C48.814 96.2247 51.1154 95.3973 53.6754 94.5206C57.6414 93.1627 61.0174 91.779 59.2575 92.233C58.9687 92.3074 57.6018 92.6545 56.2196 93.0044ZM12.9452 114.238C14.119 117.221 16.1587 119.798 19.3743 122.361C20.7972 123.495 28.4062 128.368 30.0907 129.224C31.1136 129.744 28.8539 127.889 24.2168 124.403C19.2719 120.686 14.8261 116.494 13.4657 114.266C13.0022 113.507 12.5756 112.886 12.5179 112.886C12.4601 112.886 12.6525 113.495 12.9452 114.238ZM60.857 115.494C58.1624 115.661 57.8036 115.75 56.0476 116.676C54.42 117.535 51.3052 120.125 51.5748 120.396C51.6244 120.445 52.3971 120.136 53.2919 119.709C54.1869 119.282 54.9909 118.933 55.0786 118.933C55.166 118.933 54.7247 119.509 54.0979 120.213C53.4709 120.918 52.742 121.869 52.4779 122.326L51.9981 123.159L53.7903 122.056C54.7762 121.45 57.2364 120.163 59.2575 119.198C62.3962 117.699 63.082 117.259 63.9598 116.185C64.8598 115.083 64.9118 114.95 64.3781 115.12C64.0432 115.226 62.4586 115.395 60.857 115.494ZM50.8033 116.338C48.734 117.317 47.1079 119.24 46.3937 121.553C46.2606 121.984 46.6294 121.676 47.4972 120.632C49.8151 117.844 51.3464 116.757 54.4016 115.731L55.8453 115.246L54.1392 115.407C53.0767 115.507 51.8183 115.859 50.8033 116.338ZM59.5199 120.254C57.4498 121.783 55.9933 123.384 55.1481 125.061C54.7187 125.913 54.4224 126.665 54.4898 126.733C54.667 126.91 59.1123 122.682 60.0599 121.435C60.5011 120.854 61.2098 119.907 61.6347 119.329L62.4072 118.28L61.6198 118.783C61.1867 119.059 60.2418 119.722 59.5199 120.254ZM14.5093 130.643C14.9164 131.715 16.8606 134.459 18.2869 135.975C20.0502 137.848 22.6897 139.797 26.1853 141.806C27.7733 142.719 29.3679 143.637 29.7288 143.847C30.9535 144.558 27.7943 141.761 24.2259 138.976C19.0089 134.904 16.6026 132.806 15.429 131.308C14.8545 130.575 14.3552 129.975 14.3198 129.975C14.2846 129.975 14.3697 130.275 14.5093 130.643ZM21.1418 142.98C21.4786 146.248 23.9228 149.128 30.1335 153.572C32.0042 154.911 34.1056 156.544 34.8033 157.2C36.2647 158.576 36.2681 158.343 34.8298 155.345C33.6518 152.889 31.6989 150.357 29.3786 148.277C27.487 146.581 21.292 141.545 21.0959 141.543C21.0397 141.543 21.0602 142.189 21.1418 142.98ZM55.9363 148.991C53.3097 150.49 51.7291 151.815 50.0794 153.898C48.1059 156.39 48.1649 156.378 50.8196 153.747C52.1438 152.435 54.4058 150.571 55.8466 149.607C58.8349 147.605 58.8774 147.313 55.9363 148.991Z" fill="url(#paint0_linear_13_5)"/>
</g>
<defs>
<filter id="filter0_d_13_5" x="0" y="0" width="81" height="212" filterUnits="userSpaceOnUse" color-interpolation-filters="sRGB">
<feFlood flood-opacity="0" result="BackgroundImageFix"/>
<feColorMatrix in="SourceAlpha" type="matrix" values="0 0 0 0 0 0 0 0 0 0 0 0 0 0 0 0 0 0 127 0" result="hardAlpha"/>
<feOffset dx="3" dy="-4"/>
<feGaussianBlur stdDeviation="2"/>
<feComposite in2="hardAlpha" operator="out"/>
<feColorMatrix type="matrix" values="0 0 0 0 0 0 0 0 0 0 0 0 0 0 0 0 0 0 0.5 0"/>
<feBlend mode="normal" in2="BackgroundImageFix" result="effect1_dropShadow_13_5"/>
<feBlend mode="normal" in="SourceGraphic" in2="effect1_dropShadow_13_5" result="shape"/>
</filter>
<linearGradient id="paint0_linear_13_5" x1="37.5" y1="8" x2="37.5" y2="212" gradientUnits="userSpaceOnUse">
<stop stop-color="#FFFFC8"/>
<stop offset="1" stop-color="#97793D"/>
</linearGradient>
</defs>
</svg>
