<svg width="146" height="175" viewBox="0 0 146 175" fill="none" xmlns="http://www.w3.org/2000/svg">
<g filter="url(#filter0_d_15_43)">
<path fill-rule="evenodd" clip-rule="evenodd" d="M70.3989 0.293307C68.2236 0.660313 65.4347 2.02556 63.5506 3.64614C61.2157 5.65436 60.8657 9.01431 62.7186 11.6296C64.3015 13.8633 66.4029 14.0891 68.2579 12.2249C69.4948 10.982 69.7358 9.99121 69.0949 8.78742C68.6239 7.90334 68.1773 7.91151 67.9437 8.80911C67.5884 10.174 65.5684 9.9873 65.5684 8.58969C65.5684 7.72943 66.9408 6.67714 68.0626 6.67714C70.6548 6.67714 71.7925 10.2042 69.9736 12.6008C67.0342 16.4732 62.1365 15.2822 60.4077 10.2743L59.9643 8.9887L59.5174 10.0556C59.2243 10.7555 59.0209 13.6911 58.9253 18.5906L58.7799 26.0587L60.1041 27.3863C62.0091 29.2967 64.2509 30.285 66.984 30.4194C69.6607 30.551 70.6824 30.1264 71.8393 28.4016C73.4006 26.0733 72.4172 22.9363 69.9824 22.4772C68.3677 22.1728 67.8708 22.6166 68.4345 23.8602C68.7672 24.5943 68.7619 24.909 68.4083 25.3368C67.7866 26.0897 66.7278 26.0178 66.2886 25.1931C65.1735 23.0996 66.6552 20.9014 69.1798 20.9036C72.1326 20.9061 74.0617 23.0743 74.0617 26.3905C74.0617 29.7242 72.2827 31.9276 69.023 32.6314C67.2058 33.0237 65.561 32.7861 62.9143 31.7494C62.525 31.5969 64.1189 33.3746 66.4563 35.7001C69.4601 38.6888 70.9843 40.5014 71.6556 41.8841C73.6632 46.0189 73.3033 49.5595 70.4435 53.8135C68.2388 57.0934 67.8888 59.043 69.0825 61.3947C70.8933 64.9617 75.4885 65.275 77.064 61.9388C77.7311 60.5259 77.735 59.9655 77.0877 58.4093C76.5215 57.0472 75.6616 56.7844 75.3753 57.8854C75.1244 58.8492 74.1292 59.1746 73.4671 58.5088C72.311 57.347 74.4177 55.1859 76.2394 55.6645C77.2392 55.9273 78.6045 57.7496 78.8709 59.1767C79.5546 62.84 75.9712 66.4631 72.4193 65.6999C71.3205 65.4638 71.3052 65.4795 71.0908 67.0975C70.8279 69.077 69.7733 70.9177 68.5917 71.4586C67.8938 71.7783 67.542 71.7399 66.8215 71.2655C65.8484 70.6246 65.6226 69.4589 66.4124 69.1541C66.6821 69.0503 67.2292 69.195 67.6284 69.476C68.2831 69.9369 68.4076 69.9091 68.9073 69.1922C69.2389 68.7164 69.4612 67.6491 69.4612 66.5314C69.4612 65.0093 69.2545 64.3703 68.3415 63.0683C67.105 61.3058 66.6145 58.3947 67.2473 56.5749L67.5951 55.5756L65.6084 55.6827C63.1641 55.8139 60.8338 54.7445 59.6437 52.9447C58.9529 51.8999 58.8446 51.2729 58.8446 48.312C58.8446 44.5473 59.1663 43.7095 60.9718 42.771C63.9303 41.2336 68.0456 43.5658 68.0456 46.78C68.0456 48.0296 67.1276 49.9614 66.3293 50.3906C64.5786 51.332 61.6757 50.4433 61.6757 48.9653C61.6757 47.9624 62.6103 47.7369 64.0018 48.4041C65.4846 49.1146 66.1672 48.8824 66.4538 47.5702C67.1535 44.3699 62.6581 42.3762 60.6183 44.9823C59.5832 46.3048 59.6274 49.5478 60.7025 51.1307C62.3753 53.5934 66.0635 54.3985 68.4356 52.8192C70.1219 51.6965 71.2812 49.1939 71.2812 46.6772C71.2812 43.4125 70.0366 41.3279 65.2351 36.5497C62.9748 34.3003 60.6123 31.8234 59.9852 31.0453L58.8446 29.6306L58.8092 34.6016C58.7823 38.325 58.6946 39.2364 58.4596 38.2332C57.9967 36.2584 56.8519 34.1869 55.2722 32.4646C53.915 30.9848 53.8329 30.95 52.5073 31.2882C46.871 32.7256 45.7778 40.8222 51.1381 41.4296C53.6227 41.7109 54.5612 41.3481 55.1763 39.8687C55.7885 38.3968 55.4293 37.6902 54.3616 38.2649C53.4964 38.73 52.4747 38.172 52.4747 37.2346C52.4747 36.2335 54.0336 35.6983 55.2467 36.2826C57.4206 37.3296 57.4248 40.2155 55.2552 42.0501C54.3882 42.7831 53.8145 42.9509 52.1767 42.9509C49.5 42.9509 47.9234 42.0967 46.901 40.0931C45.8808 38.0934 45.8988 36.4761 46.9669 34.1705C47.8017 32.3689 50.1879 30.1484 51.2892 30.1484C51.5521 30.1484 51.7669 30.0058 51.7669 29.8316C51.7669 29.195 48.6896 28.2668 46.0163 28.0972L43.2737 27.9233V29.7587C43.2737 30.7679 43.0564 32.1161 42.791 32.7548C41.7368 35.2904 38.4977 36.8591 36.7254 35.6923C34.9245 34.5066 36.2371 33.0325 38.5278 33.668C40.1479 34.1176 40.6168 33.9145 41.3001 32.4678C41.9782 31.0314 42.0535 28.3667 41.4158 28.3781C40.5467 28.3934 37.8034 29.8404 36.3064 31.0734C33.3604 33.4991 31.2417 37.8509 31.2417 41.4758C31.2417 43.0718 31.3683 43.3386 32.6961 44.5445C36.1766 47.7042 41.385 48.3337 43.7267 45.8777C46.2078 43.2753 44.7324 39.0391 41.3451 39.0391C40.3499 39.0391 40.1737 39.6827 40.8638 40.793C41.3727 41.612 40.7399 42.5953 39.7041 42.5953C38.3027 42.5953 37.8568 40.0277 39.037 38.7549C41.2576 36.3594 45.6409 38.1475 46.3079 41.7212C47.4287 47.7252 41.775 51.3316 35.5219 48.6015C34.6648 48.2274 33.9089 47.9759 33.8424 48.0428C33.7755 48.1096 35.8606 50.1954 38.4751 52.678C44.518 58.415 45.2031 59.6301 44.9727 64.2028C44.697 69.6712 42.5723 72.1659 38.0047 72.3843C35.2607 72.5151 33.3933 71.6592 32.0485 69.6538L31.2417 68.4507V73.1645C31.2417 77.5181 31.1942 77.8581 30.6224 77.6127C26.5668 75.8722 25.2578 75.5607 21.3329 75.4C17.6256 75.2481 17.0166 75.3168 14.493 76.1688C11.2486 77.2645 8.52476 78.9324 5.89151 81.4349L4 83.2326L7.26989 84.8312C11.8806 87.0858 15.4931 90.7559 18.0269 95.7613C21.2554 102.139 22.3836 106.458 25.2228 123.304C27.9962 139.763 29.3777 145.151 32.3868 151.239C37.188 160.953 44.4079 165.673 56.107 166.746C61.5483 167.245 91.093 166.95 93.8792 166.369C106.828 163.669 113.572 156.037 117.768 139.334C118.283 137.284 119.637 130.071 120.777 123.304C123.616 106.458 124.745 102.139 127.973 95.7613C130.507 90.7559 134.119 87.0858 138.73 84.8312L142 83.2326L140.108 81.4349C135.729 77.2723 131.101 75.3129 125.652 75.3129C122.08 75.3129 119.223 75.9071 116.262 77.2659L114.404 78.1184L114.401 73.4263L114.397 68.7338L113.483 69.8995C111.548 72.3668 107.701 73.1962 104.673 71.7989C101.956 70.5453 100.567 67.8532 100.525 63.7572C100.483 59.6767 101.387 58.1692 107.171 52.678C109.786 50.1954 111.861 48.1 111.782 48.0207C111.704 47.9418 111.143 48.1352 110.536 48.4507C106.273 50.6659 100.93 49.3188 99.564 45.6839C98.6934 43.3691 99.3403 40.3293 101.038 38.7581C102.885 37.0476 106.164 37.4327 106.999 39.4583C107.843 41.5064 106.12 43.6007 104.854 42.0668C104.476 41.6095 104.473 41.3464 104.838 40.6611C105.664 39.1105 104.382 38.528 102.405 39.5558C99.363 41.1365 100.534 46.2422 104.164 47.2245C106.707 47.9126 110.876 46.5595 113.254 44.2728C114.59 42.9893 114.717 41.8168 113.875 38.5696C113.116 35.6407 112.095 33.8224 110.126 31.8949C108.473 30.2772 105.152 28.3703 103.987 28.3703C102.984 28.3703 103.535 31.6627 104.817 33.3274C105.447 34.146 105.566 34.1702 106.934 33.7584C109.381 33.0215 110.832 34.4341 108.921 35.6923C106.165 37.5067 102.019 33.5806 102.019 29.1573V27.9368L99.4528 28.0812C97.7659 28.1758 96.2813 28.5072 95.1178 29.0492L93.3483 29.8728L94.41 30.2338C97.1462 31.1641 99.06 33.6912 99.4132 36.8406C99.5604 38.1543 99.4238 38.8353 98.7656 40.0686C97.6841 42.0939 96.1051 42.9509 93.4545 42.9509C91.7049 42.9509 91.2604 42.8041 90.2147 41.8816C88.0737 39.9925 88.239 37.0646 90.5357 36.1869C91.7099 35.7385 93.1714 36.3221 93.1714 37.2396C93.1714 38.1706 92.1172 38.7371 91.2703 38.2609C90.3053 37.7183 89.9082 38.3516 90.3729 39.6913C90.8605 41.0971 91.6171 41.5288 93.5904 41.527C96.8051 41.5242 98.6442 39.0942 97.8045 35.9597C97.2839 34.0166 96.1833 32.6865 94.438 31.8896C92.304 30.9159 91.6433 31.0385 90.1641 32.684C88.4205 34.6232 87.149 37.4914 86.9137 40.016C86.6691 42.6422 85.5565 44.4104 83.5281 45.3973C80.8449 46.7024 77.2625 46.2177 75.182 44.2675C73.4735 42.6657 72.8393 40.8719 72.8308 37.6166C72.8199 33.3522 73.7187 31.6488 78.7825 26.3379C80.9546 24.0594 82.4133 22.3193 82.024 22.4708C80.9019 22.9075 77.4363 23.1508 76.0537 22.8901C74.5712 22.6106 72.8439 21.2517 72.0774 19.7613C71.3661 18.379 71.3817 15.215 72.1071 13.8053C72.8705 12.322 74.6141 11.3006 76.3619 11.3131C78.0605 11.3248 78.8869 11.8888 79.4081 13.3917C80.117 15.4351 78.1833 17.1926 77.11 15.4799C76.8212 15.0187 76.8372 14.672 77.1726 14.1321C77.7704 13.1705 77.4409 12.7228 76.1368 12.7228C75.4284 12.7228 74.7206 13.0727 74.0344 13.7623C73.1851 14.6161 73 15.1001 73 16.4714C73 17.9366 73.1681 18.3096 74.3738 19.5216C75.6846 20.8385 75.8523 20.9022 78.0202 20.9022C81.1354 20.9022 83.625 19.6649 84.8965 17.485C85.7211 16.071 85.7993 15.6233 85.6839 12.9852C85.456 7.77922 83.2768 4.95769 79.2224 4.61985C76.6992 4.40967 75.7079 4.94809 76.0165 6.36063C76.237 7.3699 75.7649 8.45527 75.1053 8.45527C74.4417 8.45527 73.7078 7.25325 73.7078 6.16682C73.7078 3.74003 76.444 2.31397 79.7822 3.00104C80.7019 3.19023 81.375 3.21655 81.2784 3.05936C80.8162 2.30828 77.7859 0.913874 75.606 0.449783C72.9314 -0.119574 72.8609 -0.121708 70.3989 0.293307ZM85.3852 20.8008C84.899 21.7229 82.666 24.4061 80.4231 26.7636C78.1798 29.121 76.002 31.6068 75.5837 32.2882C72.4653 37.3644 74.9411 44.0178 79.9485 44.0178C83.1674 44.0178 85.7398 41.5042 85.7398 38.3587C85.7398 35.7204 84.3009 34.0603 82.0145 34.0603C79.8767 34.0603 78.2686 37.1717 79.5217 38.8822C80.0165 39.5572 80.0543 39.5579 81.2505 38.9164C82.74 38.1169 83.7567 38.2545 83.9021 39.2752C84.0433 40.2667 82.7601 41.1728 81.2144 41.1728C79.6598 41.1728 78.7885 40.6717 78.1349 39.4018C76.5417 36.3054 78.8171 32.6424 82.3362 32.6392C83.688 32.6378 86.0937 33.7939 86.0937 34.4451C86.0937 34.6247 86.213 34.7715 86.3591 34.7715C86.5053 34.7715 86.6245 31.2509 86.6245 26.9478C86.6245 22.6447 86.5446 19.124 86.4469 19.124C86.3492 19.124 85.8715 19.8787 85.3852 20.8008ZM31.2417 54.2324V61.373L32.3288 60.3528C34.2065 58.5899 36.6409 58.5348 38.6223 60.2101C41.1327 62.3332 40.7116 66.4738 37.8844 67.4642C36.4604 67.9631 34.307 67.0061 34.1364 65.7984C33.9779 64.6757 34.9769 64.3969 36.3999 65.1672C37.8285 65.9403 38.52 65.7273 38.7652 64.4385C39.2182 62.0573 37.2864 60.0917 34.9298 60.5363C30.8878 61.298 31.2211 68.062 35.3885 69.8465C39.6641 71.6773 43.6088 68.6847 43.6219 63.6007C43.6304 60.1799 42.854 58.9221 37.6707 53.9607C35.2052 51.6008 32.7499 49.0901 32.2148 48.381L31.2417 47.0918V54.2324ZM114.051 47.5901C114.051 47.7946 111.661 50.3049 108.742 53.1688C102.72 59.0746 102.016 60.1693 102.024 63.6007C102.031 66.3177 102.953 68.2558 104.855 69.5549C105.887 70.2594 106.421 70.3736 108.128 70.2537C109.45 70.1605 110.508 69.8551 111.136 69.3849C114.4 66.94 114.255 61.5565 110.899 60.5892C108.428 59.8773 106.054 62.393 106.953 64.7707C107.366 65.8621 107.929 65.9428 109.362 65.1164C110.647 64.3752 111.665 64.6985 111.51 65.7984C111.438 66.3049 110.929 66.8298 110.127 67.2242C106.133 69.1872 103.485 63.2027 107.024 60.2101C109.033 58.5113 111.513 58.5928 113.329 60.4175L114.404 61.4982V54.3583C114.404 50.4315 114.325 47.2184 114.228 47.2184C114.13 47.2184 114.051 47.3856 114.051 47.5901ZM86.4288 48.0847C87.1345 48.939 86.2685 50.009 84.5119 50.4536C81.0668 51.3252 81.0459 53.1595 84.4064 59.756L86.6245 64.1106L86.7452 67.9653L86.8659 71.8199L87.6299 71.1008C88.5012 70.2808 90.0484 69.6228 91.1061 69.6228C92.3415 69.6228 94.2865 70.7626 95.0024 71.906C96.5974 74.454 94.9975 78.3001 92.3423 78.3001C90.868 78.3001 89.2787 77.3122 89.2787 76.3954C89.2787 75.4053 90.4291 75.1973 91.9293 75.916C93.1958 76.5234 93.2546 76.5213 93.7358 75.8602C94.7812 74.4234 94.1885 72.4753 92.4272 71.5599C90.9865 70.8113 89.5324 71.173 88.3614 72.5713C87.5015 73.5987 87.4392 73.8854 87.596 76.0902C87.7874 78.7763 88.3964 79.9783 90.094 81.0185C91.5651 81.9197 94.3559 81.9378 96.0081 81.0566C98.0171 79.9847 98.9924 77.8246 99.0023 74.4238C99.0094 71.9127 98.8891 71.37 97.975 69.8007C97.4056 68.8227 95.0788 66.1021 92.8048 63.755C87.2863 58.06 86.4476 56.8498 86.4476 54.5831V52.8082L87.9081 54.4757C90.2165 57.1109 93.7546 58.5654 96.5673 58.0351C97.3189 57.8936 98.3328 57.2997 99.0445 56.5845C100.088 55.5365 100.249 55.14 100.249 53.6275C100.249 51.2797 99.2002 49.9987 97.2234 49.9326C96.0103 49.8917 95.8411 49.9795 95.943 50.5969C96.292 52.71 96.195 53.0845 95.271 53.1926C93.4216 53.4088 93.1495 50.3383 94.8952 48.9539C95.9844 48.0901 98.2496 48.1747 99.7059 49.1335C101.77 50.4927 102.45 54.3576 101.092 57.007C99.6227 59.8716 95.1747 61.0633 91.6274 59.543C90.4069 59.0195 90.697 59.4118 94.3343 63.2031C99.5456 68.6349 100.435 70.3035 100.406 74.6016C100.384 77.9416 99.7519 79.6586 97.8929 81.4246C96.5524 82.6981 95.288 83.1366 92.9573 83.1366C90.5247 83.1366 88.55 82.169 87.3443 80.3858C86.5722 79.2436 86.4476 78.6707 86.4476 76.257V73.4544L85.2975 75.1838C84.5034 76.3779 83.5995 77.1884 82.3779 77.8022C81.4047 78.2912 80.5416 78.7318 80.4595 78.7816C80.3778 78.8314 80.6379 79.2315 81.0374 79.6707C82.0969 80.835 82.9682 82.718 82.8419 83.5694C82.6763 84.685 80.916 85.8831 80.1534 85.3995C79.3108 84.8657 79.3961 84.0922 80.3431 83.6747C82.2711 82.8247 80.1106 80.0235 76.7756 79.049C73.2244 78.0117 71.5339 75.9462 71.5339 72.6457C71.5339 69.3458 73.425 67.1377 76.2536 67.1349C78.7573 67.1324 80.4507 69.7199 79.0599 71.4234C78.4781 72.136 78.2385 72.2186 77.7113 71.8878C77.1054 71.508 77.046 71.1431 77.3121 69.445C77.4016 68.8732 77.1971 68.7117 76.2688 68.6221C75.3724 68.5353 74.8781 68.7476 74.0571 69.5727C73.1837 70.4504 73 70.9251 73 72.3046C73 73.7698 73.1681 74.1428 74.3738 75.3548C75.6839 76.671 75.8534 76.7354 78.0145 76.7354C80.761 76.7354 83.056 75.7065 84.2125 73.9572C85.22 72.4333 85.8747 69.2203 85.6195 67.0545C85.4001 65.1935 79.7726 52.7658 78.5542 51.4515C78.0022 50.8561 77.5909 50.742 76.5785 50.9034C74.9864 51.1581 74.3186 50.7658 74.4732 49.6676C74.7032 48.0318 77.2151 48.3273 79.3193 50.2377L80.6665 51.4607L81.2522 50.2263C82.2619 48.0983 85.376 46.8102 86.4288 48.0847ZM50.8345 49.0225C51.5426 49.5819 51.7655 50.0741 51.7616 51.0674C51.7546 52.7644 51.3543 53.3544 50.3114 53.2061C49.4596 53.0852 49.3616 52.6652 49.7031 50.5969C49.805 49.9795 49.6359 49.8917 48.4227 49.9326C46.3217 50.003 45.397 51.253 45.397 54.0226C45.397 55.901 45.5205 56.288 46.4028 57.1745C49.2774 60.0633 54.8503 58.8381 57.7048 54.6905C58.2342 53.9209 58.7558 53.2851 58.8634 53.2776C58.971 53.2701 58.9646 54.125 58.8492 55.1773C58.5958 57.4925 58.0042 58.3264 52.6152 63.968C47.3519 69.4774 46.6356 70.7299 46.6356 74.4238C46.6356 76.804 46.78 77.5245 47.5203 78.8339C48.6216 80.7817 50.2827 81.7145 52.646 81.7127C56.0366 81.7102 58.1128 79.3225 58.1291 75.4074C58.1354 73.8502 57.9695 73.3576 57.1113 72.3928C55.046 70.0699 51.4131 71.3498 51.4131 74.4C51.4131 76.1902 52.1711 76.6255 53.9136 75.8356C55.2152 75.2456 55.384 75.2392 55.9003 75.7577C56.6785 76.5398 56.2577 77.3805 54.7771 78.0021C52.3636 79.0156 50.3518 77.5949 50.104 74.7022C49.9246 72.609 50.7676 71.0788 52.5749 70.2167C54.5442 69.2775 56.411 69.5894 58.0484 71.1311C58.7799 71.8199 58.8446 72.1958 58.8446 75.7645C58.8446 79.1693 58.7509 79.7809 58.0834 80.7226C57.0749 82.1462 54.8518 83.1192 52.5862 83.1288C50.361 83.1384 49.0827 82.6875 47.7532 81.4246C45.8472 79.6138 45.2502 77.9541 45.2342 74.4238C45.2215 71.5208 45.3188 71.0429 46.2817 69.2861C46.8656 68.221 49.1747 65.4353 51.4131 63.0957C53.6514 60.7564 55.1366 59.0266 54.7137 59.2517C51.7478 60.8307 47.6123 60.4452 45.5772 58.4C42.8572 55.667 43.4273 50.1797 46.5737 48.8042C48.1938 48.0961 49.7643 48.1765 50.8345 49.0225ZM62.8789 58.2595C64.5715 59.7528 65.3614 61.9716 65.1268 64.5723C65.0245 65.7038 64.1918 68.8636 63.276 71.5937C61.8293 75.9064 61.6389 76.8058 61.8265 78.4509C62.3031 82.637 64.7955 85.2704 68.281 85.2704C70.0284 85.2704 71.9383 83.3642 71.9383 81.6199C71.9383 79.5039 69.6728 77.4157 69.3975 79.2774C69.1483 80.9598 66.984 81.0822 66.984 79.4136C66.984 78.1045 68.1578 77.091 69.6735 77.091C70.6506 77.091 71.2281 77.373 72.1507 78.3001C73.2123 79.367 73.3539 79.7279 73.3539 81.3699C73.3539 83.7159 72.3828 85.3838 70.4354 86.382C67.0555 88.1147 63.2247 86.7771 61.198 83.1565C60.2612 81.4829 60.1122 80.8563 60.0988 78.5334C60.0854 76.2133 60.2881 75.3032 61.584 71.8697C63.345 67.2053 64.0789 63.5384 63.5658 61.9726C63.2777 61.0935 62.8556 60.7856 61.1229 60.1899C59.0478 59.4768 58.529 58.8712 58.9805 57.6888C59.3404 56.746 61.5267 57.0661 62.8789 58.2595ZM40.0583 77.7866C42.6541 79.1173 44.2303 82.0519 43.2935 83.8105C42.44 85.4133 40.7965 84.4702 40.7965 82.3773C40.7965 79.1653 39.4911 78.2898 35.1963 78.6227C32.8023 78.8083 31.104 78.5284 31.6058 78.0312C32.0361 77.6049 34.4634 77.1521 36.4756 77.123C38.0369 77.1006 39.1067 77.2987 40.0583 77.7866ZM112.289 77.6689C113.906 78.3193 113.99 79.107 112.423 78.9324C111.859 78.8695 110.228 78.7894 108.8 78.7546C106.457 78.6973 106.136 78.7738 105.526 79.5309C105.115 80.0412 104.85 80.9218 104.85 81.7771C104.85 83.5278 104.325 84.5591 103.434 84.5591C101.755 84.5591 101.682 81.5267 103.314 79.5771C105.302 77.203 109.114 76.3925 112.289 77.6689ZM21.4514 83.8564C29.8845 87.0271 35.0374 96.9647 38.1838 116.125C38.7921 119.83 38.7461 120.362 37.8462 120.015C37.5143 119.887 37.0769 118.329 36.5609 115.437C34.5894 104.38 32.2509 97.1038 29.1382 92.3391C26.2643 87.9397 23.3285 85.7224 19.0019 84.6832C16.3038 84.0353 15.8162 83.7632 16.2083 83.1256C16.5551 82.5616 18.8628 82.883 21.4514 83.8564ZM129.445 83.4663C129.445 83.7999 128.577 84.1878 126.907 84.6004C123.562 85.4265 121.76 86.3888 119.457 88.5777C114.647 93.1489 111.548 100.936 109.121 114.548C108.273 119.302 108.077 119.944 107.477 119.944C106.604 119.944 106.658 119.335 108.219 111.385C111.197 96.225 115.774 87.6993 122.703 84.4051C126.004 82.8354 129.445 82.3564 129.445 83.4663ZM51.3993 86.6854C52.9323 87.5101 52.9857 90.9604 51.4651 90.9604C50.4109 90.9604 49.771 89.9838 50.2842 89.1581C50.947 88.0919 50.7885 87.7597 49.6164 87.7597C48.1272 87.7597 46.4587 89.4458 46.4587 90.9508C46.4587 96.0401 53.4759 96.9302 57.5827 92.3622C58.2756 91.5912 58.891 90.9604 58.9497 90.9604C59.0085 90.9604 58.9911 91.5607 58.9112 92.294C58.6231 94.9387 55.5687 97.0312 51.641 97.2738C49.4161 97.4114 48.9652 97.3293 47.8827 96.5874C47.2061 96.1237 46.2764 95.188 45.8164 94.5081C44.2373 92.173 45.173 88.0169 47.5543 86.7871C48.5795 86.2576 50.5089 86.2067 51.3993 86.6854ZM98.4124 87.0577C99.9412 87.9941 100.727 89.8931 100.513 92.1325C100.328 94.066 99.5229 95.3619 97.7393 96.5956C96.6844 97.3257 96.2229 97.4107 94.0561 97.2756C91.3043 97.1034 89.9104 96.511 87.8419 94.6329C86.6454 93.5465 86.448 93.1585 86.4497 91.8971L86.4522 90.4269L87.8663 92.0848C90.3471 94.9931 94.2946 96.14 96.9891 94.7353C100.259 93.0305 99.478 87.7597 95.9547 87.7597C94.8548 87.7597 94.708 88.1061 95.3619 89.1581C95.8751 89.9838 95.2353 90.9604 94.181 90.9604C92.6406 90.9604 92.6484 87.6011 94.1909 86.6953C95.1563 86.1285 97.1791 86.302 98.4124 87.0577ZM79.2397 87.9838C81.4539 89.0396 83.0602 91.3804 83.7595 94.5703C83.9056 95.2368 84.5118 95.8235 85.8262 96.5714C92.7336 100.5 97.5157 106.526 99.5916 113.918C100.704 117.879 100.71 124.121 99.6054 128.052C96.1143 140.477 85.6284 148.559 73 148.559C60.3716 148.559 49.8857 140.477 46.3946 128.052C45.2898 124.121 45.2962 117.879 46.4084 113.918C50.4562 99.5053 65.0068 90.7249 79.1916 94.1357C80.7476 94.5099 82.0775 94.7595 82.1461 94.6902C82.4912 94.3438 81.2611 91.7708 80.1708 90.5582C78.7577 88.9863 77.8312 88.8344 76.105 89.8921C74.7386 90.7296 73.6048 90.8035 73.0188 90.0941C72.4738 89.434 73.0828 88.2039 74.1731 87.7622C75.4322 87.2523 77.9356 87.3618 79.2397 87.9838ZM70.7192 109.277L68.615 113.009H64.0839C61.5915 113.009 59.5524 113.102 59.5524 113.215C59.5524 113.327 60.5238 115.09 61.7114 117.132C62.9115 119.195 63.7813 121.078 63.6695 121.371C63.5587 121.66 62.5873 123.43 61.5104 125.305C60.4336 127.179 59.5524 128.78 59.5524 128.863C59.5524 128.945 61.583 129.014 64.0644 129.017L68.5764 129.022L70.6998 132.749C71.8676 134.799 72.9027 136.476 73 136.476C73.0973 136.476 74.1324 134.799 75.3002 132.749L77.4236 129.022L81.9356 129.017C84.417 129.014 86.4476 128.945 86.4476 128.863C86.4476 128.78 85.5664 127.179 84.4896 125.305C83.4127 123.43 82.4413 121.66 82.3305 121.371C82.2187 121.078 83.0885 119.195 84.2886 117.132C85.4762 115.09 86.4476 113.327 86.4476 113.215C86.4476 113.102 84.4085 113.009 81.9161 113.009H77.385L75.2808 109.277C74.1236 107.225 73.0973 105.545 73 105.545C72.9027 105.545 71.8764 107.225 70.7192 109.277ZM73.7796 111.944L74.3826 113.009H73H71.6174L72.2204 111.944C72.5516 111.359 72.9027 110.88 73 110.88C73.0973 110.88 73.4484 111.359 73.7796 111.944ZM66.2185 117.117L65.4768 118.381L64.815 117.287C64.4509 116.685 64.1529 116.117 64.1529 116.023C64.1529 115.93 64.7846 115.854 65.5564 115.854H66.9603L66.2185 117.117ZM77.4073 118.253C78.1621 119.572 78.78 120.833 78.78 121.054C78.78 121.275 78.1632 122.516 77.409 123.812L76.0377 126.167H73H69.9623L68.591 123.812C67.8368 122.516 67.22 121.275 67.22 121.054C67.22 120.833 67.8379 119.572 68.5927 118.253L69.9658 115.854H73H76.0342L77.4073 118.253ZM81.8471 116.023C81.8471 116.117 81.5491 116.685 81.185 117.287L80.5232 118.381L79.7815 117.117L79.0397 115.854H80.4436C81.2154 115.854 81.8471 115.93 81.8471 116.023ZM40.1797 123.061L41.5089 124.211L40.317 125.618C39.1517 126.994 39.1064 127.012 38.2801 126.43C35.943 124.787 35.9908 124.93 37.2439 123.34C37.8681 122.548 38.485 121.902 38.6145 121.905C38.744 121.908 39.4482 122.428 40.1797 123.061ZM108.199 123.227C108.692 123.957 109.096 124.728 109.096 124.94C109.096 125.269 106.671 126.879 106.176 126.879C105.867 126.879 104.085 123.972 104.276 123.78C104.7 123.355 106.815 121.933 107.049 121.917C107.188 121.908 107.705 122.497 108.199 123.227ZM66.2192 124.939C66.7812 126.178 66.7886 126.167 65.3823 126.167H64.1348L64.6837 125.1C65.3547 123.797 65.6856 123.762 66.2192 124.939ZM81.3163 125.1L81.8652 126.167H80.6177C79.2114 126.167 79.2188 126.178 79.7808 124.939C80.3144 123.762 80.6453 123.797 81.3163 125.1ZM39.8648 129.279C39.9624 129.621 40.3092 131.262 40.6355 132.924C41.4746 137.201 43.3303 142.192 45.3008 145.475C48.169 150.253 53.301 154.442 58.2253 156.024C59.466 156.423 59.9487 157.174 59.2445 157.611C58.6408 157.987 54.5371 156.296 52.0232 154.637C46.5882 151.049 42.9237 145.834 40.5145 138.257C39.3569 134.617 38.3462 129.821 38.5848 129.101C38.8031 128.443 39.6602 128.562 39.8648 129.279ZM106.859 129.228C106.979 129.542 106.799 131.102 106.459 132.695C103.636 145.923 97.6579 153.937 88.0797 157.333C86.845 157.771 86.5991 157.767 86.1369 157.302C85.6669 156.83 85.7639 156.708 87.0007 156.211C91.5439 154.385 93.7574 153.004 96.3486 150.376C100.575 146.091 103.044 141.104 104.726 133.458C105.199 131.306 105.655 129.346 105.738 129.101C105.951 128.475 106.6 128.549 106.859 129.228ZM73.8284 130.079C73.4834 130.666 73.1108 131.146 73 131.146C72.8892 131.146 72.5166 130.666 72.1716 130.079L71.5445 129.012H73H74.4555L73.8284 130.079ZM74.9464 154.973L77.0474 157.107L74.946 159.241L72.8443 161.375L70.7988 159.341C69.6738 158.222 68.7534 157.171 68.7534 157.005C68.7534 156.675 72.3464 152.839 72.655 152.839C72.7597 152.839 73.7906 153.799 74.9464 154.973Z" fill="url(#paint0_linear_15_43)"/>
</g>
<defs>
<filter id="filter0_d_15_43" x="0" y="0" width="146" height="175" filterUnits="userSpaceOnUse" color-interpolation-filters="sRGB">
<feFlood flood-opacity="0" result="BackgroundImageFix"/>
<feColorMatrix in="SourceAlpha" type="matrix" values="0 0 0 0 0 0 0 0 0 0 0 0 0 0 0 0 0 0 127 0" result="hardAlpha"/>
<feOffset dy="4"/>
<feGaussianBlur stdDeviation="2"/>
<feComposite in2="hardAlpha" operator="out"/>
<feColorMatrix type="matrix" values="0 0 0 0 0 0 0 0 0 0 0 0 0 0 0 0 0 0 0.25 0"/>
<feBlend mode="normal" in2="BackgroundImageFix" result="effect1_dropShadow_15_43"/>
<feBlend mode="normal" in="SourceGraphic" in2="effect1_dropShadow_15_43" result="shape"/>
</filter>
<linearGradient id="paint0_linear_15_43" x1="73" y1="0" x2="73" y2="167" gradientUnits="userSpaceOnUse">
<stop stop-color="#FFFFC8"/>
<stop offset="1" stop-color="#97793D"/>
</linearGradient>
</defs>
</svg>
