<svg width="32" height="32" viewBox="0 0 32 32" fill="none" xmlns="http://www.w3.org/2000/svg">
<path d="M0 11H32V21H0V11Z" fill="#E6E7E8"/>
<path fill-rule="evenodd" clip-rule="evenodd" d="M19.715 13.831C19.5745 14.0725 19.447 14.2935 19.3185 14.5165C19.0625 14.958 18.81 15.4005 18.551 15.8405C18.5045 15.9195 18.5025 15.9785 18.55 16.06C18.9195 16.691 19.285 17.3255 19.651 17.9595C19.6685 17.991 19.686 18.0265 19.7105 18.074H19.582C18.845 18.074 18.1095 18.074 17.3725 18.0705C17.29 18.0705 17.2485 18.0985 17.209 18.1685C16.8415 18.809 16.471 19.449 16.101 20.09C16.0845 20.12 16.065 20.148 16.0405 20.1875C16.016 20.1515 15.9965 20.1235 15.979 20.094C15.611 19.4565 15.242 18.8215 14.8785 18.1835C14.8325 18.101 14.7845 18.07 14.689 18.07C13.9605 18.0755 13.2315 18.0735 12.5015 18.0735H12.366C12.3925 18.026 12.41 17.99 12.43 17.955C12.796 17.318 13.1635 16.68 13.5355 16.0455C13.575 15.974 13.575 15.9235 13.5325 15.8545C13.1665 15.226 12.803 14.593 12.4385 13.9625C12.417 13.923 12.3965 13.8845 12.3655 13.8305H12.496C13.2245 13.8305 13.956 13.8285 14.6825 13.8315C14.7765 13.8315 14.8275 13.8075 14.875 13.725C15.2375 13.0885 15.6065 12.4545 15.9715 11.822C15.989 11.7895 16.0115 11.756 16.0365 11.713C16.063 11.755 16.084 11.7845 16.1025 11.8165C16.4695 12.45 16.836 13.082 17.198 13.718C17.248 13.805 17.3025 13.8315 17.398 13.8315C18.1235 13.8285 18.848 13.8305 19.5755 13.8305L19.715 13.831ZM16.0335 17.413C16.284 17.413 16.5335 17.412 16.7845 17.415C16.851 17.415 16.8925 17.3965 16.9275 17.336C17.178 16.8995 17.4275 16.463 17.683 16.0285C17.715 15.974 17.715 15.931 17.682 15.875C17.427 15.4385 17.177 15.003 16.9265 14.5655C16.895 14.51 16.8585 14.4865 16.793 14.489C16.288 14.4905 15.783 14.4905 15.283 14.489C15.2165 14.4865 15.1815 14.513 15.149 14.568C14.901 15.002 14.653 15.4355 14.399 15.8665C14.362 15.931 14.363 15.976 14.399 16.0385C14.653 16.47 14.904 16.9035 15.149 17.338C15.182 17.393 15.2185 17.4155 15.283 17.4155C15.5355 17.412 15.783 17.413 16.0335 17.413ZM13.9695 16.614C13.813 16.8885 13.667 17.14 13.5165 17.4035H14.4255C14.2725 17.1395 14.13 16.8895 13.9695 16.614ZM18.107 16.614C17.948 16.89 17.805 17.141 17.653 17.4035H18.564L18.107 16.614ZM13.5125 14.4975C13.6685 14.7665 13.8145 15.018 13.969 15.289L14.426 14.4975H13.5125ZM17.6515 14.4975L18.108 15.289C18.266 15.0135 18.4115 14.761 18.564 14.4975H17.6515ZM15.5815 13.8215H16.495C16.34 13.556 16.195 13.302 16.0385 13.032C15.8805 13.305 15.7365 13.5565 15.5815 13.8215ZM15.5795 18.077C15.737 18.3485 15.882 18.6015 16.0385 18.8725C16.1985 18.5965 16.343 18.344 16.495 18.077H15.5795Z" fill="#1B75BB"/>
<path d="M5.00001 27H27C29.3305 27 30.8525 25.7795 31.5525 24H0.44751C1.14751 25.7795 2.66951 27 5.00001 27ZM27 5H5.00001C2.66951 5 1.14751 6.2205 0.44751 8H31.5525C30.852 6.2205 29.33 5 26.9995 5" fill="#E6E7E8"/>
<path d="M32 10.5C32 9.5985 31.8475 8.751 31.5525 8H0.4475C0.1525 8.751 0 9.5985 0 10.5V11H32V10.5ZM32 21H0V21.5C0 22.4015 0.1525 23.249 0.4475 24H31.5525C31.847 23.249 31.9995 22.4015 31.9995 21.5V21" fill="#1B75BB"/>
</svg>
