<svg width="32" height="22" viewBox="0 0 32 22" fill="none" xmlns="http://www.w3.org/2000/svg">
<g clip-path="url(#clip0_829_2579)">
<path d="M0 6H32V16H0V6Z" fill="#E6E7E8"/>
<path fill-rule="evenodd" clip-rule="evenodd" d="M19.7152 8.83089C19.5747 9.07239 19.4472 9.29339 19.3187 9.51639C19.0627 9.95789 18.8102 10.4004 18.5512 10.8404C18.5047 10.9194 18.5027 10.9784 18.5502 11.0599C18.9197 11.6909 19.2852 12.3254 19.6512 12.9594C19.6687 12.9909 19.6862 13.0264 19.7107 13.0739H19.5822C18.8452 13.0739 18.1097 13.0739 17.3727 13.0704C17.2902 13.0704 17.2487 13.0984 17.2092 13.1684C16.8417 13.8089 16.4712 14.4489 16.1012 15.0899C16.0847 15.1199 16.0652 15.1479 16.0407 15.1874C16.0162 15.1514 15.9967 15.1234 15.9792 15.0939C15.6112 14.4564 15.2422 13.8214 14.8787 13.1834C14.8327 13.1009 14.7847 13.0699 14.6892 13.0699C13.9607 13.0754 13.2317 13.0734 12.5017 13.0734H12.3662C12.3927 13.0259 12.4102 12.9899 12.4302 12.9549C12.7962 12.3179 13.1637 11.6799 13.5357 11.0454C13.5752 10.9739 13.5752 10.9234 13.5327 10.8544C13.1667 10.2259 12.8032 9.59289 12.4387 8.96239C12.4172 8.92289 12.3967 8.88439 12.3657 8.83039H12.4962C13.2247 8.83039 13.9562 8.82839 14.6827 8.83139C14.7767 8.83139 14.8277 8.80739 14.8752 8.72489C15.2377 8.08839 15.6067 7.45439 15.9717 6.82189C15.9892 6.78939 16.0117 6.75589 16.0367 6.71289C16.0632 6.75489 16.0842 6.78439 16.1027 6.81639C16.4697 7.44989 16.8362 8.08189 17.1982 8.71789C17.2482 8.80489 17.3027 8.83139 17.3982 8.83139C18.1237 8.82839 18.8482 8.83039 19.5757 8.83039L19.7152 8.83089ZM16.0337 12.4129C16.2842 12.4129 16.5337 12.4119 16.7847 12.4149C16.8512 12.4149 16.8927 12.3964 16.9277 12.3359C17.1782 11.8994 17.4277 11.4629 17.6832 11.0284C17.7152 10.9739 17.7152 10.9309 17.6822 10.8749C17.4272 10.4384 17.1772 10.0029 16.9267 9.56539C16.8952 9.50989 16.8587 9.48639 16.7932 9.48889C16.2882 9.49039 15.7832 9.49039 15.2832 9.48889C15.2167 9.48639 15.1817 9.51289 15.1492 9.56789C14.9012 10.0019 14.6532 10.4354 14.3992 10.8664C14.3622 10.9309 14.3632 10.9759 14.3992 11.0384C14.6532 11.4699 14.9042 11.9034 15.1492 12.3379C15.1822 12.3929 15.2187 12.4154 15.2832 12.4154C15.5357 12.4119 15.7832 12.4129 16.0337 12.4129ZM13.9697 11.6139C13.8132 11.8884 13.6672 12.1399 13.5167 12.4034H14.4257C14.2727 12.1394 14.1302 11.8894 13.9697 11.6139ZM18.1072 11.6139C17.9482 11.8899 17.8052 12.1409 17.6532 12.4034H18.5642L18.1072 11.6139ZM13.5127 9.49739C13.6687 9.76639 13.8147 10.0179 13.9692 10.2889L14.4262 9.49739H13.5127ZM17.6517 9.49739L18.1082 10.2889C18.2662 10.0134 18.4117 9.76089 18.5642 9.49739H17.6517ZM15.5817 8.82139H16.4952C16.3402 8.55589 16.1952 8.30189 16.0387 8.03189C15.8807 8.30489 15.7367 8.55639 15.5817 8.82139ZM15.5797 13.0769C15.7372 13.3484 15.8822 13.6014 16.0387 13.8724C16.1987 13.5964 16.3432 13.3439 16.4952 13.0769H15.5797Z" fill="#1B75BB"/>
<path d="M4.99977 22H26.9998C29.3303 22 30.8523 20.7795 31.5523 19H0.447266C1.14727 20.7795 2.66927 22 4.99977 22ZM26.9998 0H4.99977C2.66927 0 1.14727 1.2205 0.447266 3H31.5523C30.8518 1.2205 29.3298 0 26.9993 0" fill="#E6E7E8"/>
<path d="M32 5.5C32 4.5985 31.8475 3.751 31.5525 3H0.4475C0.1525 3.751 0 4.5985 0 5.5V6H32V5.5ZM32 16H0V16.5C0 17.4015 0.1525 18.249 0.4475 19H31.5525C31.847 18.249 31.9995 17.4015 31.9995 16.5V16" fill="#1B75BB"/>
</g>
<defs>
<clipPath id="clip0_829_2579">
<rect width="32" height="22" fill="white"/>
</clipPath>
</defs>
</svg>
