<svg xmlns="http://www.w3.org/2000/svg" xmlns:xlink="http://www.w3.org/1999/xlink" width="703.555" height="437.834" viewBox="0 0 703.555 437.834">
  <defs>
    <clipPath id="clip-path">
      <path id="Контур_68" data-name="Контур 68" d="M0,346.917H703.552V-90.917H0Z" transform="translate(0 90.917)" fill="none"/>
    </clipPath>
  </defs>
  <g id="Сгруппировать_86" data-name="Сгруппировать 86" transform="translate(0 90.917)">
    <g id="Сгруппировать_61" data-name="Сгруппировать 61" transform="translate(0 -90.917)" clip-path="url(#clip-path)">
      <g id="Сгруппировать_60" data-name="Сгруппировать 60" transform="translate(0 320.327)">
        <path id="Контур_67" data-name="Контур 67" d="M42.378,35.357C36.95,39.33,29.322,41.665,20.75,41.665S4.468,39.248-.959,35.357Q-11.1,28-11.106,16.2c0-7.71,3.385-14.091,10.224-19C4.627-6.771,12.409-9.266,20.75-9.266A37.3,37.3,0,0,1,42.3-2.8c6.761,4.907,10.224,11.288,10.224,19q0,11.8-10.147,19.157M20.75-.776c-13.137,0-22.1,7.32-22.1,16.976,0,10.046,8.654,17.053,22.1,17.053,13.369,0,21.941-7.007,21.941-17.053,0-9.733-8.885-16.976-21.941-16.976" transform="translate(11.106 9.266)" fill="#fff"/>
      </g>
    </g>
    <g id="Сгруппировать_62" data-name="Сгруппировать 62" transform="translate(77.269 231.754)">
      <path id="Контур_69" data-name="Контур 69" d="M44.484,36.822V-1.718l-.226.3L20.911,30.248-2.364-1.718l-.226.3V36.822h-9.068V-9.65h13.6L20.911,16.644,39.952-9.65h13.6V36.822Z" transform="translate(11.658 9.65)" fill="#fff"/>
    </g>
    <g id="Сгруппировать_63" data-name="Сгруппировать 63" transform="translate(152.299 231.753)">
      <path id="Контур_70" data-name="Контур 70" d="M41.134,36.822l-5.365-9.973H4.563l-5.37,9.973H-10.78L14.536-9.65H25.8L51.107,36.822ZM20.2-1.94,9.095,18.614H31.233Z" transform="translate(10.78 9.65)" fill="#fff"/>
    </g>
    <g id="Сгруппировать_64" data-name="Сгруппировать 64" transform="translate(223.962 231.754)">
      <path id="Контур_71" data-name="Контур 71" d="M35.624,36.822V16.8H-.268V36.822H-9.336V-9.65H-.268V8.563H35.624V-9.65h9.068V36.822Z" transform="translate(9.336 9.65)" fill="#fff"/>
    </g>
    <g id="Сгруппировать_65" data-name="Сгруппировать 65" transform="translate(287.764 231.753)">
      <path id="Контур_72" data-name="Контур 72" d="M41.134,36.822l-5.365-9.973H4.563l-5.37,9.973H-10.78L14.536-9.65H25.8L51.107,36.822ZM20.2-1.94,9.095,18.614H31.233Z" transform="translate(10.78 9.65)" fill="#fff"/>
    </g>
    <g id="Сгруппировать_67" data-name="Сгруппировать 67" transform="translate(0 -90.917)" clip-path="url(#clip-path)">
      <g id="Сгруппировать_66" data-name="Сгруппировать 66" transform="translate(385.012 322.671)">
        <path id="Контур_73" data-name="Контур 73" d="M44.366,26.882c0,8.086-6.27,12.545-18.213,12.545h-37.78V-7.045H26.605c9.978,0,15.873,5.288,15.873,12.921,0,4.007-1.738,7.026-5.519,9.521,5.138,2.644,7.407,6.121,7.407,11.486M33.636,6.405c0-3.174-2.418-5.215-6.573-5.215H-2.559V11.847H26.759c4.305,0,6.877-2.191,6.877-5.442M35.221,25.9c0-3.626-2.87-5.817-8.312-5.817H-2.559v11.11H26.153c5.817,0,9.068-2.119,9.068-5.293" transform="translate(11.627 7.045)" fill="#fff"/>
      </g>
    </g>
    <g id="Сгруппировать_68" data-name="Сгруппировать 68" transform="translate(455.018 231.754)">
      <path id="Контур_75" data-name="Контур 75" d="M0,36.822V-9.65H48.288v8.235H9.068V8.563H36.344V16.8H9.068V28.587H50.021v8.235Z" transform="translate(0 9.65)" fill="#fff"/>
    </g>
    <g id="Сгруппировать_69" data-name="Сгруппировать 69" transform="translate(512.949 231.753)">
      <path id="Контур_76" data-name="Контур 76" d="M41.134,36.822l-5.365-9.973H4.563l-5.37,9.973H-10.78L14.536-9.65H25.8L51.107,36.822ZM20.2-1.94,9.095,18.614H31.237Z" transform="translate(10.78 9.65)" fill="#fff"/>
    </g>
    <g id="Сгруппировать_71" data-name="Сгруппировать 71" transform="translate(0 -90.917)" clip-path="url(#clip-path)">
      <g id="Сгруппировать_70" data-name="Сгруппировать 70" transform="translate(578.537 321.161)">
        <path id="Контур_77" data-name="Контур 77" d="M39.7,12.333C35.01,7.57,28.816,4.926,20.726,4.926c-13.3,0-21.685,6.8-21.685,16.4,0,9.824,8.24,16.547,21.839,16.547,7.936,0,13.9-2.34,18.964-7.628L47.632,34.4c-7.257,8.163-15.492,11.558-26.978,11.558C1.911,45.956-10.4,35.607-10.4,21.324q0-11.218,9.747-18.362C4.56-.814,12.038-3.232,20.124-3.232c11.635,0,20.7,4.079,27.883,12.694Z" transform="translate(10.403 3.232)" fill="#fff"/>
      </g>
    </g>
    <g id="Сгруппировать_72" data-name="Сгруппировать 72" transform="translate(649.522 231.753)">
      <path id="Контур_79" data-name="Контур 79" d="M35.628,0V18.213H-.269V0H-9.337V46.472H-.269V26.448h35.9V46.472H44.7V0Z" transform="translate(9.337)" fill="#fff"/>
    </g>
    <g id="Сгруппировать_74" data-name="Сгруппировать 74" transform="translate(0 -90.917)" clip-path="url(#clip-path)">
      <g id="Сгруппировать_73" data-name="Сгруппировать 73" transform="translate(226.958 405.328)">
        <path id="Контур_80" data-name="Контур 80" d="M26.229,8.15c-3.1-3.145-7.19-4.893-12.531-4.893C4.91,3.258-.633,7.751-.633,14.093c0,6.492,5.442,10.937,14.428,10.937,5.244,0,9.188-1.551,12.535-5.047l5.143,2.75c-4.8,5.389-10.238,7.638-17.828,7.638-12.381,0-20.52-6.843-20.52-16.277q0-7.419,6.439-12.136a23.817,23.817,0,0,1,13.73-4.093c7.691,0,13.686,2.7,18.425,8.389Z" transform="translate(6.874 2.136)" fill="#fff"/>
      </g>
    </g>
    <g id="Сгруппировать_75" data-name="Сгруппировать 75" transform="translate(269.604 315.411)">
      <path id="Контур_82" data-name="Контур 82" d="M13.252,0-3.473,30.705H3.12l3.544-6.588H27.285l3.544,6.588h6.588L20.692,0ZM17,5.09l7.286,13.585H9.66Z" transform="translate(3.473)" fill="#fff"/>
    </g>
    <g id="Сгруппировать_77" data-name="Сгруппировать 77" transform="translate(0 -90.917)" clip-path="url(#clip-path)">
      <g id="Сгруппировать_76" data-name="Сгруппировать 76" transform="translate(317.381 406.326)">
        <path id="Контур_83" data-name="Контур 83" d="M28.13,7.715c0,6.193-4.142,9.689-11.683,9.689H-1.376V28.688h-6V-2.022H17.444c6.545,0,10.686,3.843,10.686,9.737m-6.14.1c0-3.048-1.849-4.4-5.793-4.4H-1.376v8.538H16.548c3.593,0,5.442-1.445,5.442-4.142" transform="translate(7.372 2.022)" fill="#fff"/>
      </g>
    </g>
    <path id="Контур_85" data-name="Контур 85" d="M74.854,24.163h6V-6.542h-6Z" transform="translate(285.624 321.954)" fill="#fff"/>
    <g id="Сгруппировать_78" data-name="Сгруппировать 78" transform="translate(373.537 315.411)">
      <path id="Контур_86" data-name="Контур 86" d="M0,0V5.442H14.674V30.705h6V5.442H35.348V0Z" fill="#fff"/>
    </g>
    <g id="Сгруппировать_79" data-name="Сгруппировать 79" transform="translate(407.213 315.411)">
      <path id="Контур_87" data-name="Контур 87" d="M13.256,0-3.474,30.705H3.119l3.544-6.588H27.284l3.544,6.588h6.593L20.691,0ZM17,5.09l7.286,13.585H9.659Z" transform="translate(3.474)" fill="#fff"/>
    </g>
    <g id="Сгруппировать_80" data-name="Сгруппировать 80" transform="translate(454.993 315.411)">
      <path id="Контур_88" data-name="Контур 88" d="M0,0V30.705H29.708V25.263H6V0Z" fill="#fff"/>
    </g>
    <g id="Сгруппировать_85" data-name="Сгруппировать 85" transform="translate(0 -90.917)" clip-path="url(#clip-path)">
      <g id="Сгруппировать_81" data-name="Сгруппировать 81" transform="translate(283.284 53.266)">
        <path id="Контур_89" data-name="Контур 89" d="M98.946,56.607c11.9-5.943,18.006-17.558,18.006-34.4,0-24.175-15.617-37.038-46-37.038H-25.931V128.048H70.947c30.387,0,46-12.868,46-37.038,0-16.846-6.1-28.461-18.006-34.4M71.116,106.8h-76.9V67.23H74.3C89.247,67.23,96.3,73.664,96.3,87.7c0,13.45-8.057,19.1-25.182,19.1M74.3,45.983H-5.787V6.412h76.9c17.125,0,25.182,5.654,25.182,19.1,0,14.033-7.05,20.467-21.994,20.467" transform="translate(25.931 14.835)" fill="#cccaca"/>
      </g>
      <g id="Сгруппировать_82" data-name="Сгруппировать 82" transform="translate(283.284 53.266)">
        <path id="Контур_90" data-name="Контур 90" d="M98.946,56.607c11.9-5.943,18.006-17.558,18.006-34.4,0-24.175-15.617-37.038-46-37.038H-25.931V128.048H70.947c30.387,0,46-12.868,46-37.038,0-16.846-6.1-28.461-18.006-34.4M71.116,106.8h-76.9V67.23H74.3C89.247,67.23,96.3,73.664,96.3,87.7c0,13.45-8.057,19.1-25.182,19.1M74.3,45.983H-5.787V6.412h76.9c17.125,0,25.182,5.654,25.182,19.1,0,14.033-7.05,20.467-21.994,20.467" transform="translate(25.931 14.835)" fill="none"/>
      </g>
      <g id="Сгруппировать_83" data-name="Сгруппировать 83" transform="translate(227.669 0.603)">
        <path id="Контур_91" data-name="Контур 91" d="M147.815,196.668H22.923a61.732,61.732,0,0,1-61.661-61.661V10.12A61.732,61.732,0,0,1,22.923-51.541H147.815A61.732,61.732,0,0,1,209.475,10.12V135.007a61.732,61.732,0,0,1-61.661,61.661M22.923-33.232A43.4,43.4,0,0,0-20.424,10.12V135.007a43.4,43.4,0,0,0,43.347,43.351H147.815a43.4,43.4,0,0,0,43.347-43.351V10.12a43.4,43.4,0,0,0-43.347-43.351Z" transform="translate(38.738 51.541)" fill="#cccaca"/>
      </g>
      <g id="Сгруппировать_84" data-name="Сгруппировать 84" transform="translate(227.669 0.603)">
        <path id="Контур_92" data-name="Контур 92" d="M147.815,196.668H22.923a61.732,61.732,0,0,1-61.661-61.661V10.12A61.732,61.732,0,0,1,22.923-51.541H147.815A61.732,61.732,0,0,1,209.475,10.12V135.007a61.732,61.732,0,0,1-61.661,61.661M22.923-33.232A43.4,43.4,0,0,0-20.424,10.12V135.007a43.4,43.4,0,0,0,43.347,43.351H147.815a43.4,43.4,0,0,0,43.347-43.351V10.12a43.4,43.4,0,0,0-43.347-43.351Z" transform="translate(38.738 51.541)" fill="none"/>
      </g>
    </g>
  </g>
</svg>
