<svg width="151" height="144" viewBox="0 0 151 144" fill="none" xmlns="http://www.w3.org/2000/svg">
<path fill-rule="evenodd" clip-rule="evenodd" d="M139.964 0.433756C139.35 0.957699 138.413 3.65352 138.413 4.89713C138.413 5.54447 138.284 5.81403 137.92 5.93009C137.278 6.13492 136.147 7.49231 136.147 8.05823C136.147 8.30149 136.422 8.76019 136.758 9.07728C137.094 9.39463 137.311 9.80757 137.239 9.9952C137.167 10.1828 136.513 10.6736 135.785 11.0863C134.445 11.8457 132.615 13.7048 131.963 14.9694C131.766 15.3494 131.268 15.8359 130.855 16.0506C129.948 16.5212 129.903 17.0684 130.701 17.9309C131.029 18.2862 131.366 18.8681 131.449 19.2239C131.592 19.8393 131.511 19.897 129.781 20.4116C127.38 21.1259 125.649 22.2489 125.168 23.4035C124.715 24.4919 124.882 25.1491 125.878 26.203C126.615 26.9834 126.62 27.0076 126.117 27.2785C124.777 27.9986 121.457 29.0473 119.767 29.284C117.967 29.5361 110.694 29.994 98.6291 30.6153C92.2091 30.9458 89.6559 31.3833 86.3861 32.7126L84.1315 33.6292L82.1496 33.1202C80.4848 32.6926 79.3577 32.6114 75.1089 32.6127C72.3269 32.6135 68.9173 32.5037 67.5324 32.3689C66.1476 32.2342 63.5415 31.9985 61.7411 31.8455C59.9408 31.6923 56.8248 31.3236 54.8168 31.026C52.1616 30.6325 49.9984 30.4879 46.8852 30.4954C42.9288 30.5048 42.4546 30.5566 40.6211 31.1792C38.2449 31.9858 37.0269 32.0154 33.78 31.3443C32.4274 31.0649 30.022 30.7218 28.4347 30.5822C26.8474 30.4423 25.4607 30.2734 25.3532 30.2067C25.2457 30.1399 25.3726 29.6625 25.635 29.1454C25.8974 28.6285 26.1121 27.9339 26.1121 27.6019C26.1121 26.5768 25.3635 25.339 24.4928 24.924C23.399 24.4028 20.6791 23.7692 19.5151 23.7646C18.3047 23.7598 17.9721 23.2136 18.5278 22.144C18.7524 21.7118 19.0777 21.2675 19.2507 21.1563C19.4239 21.045 19.5655 20.8296 19.5655 20.6771C19.5655 20.2457 13.815 20.5924 10.8785 21.2008C9.49365 21.4878 7.64019 21.9604 6.75991 22.2509C5.08547 22.8037 4.5343 22.7514 5.35741 22.1179C6.02643 21.6031 7.03185 21.3434 11.2562 20.5952C16.1501 19.7283 16.7957 19.542 16.7957 18.9963C16.7957 18.3333 15.2955 17.0163 14.2032 16.7207C13.2885 16.4732 13.2547 16.4856 13.4146 17.0138C13.5068 17.3172 13.7384 17.7451 13.9298 17.9648C14.7081 18.858 14.1572 19.3827 12.1989 19.6138C10.8168 19.7769 10.7861 19.767 10.9322 19.2069C11.0734 18.6645 11.0291 18.6425 10.137 18.8107C9.4939 18.9318 9.24513 18.9027 9.35793 18.7196C9.44883 18.5717 9.79329 18.4506 10.1231 18.4506C10.453 18.4506 10.7929 18.3368 10.8785 18.1977C10.9727 18.0447 10.6245 17.9449 9.99724 17.9449C8.77503 17.9449 8.86014 17.5339 10.132 17.2942C11.1804 17.0967 11.3544 16.439 10.312 16.6143C9.72203 16.7134 9.7671 16.6522 10.6169 16.1998C11.8374 15.5504 13.9597 15.4938 15.1857 16.0779C16.0325 16.4815 18.5583 19.0312 18.5583 19.4825C18.5583 19.6102 18.7031 19.7149 18.8798 19.7149C19.0568 19.7149 19.4494 19.8892 19.752 20.1021C20.2221 20.4328 20.2647 20.5896 20.0431 21.1768C19.9003 21.5548 19.5448 22.1202 19.253 22.4333C18.8076 22.9109 18.7884 23.0022 19.1336 23.0022C19.6465 23.0022 20.7925 21.7978 20.9811 21.0607C21.1953 20.2224 20.8587 19.4803 20.1874 19.3111C19.8324 19.2216 19.3232 18.7121 18.9503 18.0728C18.244 16.8628 17.1047 15.8089 15.8568 15.2111C15.1923 14.893 15.0631 14.7124 15.2008 14.2937C15.6249 13.0038 15.0017 11.628 13.7588 11.1111C13.2837 10.9134 12.9599 10.5593 12.8677 10.1371C12.1372 6.78807 11.2842 5.36544 10.174 5.64536C9.80789 5.73766 9.37682 6.05956 9.21642 6.36073C8.7856 7.16889 8.52877 9.85511 8.79089 10.8107C8.98628 11.523 8.92661 11.7524 8.37493 12.4106C7.57976 13.3599 7.50825 14.7236 8.22158 15.337C8.70352 15.7517 8.69974 15.773 7.98615 16.589C7.08145 17.6237 6.1133 19.306 5.73939 20.493C5.58277 20.9904 5.11695 21.6481 4.70451 21.9546C3.77614 22.6436 3.72628 23.4336 4.59019 23.7633C4.93994 23.8969 5.29346 24.1826 5.37605 24.3985C5.45838 24.6145 5.87385 24.9718 6.29913 25.1926L7.07239 25.5941L5.18342 26.2857C0.957293 27.833 -0.881063 30.103 0.402336 32.1886C0.932869 33.0507 1.74315 33.5357 2.93993 33.7079C3.51125 33.7901 3.59611 33.9822 3.97229 36.0489C4.1979 37.2875 4.50509 38.7559 4.6549 39.3122C4.80472 39.8685 5.05098 41.4047 5.20231 42.7259C5.54752 45.7414 7.61627 58.2553 8.11432 60.3417C8.31903 61.1989 8.48647 62.2635 8.48647 62.7075C8.48647 63.1513 8.64208 64.1567 8.83219 64.9419C9.02229 65.7268 9.31337 67.507 9.4788 68.8977C9.78599 71.479 9.91994 72.2687 10.6151 75.5987C10.8327 76.6418 11.0095 77.8543 11.0077 78.293C11.0059 78.732 11.3929 81.1785 11.8678 83.7297C13.4939 92.467 14.026 95.5725 14.026 96.325C14.026 96.7392 14.1889 97.9062 14.3878 98.9187C14.587 99.9309 14.8748 101.499 15.0276 102.403C15.1804 103.307 15.4199 104.72 15.5594 105.543C15.8054 106.993 15.9451 108.6 16.2047 112.96C16.2732 114.107 16.3755 115.046 16.4321 115.046C16.4888 115.046 17.2792 114.589 18.1886 114.03C19.7563 113.066 23.6586 111.63 25.1757 111.459C25.561 111.415 25.8442 111.266 25.8052 111.127C25.7158 110.807 24.8083 110.903 21.9575 111.534C20.7111 111.81 19.4363 112.09 19.1248 112.155C18.1066 112.369 18.5288 111.879 19.9771 111.165C21.4799 110.425 22.8806 110.052 25.042 109.817C25.9734 109.716 26.3639 109.563 26.3639 109.301C26.3639 108.854 25.0032 108.934 22.0834 109.551C19.3781 110.123 18.2707 110.251 18.4419 109.973C18.8421 109.323 22.5988 108.118 24.8511 107.918C25.4081 107.868 25.7579 107.693 25.8052 107.441C25.8709 107.093 25.6518 107.071 24.0446 107.262C23.0352 107.383 21.4814 107.65 20.5915 107.857C19.3182 108.152 18.9329 108.165 18.7814 107.919C18.6356 107.682 18.4694 107.715 18.095 108.056C17.7724 108.349 17.5435 108.411 17.435 108.235C17.3419 108.083 17.5795 107.844 17.9766 107.691C18.3657 107.54 19.4207 107.13 20.3208 106.781C21.5244 106.313 22.4072 106.15 23.6571 106.165C24.592 106.176 25.3567 106.089 25.3567 105.972C25.3567 105.855 24.7388 105.635 23.9835 105.483C22.6137 105.207 21.252 105.404 19.2628 106.166C18.6847 106.388 18.6054 106.367 18.7353 106.027C18.8667 105.683 18.7935 105.689 18.2118 106.072C17.8397 106.317 17.471 106.452 17.3922 106.374C17.0838 106.063 20.0363 104.847 22.0733 104.444C23.256 104.21 24.167 103.911 24.0978 103.78C23.9062 103.416 21.2313 103.633 19.5906 104.145L18.1315 104.601L18.4762 103.908C18.766 103.324 19.151 103.127 20.8927 102.668C23.5949 101.956 23.5942 101.956 23.5942 101.652C23.5942 101.305 23.2663 101.326 21.328 101.794C20.4279 102.012 19.1248 102.228 18.4324 102.275C17.7399 102.321 17.0601 102.398 16.9216 102.444C16.7831 102.491 16.6179 102.415 16.5547 102.276C16.421 101.982 19.0896 100.856 21.0201 100.392C21.7508 100.217 22.7424 100.147 23.2233 100.238C24.4893 100.476 24.4128 99.7362 23.1314 99.3506C22.3269 99.1086 21.8432 99.1438 20.2405 99.5615C19.1822 99.8374 18.3883 99.9458 18.4764 99.8027C18.6315 99.5504 18.0021 99.625 16.6069 100.024C16.2914 100.114 16.0403 100.075 16.0403 99.9347C16.0403 99.5618 18.2649 98.6691 20.3647 98.1995C21.3791 97.9727 22.3581 97.7454 22.5399 97.6946C23.0936 97.5393 22.6019 97.0925 21.8797 97.0943C21.2731 97.0958 17.9701 97.8152 16.6698 98.2289C16.3928 98.3169 16.4779 98.2074 16.8587 97.9856C17.7749 97.4516 17.7334 97.2733 16.7328 97.448C15.1923 97.7166 17.8857 96.6047 20.1461 96.0388C21.2809 95.7546 22.3168 95.4203 22.4485 95.2959C22.7617 94.9995 21.5539 95.0036 19.8006 95.3042C16.7282 95.8314 15.5367 95.8858 15.5367 95.4989C15.5367 94.9279 20.1695 93.4694 21.5038 93.6204C22.1939 93.6985 22.7481 93.613 23.0845 93.3763C23.7906 92.88 23.4927 92.4961 22.651 92.8175C22.2803 92.9589 21.7259 93.0112 21.4187 92.9338C21.1115 92.8565 20.0517 92.9639 19.0634 93.1728C16.8775 93.6345 17.0475 93.6368 17.0475 93.144C17.0475 92.768 16.9982 92.768 16.4268 93.144C15.6244 93.672 15.1039 93.6967 15.5254 93.187C15.8872 92.749 17.6002 92.1722 19.7543 91.7628C20.62 91.5982 21.328 91.3481 21.328 91.207C21.328 90.9594 20.4042 91.0017 16.418 91.4308C15.3806 91.5425 14.9861 91.5117 15.159 91.3322C15.5559 90.9202 18.7655 90.0076 20.6663 89.7659C22.8476 89.4888 23.4841 89.0007 21.6644 89.0007C20.9634 89.0007 19.7792 89.1183 19.0332 89.2619C18.2873 89.4056 16.9689 89.5785 16.1033 89.6463C14.0391 89.8081 13.9879 89.312 15.9774 88.4222C17.6256 87.6848 18.8977 87.4016 20.6764 87.3753C21.3567 87.3652 21.9545 87.2342 22.0051 87.084C22.1459 86.6647 18.1816 86.6665 16.42 87.086C15.5904 87.2838 14.8783 87.4125 14.838 87.3717C14.7975 87.331 15.1439 86.9634 15.6075 86.5545C16.2385 85.9982 16.9055 85.7296 18.2589 85.4866C20.6965 85.0492 20.9697 84.5725 18.6512 84.8018C17.6921 84.8967 16.2566 85.1263 15.4617 85.3119C13.8641 85.6849 13.3517 85.4401 14.4908 84.8486C14.8939 84.639 15.2872 84.3019 15.3648 84.0994C15.4521 83.8703 16.0444 83.6632 16.9284 83.5522C19.0296 83.2887 20.6499 82.8252 20.7736 82.4527C20.8597 82.1933 20.7695 82.1849 20.3448 82.4133C20.0489 82.5723 19.7044 82.6388 19.5793 82.5612C19.355 82.4221 15.1928 83.0047 14.0889 83.3297C13.256 83.5749 13.3992 83.2609 14.3407 82.7776C14.7909 82.5468 15.2472 82.2069 15.3549 82.0226C15.6093 81.5871 17.1444 81.1651 18.4805 81.1633C19.7004 81.1616 20.1438 80.7481 19.1847 80.5064C18.3052 80.2846 16.3961 80.5605 14.6615 81.1598C13.3423 81.6155 13.2426 81.6198 13.3167 81.2172C13.4305 80.5974 14.8561 79.9713 17.1631 79.528C19.1379 79.1487 19.8407 78.8339 19.3681 78.5403C19.2351 78.4579 17.7883 78.6099 16.1529 78.8777C14.5172 79.1457 13.0729 79.2989 12.943 79.2183C12.5867 78.9973 14.9342 77.9092 16.8692 77.3986C17.8099 77.1503 18.6031 76.8428 18.6318 76.7154C18.7582 76.1553 15.4914 76.3313 13.0817 77.0143C12.7456 77.1096 12.5152 77.0641 12.5152 76.9023C12.5152 76.7523 12.981 76.5037 13.5506 76.3497C14.1884 76.1773 14.632 75.8921 14.7063 75.6066C14.7927 75.2746 15.159 75.0978 16 74.9822C18.1876 74.6816 18.6701 74.5438 18.2858 74.3293C17.9265 74.1288 14.4424 74.4183 13.2706 74.7461C12.8176 74.8727 12.9939 74.6492 13.9001 73.9488C14.936 73.1479 15.4043 72.9583 16.5439 72.8781C18.4369 72.7451 18.8728 72.5572 17.9288 72.2808C17.1324 72.048 13.7228 72.4042 12.5824 72.8397C12.2302 72.9742 11.8759 73.018 11.7951 72.937C11.5987 72.7396 12.2838 72.32 12.8105 72.3152C13.0425 72.3132 13.5924 72.007 14.0328 71.6348C14.6207 71.1379 15.1948 70.9278 16.1924 70.8448C16.9397 70.7826 17.5511 70.6342 17.5511 70.5148C17.5511 70.0569 16.2639 70.0103 14.2226 70.3945C11.64 70.8805 11.508 70.8832 11.508 70.4519C11.508 69.9957 14.8111 69.0224 16.3551 69.0234C17.5239 69.0242 17.953 68.6575 17.1465 68.3467C16.7053 68.1766 12.6852 68.6178 11.9074 68.9218C11.57 69.0535 11.4801 69.0214 11.6075 68.8143C11.7077 68.6514 12.0028 68.5184 12.2634 68.5184C12.524 68.5184 12.8148 68.3925 12.9095 68.2385C13.0304 68.0423 12.8277 68.0135 12.2319 68.1417C11.7646 68.2423 11.4554 68.2474 11.545 68.1528C11.8019 67.8812 14.1063 67.3236 15.7759 67.1292C16.6142 67.0313 17.3633 66.8487 17.4406 66.7236C17.6445 66.3921 14.7073 66.4621 12.565 66.8394C11.5538 67.0176 10.6778 67.0842 10.6182 66.9876C10.5587 66.8907 10.9591 66.7395 11.5083 66.6513C12.1758 66.544 12.6401 66.2864 12.9095 65.8734C13.2361 65.3728 13.5579 65.2418 14.6134 65.1803C15.5685 65.1249 15.9144 65.0038 15.9144 64.7254C15.9144 64.181 13.8132 64.096 12.1876 64.5744C10.9332 64.9439 10.2621 64.8121 10.6003 64.2629C10.6862 64.1233 11.6337 63.8191 12.7058 63.5867C16.1086 62.8499 16.2395 62.8046 15.6727 62.5641C15.3796 62.4397 14.2047 62.5212 12.7811 62.7644C11.4622 62.9897 10.3382 63.1291 10.2835 63.0742C10.2286 63.0193 10.5086 62.8279 10.9055 62.6486C11.3023 62.4696 11.8268 62.1242 12.071 61.8806C12.4188 61.5342 12.9468 61.4381 14.5026 61.4381C16.1181 61.4381 16.52 61.36 16.6497 61.0204C16.7939 60.6429 16.5721 60.6186 14.3475 60.7675C12.9936 60.858 11.4501 61.0543 10.9178 61.2037C9.59941 61.5734 9.50826 61.3491 10.6665 60.5842C11.8895 59.7765 13.785 59.3479 15.1943 59.5601C16.5537 59.7649 17.2275 59.5583 16.8176 59.0624C16.4669 58.6381 14.0345 58.7587 11.3056 59.3358C10.2939 59.55 9.42063 59.6789 9.36473 59.6228C9.30883 59.5667 9.90131 59.1373 10.6816 58.6685C11.8565 57.9627 12.421 57.7956 13.9655 57.6962C15.2658 57.6122 15.8726 57.4663 15.9691 57.2142C16.1562 56.7247 15.5884 56.1408 15.3313 56.5583C15.2298 56.7232 14.1702 56.9801 12.9765 57.129C11.783 57.2779 10.4485 57.525 10.0111 57.6782C9.20761 57.9594 8.82388 57.8669 9.07844 57.4532C9.38135 56.9611 12.5482 55.5564 13.6311 55.4338C14.2637 55.3622 14.7814 55.2044 14.7814 55.0836C14.7814 54.6769 12.8838 54.8588 10.8126 55.4634C9.6825 55.7934 8.69672 56.002 8.62219 55.9271C8.27396 55.5774 8.54464 55.1164 9.09808 55.1164C9.43423 55.1164 9.87134 54.9538 10.0695 54.7551C10.4293 54.3935 13.3078 53.3464 13.9416 53.3464C14.1264 53.3464 14.2778 53.2326 14.2778 53.0935C14.2778 52.7359 13.6971 52.7845 11.2562 53.3464C10.0791 53.6174 8.88934 53.8384 8.61237 53.8377C8.11558 53.8359 8.11533 53.8311 8.59751 53.4647C8.86643 53.2606 9.28491 53.0935 9.52739 53.0935C9.77012 53.0935 10.1226 52.8727 10.3107 52.6032C10.5227 52.2992 11.3172 51.9498 12.4021 51.6832C14.4528 51.1798 15.012 50.8177 13.7389 50.8177C12.9866 50.8177 10.9724 51.267 8.54942 51.9753C8.15763 52.0899 7.98339 52.0345 7.98439 51.7955C7.9859 51.4359 10.8672 49.9281 12.0746 49.655C12.8594 49.4777 13.0132 49.0476 12.2919 49.0476C12.0307 49.0476 10.8697 49.323 9.71221 49.6598C8.55446 49.9966 7.56238 50.227 7.50749 50.1716C7.28541 49.9486 8.08007 49.3002 8.58014 49.2967C9.2474 49.2919 9.59487 49.065 9.93731 48.4106C10.0944 48.1102 10.6801 47.7724 11.36 47.5898C12.9244 47.1696 12.8962 46.6557 11.3192 46.8441C10.3472 46.9602 8.97571 47.4495 7.41634 48.2359C7.3126 48.2882 7.2275 48.1082 7.2275 47.8354C7.2275 47.2017 8.9951 46.412 11.326 46.0043C12.2571 45.8417 13.0188 45.6114 13.0188 45.493C13.0188 45.3744 12.594 45.1967 12.0746 45.0981C11.3592 44.9623 10.6703 45.0819 9.23178 45.5924C7.11671 46.3429 6.9757 46.3697 6.9757 46.0218C6.9757 45.641 10.4963 43.7826 11.5596 43.6021C12.0839 43.5133 12.5872 43.3191 12.6784 43.1709C12.9417 42.7431 10.0889 43.0999 8.36939 43.7101C6.59222 44.3407 6.72391 44.3248 6.72391 43.9103C6.72391 43.4433 8.44115 42.5266 9.69333 42.3256C10.2707 42.2328 10.88 41.9913 11.0475 41.7888C11.3083 41.4732 11.2101 41.4446 10.3598 41.5883C9.81419 41.6803 8.78384 41.9172 8.07 42.1145C6.5192 42.5431 6.22031 42.558 6.22031 42.2073C6.22031 42.0611 6.597 41.7835 7.05753 41.5903C7.79278 41.2818 8.66248 41.1065 12.2075 40.5533C12.7043 40.4759 12.9669 40.3173 12.8672 40.1555C12.6721 39.8384 10.4187 40.0427 8.00882 40.596C7.123 40.7993 6.34017 40.9075 6.26941 40.8365C6.08057 40.6471 9.69257 39.0173 11.0767 38.6671C11.7293 38.5023 12.2634 38.2668 12.2634 38.1442C12.2634 37.7603 11.1404 37.8981 8.85888 38.5622C7.64799 38.9147 6.59776 39.1433 6.52499 39.0702C6.34772 38.8922 10.4117 37.0081 11.4423 36.7903C12.3457 36.5994 12.728 36.2176 12.2135 36.0193C11.9454 35.9159 8.23115 37.1555 6.15737 38.0403C5.90607 38.1475 5.71672 38.1194 5.71672 37.9748C5.71672 37.3684 10.1624 35.0036 11.8228 34.7269C12.3422 34.6402 12.767 34.4612 12.767 34.3289C12.767 33.9473 11.3572 34.3327 8.40892 35.5204C6.21553 36.404 5.70338 36.5347 5.76834 36.1948C5.86831 35.6747 8.12515 34.2953 9.99195 33.6141C12.2025 32.8069 12.5467 32.5978 11.3821 32.7692C10.5761 32.8876 7.72756 33.9198 5.77136 34.8018C5.51478 34.9176 5.50773 34.8167 5.73687 34.3115C6.04884 33.6237 9.05377 32.0579 10.8785 31.6326L11.8857 31.3977L11.0044 31.3757C10.5197 31.3635 9.16002 31.7011 7.98288 32.1259C4.88882 33.2423 4.69469 33.279 5.46417 32.6026C6.51315 31.6801 8.95833 30.5683 10.284 30.4105C11.1147 30.3116 11.4511 30.1771 11.2847 30.0099C10.8606 29.5841 8.01108 30.2615 5.15019 31.468C4.81631 31.6088 4.70954 31.5322 4.70954 31.1519C4.70954 29.7669 13.12 28.0859 18.7046 28.3547C21.0093 28.4654 22.8184 29.068 23.0463 29.8006C23.1316 30.0752 22.9579 30.1139 22.2415 29.9788C21.7188 29.8802 21.328 29.9083 21.328 30.0441C21.328 30.328 21.9399 30.5882 22.6076 30.5882C22.9574 30.5882 23.0906 30.766 23.0906 31.2331C23.0906 31.8716 23.076 31.8761 21.5798 31.7059C20.6154 31.5964 20.069 31.627 20.069 31.7904C20.069 31.9312 20.8055 32.1257 21.7057 32.2225C23.2009 32.3834 23.3424 32.4494 23.3424 32.9869C23.3424 33.4507 23.2359 33.5473 22.8388 33.4431C22.5573 33.369 22.3352 33.4353 22.3352 33.5931C22.3352 33.7486 22.6185 33.8755 22.9647 33.8755C23.4119 33.8755 23.5942 34.0126 23.5942 34.3489C23.5942 34.7057 23.3462 34.8622 22.587 34.9841C21.4909 35.1601 21.2016 35.6456 22.1929 35.6456C23.0103 35.6456 24.0978 36.0752 24.0978 36.3979C24.0978 36.5405 23.6513 36.6571 23.1054 36.6571C21.7571 36.6571 21.5901 37.0773 22.8534 37.2918C23.952 37.4781 24.1524 37.7603 24.4226 39.5018C24.5349 40.2263 24.4843 40.4501 24.2078 40.4501C23.6768 40.4501 23.7667 40.8964 24.3342 41.0775C24.6837 41.1887 24.9033 41.6237 25.1067 42.6078C25.5141 44.5794 25.3792 45.4018 24.6643 45.3019C24.3528 45.2584 24.0978 45.3438 24.0978 45.4915C24.0978 45.6394 24.374 45.7603 24.7119 45.7603C25.388 45.7603 25.4368 45.952 25.7234 49.7296C25.7992 50.7304 26.025 52.608 26.2249 53.9019C26.4251 55.1958 26.7751 57.7801 27.003 59.6448C27.2311 61.5097 27.4718 63.1773 27.538 63.3506C27.6204 63.5665 27.4031 63.6535 26.8491 63.6267C26.3972 63.6047 25.991 63.7271 25.9291 63.9036C25.8543 64.1175 26.1036 64.2197 26.7006 64.2197C27.6977 64.2197 27.5879 63.9529 28.2592 68.0127C28.4775 69.3339 28.7588 70.8132 28.8839 71.3C29.009 71.7867 29.3485 73.835 29.638 75.8516C29.9278 77.8682 30.3302 80.0823 30.5324 80.7716C30.8517 81.86 30.8524 82.0726 30.5389 82.3875C30.2257 82.7023 30.2484 82.8457 30.7127 83.4761C31.1916 84.1267 31.2143 84.2936 30.93 85.0828C30.5903 86.0257 30.7056 86.472 31.2888 86.472C31.669 86.472 31.6975 86.5565 31.8027 87.9893C31.8667 88.8619 32.1049 90.2044 32.8116 93.6788C33.1168 95.1775 33.5388 97.6126 34.329 102.433C34.4204 102.991 34.3692 103.417 34.1983 103.523C33.7692 103.789 33.8644 104.173 34.3594 104.173C34.7213 104.173 34.8854 104.641 35.2684 106.765C35.5255 108.19 35.8274 109.727 35.9394 110.178C36.1222 110.916 36.087 111 35.597 111.003C31.5728 111.018 21.1691 112.753 20.2161 113.568C20.066 113.696 18.8667 114.337 17.5511 114.993C15.4914 116.018 15.078 116.333 14.5759 117.255C14.0076 118.298 14.0041 118.345 14.4389 119.084C14.9984 120.035 15.9366 120.476 18.1889 120.849C19.8485 121.124 22.2765 120.955 23.9306 120.45C24.3274 120.329 24.3541 120.381 24.1194 120.822C23.6413 121.719 23.8019 122.641 24.5603 123.353C25.2346 123.985 25.2845 124.179 25.4471 126.804C26.0379 136.325 29.2759 144.645 32.1245 143.961C33.2223 143.697 34.1376 143.141 34.4551 142.545C34.9602 141.597 35.0292 137.42 34.579 135.023C34.0598 132.257 32.0736 126.166 31.149 124.505L30.4322 123.216L30.9144 122.482C31.1795 122.078 31.3973 121.318 31.3981 120.794C31.3996 119.921 31.4492 119.853 31.9908 119.99C32.6618 120.159 35.2787 119.173 36.7442 118.199C37.8921 117.436 38.3166 117.429 41.137 118.119C42.9202 118.555 44.182 118.667 47.5147 118.688C49.7998 118.701 52.1226 118.662 52.6765 118.6C53.6273 118.494 56.2311 118.764 64.1332 119.789C68.9719 120.417 79.1024 120.338 84.6545 119.629C86.8703 119.347 90.6661 118.993 93.0896 118.842C97.8886 118.545 106.258 117.749 116.876 116.58L123.666 115.833L126.129 116.385C127.786 116.756 128.593 117.05 128.593 117.284C128.593 117.476 128.838 118.071 129.138 118.607L129.684 119.582L128.757 123.319C127.265 129.338 126.981 133.059 127.702 137.126C128.222 140.055 129.195 141.328 130.922 141.339C131.531 141.342 132.042 141.168 132.361 140.847C134.884 138.313 135.805 132.82 135.144 124.244L134.821 120.041L135.591 119.318C136.015 118.921 136.429 118.383 136.511 118.124C136.671 117.618 138.127 117.069 139.31 117.069C140.676 117.069 144.059 115.858 144.76 115.118C145.932 113.88 145.914 113.229 144.667 111.868L143.575 110.675L143.629 104.958C143.659 101.814 143.856 96.8523 144.067 93.9316C144.278 91.011 144.682 84.6393 144.965 79.7723C145.248 74.9056 145.749 68.4765 146.079 65.4853C146.408 62.4944 146.743 59.1939 146.822 58.1508C146.901 57.1078 147.132 54.1492 147.336 51.5763C147.873 44.7678 148.195 39.0201 148.38 32.9273C148.517 28.4197 148.603 27.5538 148.917 27.5538C149.122 27.5538 149.676 27.1669 150.146 26.6941C151.183 25.6533 151.271 24.5859 150.435 23.2111C149.759 22.1 149.06 21.5285 147.264 20.6172C146.523 20.2414 145.975 19.8745 146.047 19.8022C146.12 19.7298 146.556 19.4815 147.017 19.2502C148.184 18.665 148.268 17.7079 147.255 16.5485C146.836 16.0696 146.356 15.2194 146.189 14.6598C145.879 13.6216 144.655 12.1324 143.352 11.2092L142.626 10.6949L143.541 10.1269C144.868 9.30335 144.876 8.12802 143.563 6.87986C142.71 6.06892 142.701 6.03883 142.992 4.94492C143.326 3.69348 142.982 1.52893 142.293 0.541731C141.822 -0.133932 140.691 -0.186275 139.964 0.433756ZM141.966 2.4567C142.208 3.08356 142.164 5.41121 141.907 5.67014C141.849 5.72755 141.317 5.70934 140.723 5.62943L139.645 5.48403L140.323 4.77246C140.924 4.14282 140.984 3.92788 140.845 2.9111C140.704 1.87637 140.739 1.76131 141.194 1.76131C141.512 1.76131 141.798 2.01848 141.966 2.4567ZM11.1369 7.33705C11.5619 8.16266 11.4546 8.96375 10.8901 9.18147C10.6715 9.26567 10.3898 8.9908 10.1294 8.43981C9.37682 6.84724 10.3412 5.79177 11.1369 7.33705ZM141.687 6.81867C142.072 6.81867 143.449 8.12094 143.449 8.48482C143.449 9.06237 142.958 8.8937 142.647 8.20944C142.368 7.59346 141.686 7.32441 141.686 7.83014C141.686 8.15331 140.17 8.15331 139.672 7.83014C139.369 7.63341 139.411 7.58435 139.884 7.58107C140.266 7.57854 140.522 7.39369 140.61 7.05712C140.694 6.73219 140.882 6.59008 141.11 6.67782C141.311 6.75545 141.571 6.81867 141.687 6.81867ZM140.557 9.10055C140.662 9.27098 140.345 9.30208 139.627 9.19158C138.188 8.97032 138.091 8.84161 139.363 8.84161C139.932 8.84161 140.469 8.95818 140.557 9.10055ZM142.052 11.3812C142.336 11.6398 142.953 12.1658 143.423 12.5504C143.894 12.9348 144.546 13.854 144.871 14.5928C145.592 16.2302 145.591 16.1798 144.896 16.1214C144.436 16.0825 144.326 15.9156 144.311 15.2316C144.296 14.61 144.036 14.1268 143.315 13.3856C142.779 12.8336 142.221 12.3815 142.076 12.3813C141.925 12.381 141.812 12.952 141.812 13.7088V15.0369H137.469C135.081 15.0369 133.126 14.9769 133.126 14.9036C133.125 14.83 133.302 14.5172 133.517 14.2082C133.885 13.68 134.079 13.6484 136.727 13.6843L139.546 13.7225L136.823 13.9025C132.862 14.1645 133.035 14.5311 137.12 14.5311C140.578 14.5311 140.585 14.5299 140.477 13.9622C140.417 13.6494 140.281 13.3932 140.174 13.3932C140.067 13.3932 139.995 13.1942 140.014 12.9507C140.045 12.5659 139.738 12.4918 137.657 12.3818C135.838 12.2857 135.442 12.206 136.002 12.0497C136.406 11.9367 137.476 11.8712 138.379 11.9041C140.175 11.9696 140.563 11.6841 139.622 10.99C139.057 10.5733 139.074 10.5669 140.29 10.7369C140.976 10.8327 141.769 11.1227 142.052 11.3812ZM138.48 11.2833C138.31 11.3526 137.97 11.3569 137.725 11.2927C137.48 11.2284 137.62 11.1718 138.035 11.1667C138.451 11.1617 138.651 11.214 138.48 11.2833ZM14.026 12.5082C14.5996 13.1214 14.6018 13.1404 14.1007 13.1404C13.8165 13.1404 13.4325 12.957 13.2472 12.7327C13.0618 12.5087 12.6799 12.2313 12.3981 12.1168C11.962 11.9392 12.0013 11.9056 12.6602 11.892C13.1749 11.8813 13.6329 12.0879 14.026 12.5082ZM10.9246 13.0299C10.9674 13.1601 10.52 13.4658 9.93052 13.7093C8.63654 14.2436 8.48647 14.253 8.48647 13.7996C8.48647 13.6059 8.9115 13.2706 9.4307 13.0546C10.4223 12.6425 10.7959 12.6361 10.9246 13.0299ZM139.168 13.0286C138.259 13.2268 134.423 13.2815 134.538 13.0943C134.608 12.9806 135.764 12.9006 137.106 12.9168C138.448 12.933 139.376 12.9833 139.168 13.0286ZM14.2095 13.7988C14.1259 13.8828 13.9086 13.8919 13.7271 13.8188C13.5262 13.7381 13.5858 13.6782 13.8792 13.6661C14.1446 13.6552 14.2931 13.7149 14.2095 13.7988ZM140.049 15.9535C141.157 16.0903 142.574 16.2355 143.197 16.2762C144.578 16.3665 146.974 17.3686 146.974 17.8561C146.974 18.157 146.866 18.1547 146.263 17.8414C144.28 16.8115 136.866 16.219 132.684 16.7564C131.089 16.9612 130.458 16.6466 131.803 16.3169C132.184 16.2236 132.892 16.0529 133.377 15.9373C134.59 15.6481 137.634 15.6556 140.049 15.9535ZM137.597 17.36C137.357 17.4232 136.904 17.4255 136.59 17.365C136.277 17.3046 136.474 17.2528 137.028 17.25C137.582 17.2472 137.838 17.2968 137.597 17.36ZM136.021 18.2139C134.7 18.4862 132.557 18.5067 132.718 18.2455C132.787 18.1327 133.786 18.0326 134.936 18.0232C136.648 18.0093 136.845 18.0437 136.021 18.2139ZM144.405 18.754C144.905 19.2557 144.749 19.7149 144.078 19.7149C143.431 19.7149 143.337 19.544 143.602 18.8506C143.784 18.3719 143.999 18.3462 144.405 18.754ZM142.102 20.2247C144.99 20.5883 148.186 21.5985 149.036 22.4163C149.948 23.2938 150.188 24.5624 149.655 25.6854C149.431 26.1567 149.13 26.5424 148.986 26.5424C148.52 26.5424 148.22 25.3296 148.522 24.6636C149.009 23.5901 148.626 22.9246 147.085 22.1652C145.332 21.3019 144.647 21.4241 144.757 22.5809L144.834 23.3815L143.575 23.3069C142.882 23.266 141.985 23.1673 141.581 23.0879C140.968 22.9673 140.916 22.9041 141.266 22.7074C141.826 22.3928 141.796 21.9164 141.183 21.3588C140.766 20.9803 140.176 20.8925 137.766 20.8503C135.179 20.8048 134.494 20.8933 131.659 21.638C129.904 22.0995 128.368 22.4813 128.247 22.4866C128.126 22.4922 128.154 22.6492 128.308 22.8358C128.462 23.0224 128.514 23.25 128.423 23.3416C128.103 23.6627 129.602 23.5029 131.793 22.9822C133.01 22.693 135.139 22.4135 136.524 22.3614L139.042 22.2666L136.112 22.608C132.734 23.0017 131.938 23.1474 130.292 23.6726C129.172 24.0301 128.701 24.4936 129.411 24.5399C129.584 24.5513 129.42 24.6969 129.045 24.8638C128.671 25.0305 128.067 25.4479 127.702 25.7913L127.039 26.4159L126.557 25.8189C125.574 24.6021 126.261 23.0255 128.248 21.9394C129.346 21.3394 132.522 20.4672 134.762 20.1504C136.281 19.9357 140.115 19.9744 142.102 20.2247ZM137.085 21.6696C136.563 21.7242 135.77 21.7235 135.323 21.6676C134.876 21.6117 135.303 21.5669 136.273 21.5679C137.242 21.5692 137.608 21.6147 137.085 21.6696ZM134.195 21.9053C134.022 21.9756 133.739 21.9756 133.566 21.9053C133.393 21.8352 133.534 21.7778 133.88 21.7778C134.227 21.7778 134.368 21.8352 134.195 21.9053ZM13.3383 22.4095C13.1678 22.4788 12.8279 22.4831 12.5829 22.4188C12.3379 22.3546 12.4774 22.298 12.8929 22.2929C13.3083 22.2879 13.5088 22.3402 13.3383 22.4095ZM11.571 22.6639C11.398 22.7342 11.1147 22.7342 10.9415 22.6639C10.7685 22.5938 10.91 22.5364 11.2562 22.5364C11.6024 22.5364 11.7442 22.5938 11.571 22.6639ZM15.4108 22.7493C15.3252 22.8884 14.837 22.986 14.3259 22.9663L13.3965 22.9304L14.4037 22.7493C14.9576 22.6497 15.4458 22.5521 15.4886 22.5324C15.5314 22.5127 15.4964 22.6103 15.4108 22.7493ZM12.9505 23.1549C12.867 23.2389 12.6497 23.248 12.4681 23.1749C12.2672 23.0943 12.3269 23.0343 12.6202 23.0222C12.8856 23.0113 13.0341 23.071 12.9505 23.1549ZM141.812 23.7507C143.688 23.9153 144.665 24.1373 145.644 24.6213C147.737 25.6568 147.714 25.5413 147.467 34.006C147.349 38.037 147.19 42.1886 147.113 43.2316C147.035 44.2747 146.747 48.2574 146.472 52.082C146.197 55.9066 145.921 59.7186 145.859 60.5531C145.797 61.3876 145.512 63.9931 145.225 66.3433C144.938 68.6937 144.534 73.6436 144.328 77.343C143.696 88.6434 143.483 92.0313 143.194 95.3224C143.041 97.0609 142.837 101.12 142.74 104.343C142.642 107.567 142.507 110.259 142.439 110.327C142.371 110.394 141.511 110.178 140.527 109.846C137.292 108.755 134.476 108.417 129.424 108.511L124.829 108.598L126.144 108.142C126.868 107.891 128.225 107.619 129.159 107.536C130.094 107.454 130.859 107.289 130.859 107.171C130.859 106.898 128.063 106.908 126.631 107.186C125.863 107.335 125.577 107.314 125.642 107.112C125.745 106.792 129.228 105.997 130.67 105.964C131.198 105.952 131.614 105.815 131.614 105.654C131.614 105.446 130.89 105.407 129.033 105.515C127.614 105.598 126.226 105.712 125.949 105.768C125.672 105.824 125.587 105.821 125.76 105.762C125.933 105.702 126.075 105.445 126.075 105.192C126.075 104.823 126.395 104.674 127.669 104.452C128.546 104.298 129.608 104.173 130.03 104.173C131.202 104.173 132.37 103.886 132.37 103.599C132.37 103.346 128.929 103.463 126.327 103.803C125.438 103.919 125.288 103.891 125.634 103.67C125.876 103.516 126.075 103.233 126.075 103.043C126.075 102.622 127.953 102.186 130.679 101.973C131.757 101.889 132.698 101.724 132.771 101.606C132.956 101.306 128.201 101.349 126.86 101.659C125.572 101.957 125.325 101.83 125.918 101.173C126.457 100.575 128.638 100.127 131.012 100.127C132.019 100.127 132.906 100.024 132.984 99.8993C133.195 99.5559 131.035 99.4472 128.224 99.6596C126.844 99.7638 125.666 99.801 125.608 99.7423C125.25 99.3827 129.849 98.3811 131.929 98.3657C132.645 98.3604 133.125 98.2423 133.125 98.0711C133.125 97.8668 132.155 97.8182 129.733 97.9007C126.382 98.0147 125.298 97.8559 126.062 97.3626C126.614 97.006 129.32 96.5868 131.068 96.5868C132.043 96.5868 132.621 96.4818 132.621 96.3046C132.621 96.1061 131.62 96.0519 129.242 96.1217C127.384 96.1761 125.917 96.1324 125.984 96.0244C126.05 95.9164 126.231 95.8282 126.385 95.8282C126.539 95.8282 126.872 95.6393 127.127 95.4084C127.454 95.111 128.332 94.9307 130.142 94.7901C133.346 94.5408 134.095 94.0487 131.224 94.0793C130.123 94.0912 128.542 94.1888 127.711 94.2968C126.881 94.4045 126.166 94.4647 126.124 94.4305C126.083 94.3964 126.423 94.1393 126.88 93.8588C127.754 93.323 130.537 92.7937 132.481 92.7937C133.309 92.7937 133.629 92.6928 133.629 92.4314C133.629 91.9598 132.651 91.651 132.294 92.0101C132.142 92.1628 131.275 92.2948 130.368 92.3032C129.461 92.3113 128.152 92.4129 127.46 92.5287C126.767 92.6443 126.15 92.6911 126.088 92.6324C126.026 92.5735 126.261 92.2387 126.61 91.8882C127.292 91.2035 129.242 90.7857 131.803 90.7759C132.605 90.7728 133.125 90.6598 133.125 90.4886C133.125 90.2901 132.124 90.236 129.746 90.3058C127.887 90.3601 126.421 90.3164 126.487 90.2084C126.554 90.1004 126.771 90.0122 126.971 90.0122C127.171 90.0122 127.334 89.8544 127.334 89.6617C127.334 89.2111 129.06 88.9185 131.866 88.8935C133.043 88.8829 134.063 88.7605 134.132 88.6214C134.31 88.2646 129.862 88.1617 127.852 88.4758C126.957 88.6159 126.163 88.6672 126.087 88.5898C126.011 88.5127 126.286 88.1794 126.697 87.8492C127.498 87.2064 129.272 86.7249 130.84 86.7249C132.186 86.7249 133.377 86.4564 133.377 86.1529C133.377 85.8834 128.016 86.0429 126.83 86.3479C126.254 86.4961 126.238 86.4791 126.641 86.1469C126.884 85.9473 127.082 85.6662 127.082 85.5218C127.082 85.1994 129.806 84.702 131.572 84.702C132.288 84.702 132.873 84.5905 132.873 84.4539C132.873 84.0336 131.651 83.8685 129.589 84.0104C127.912 84.1259 127.558 84.0792 127.214 83.6976C126.839 83.2816 126.852 83.2376 127.387 83.0907C127.704 83.0037 129.125 82.8581 130.544 82.7673C131.964 82.6765 133.125 82.5056 133.125 82.3877C133.125 82.2699 131.709 82.1733 129.978 82.1733C128.103 82.1733 126.83 82.0737 126.83 81.927C126.83 81.397 128.491 80.8516 130.457 80.7357C133.641 80.5481 133.541 80.2915 130.229 80.1516C127.542 80.0381 127.273 79.9865 127.8 79.6853C128.125 79.499 129.484 79.1819 130.818 78.9806C133.337 78.6005 134.06 78.2991 133.15 78.0088C132.687 77.8614 129.827 78.1547 128.141 78.5224C127.587 78.6433 127.58 78.6243 127.956 78.0475C128.534 77.1615 129.482 76.8226 131.803 76.6729C132.946 76.5993 133.88 76.4251 133.88 76.2858C133.88 76.1244 132.878 76.0804 131.111 76.1646C129.587 76.2372 128.341 76.2071 128.341 76.0976C128.341 75.9884 128.086 75.9639 127.774 76.0433C127.294 76.1657 127.343 76.0589 128.089 75.3451C128.954 74.5177 129.02 74.5003 131.677 74.386C133.166 74.3217 134.384 74.1753 134.384 74.0605C134.384 73.7366 132.721 73.5007 131.74 73.6855C130.672 73.8868 130.57 73.4966 131.551 72.9618C132.113 72.6559 132.152 72.5828 131.757 72.5744C131.101 72.5608 128.294 73.3409 127.9 73.6463C127.727 73.7806 127.586 73.7912 127.586 73.6699C127.586 73.5487 127.964 73.1464 128.426 72.7762C129.611 71.827 133.176 71.0018 134.636 71.3392C134.844 71.3872 135.07 71.3126 135.139 71.1735C135.383 70.6845 132.36 70.4455 129.877 70.7578C127.388 71.0709 126.881 70.9859 127.712 70.395C127.989 70.1982 128.461 69.8063 128.761 69.5243C129.18 69.1299 129.79 68.9754 131.405 68.8542C134.743 68.6036 134.824 68.2994 131.557 68.2815L128.604 68.2656L128.877 67.662C129.2 66.9499 130.068 66.7552 132.936 66.7511C134.2 66.7494 134.888 66.6492 134.888 66.4669C134.888 66.2687 133.837 66.2143 131.341 66.2831L127.794 66.3809L128.508 65.7998C128.901 65.4802 129.359 65.1075 129.526 64.972C129.694 64.8364 130.214 64.7254 130.682 64.7254C131.151 64.7254 132.09 64.556 132.77 64.3489C133.45 64.1418 134.255 63.9711 134.558 63.9696C134.861 63.9681 135.191 63.8346 135.29 63.673C135.426 63.4522 134.692 63.4204 132.347 63.5455C130.628 63.6371 128.967 63.7827 128.656 63.8689C127.713 64.1299 128.019 63.6239 129.177 63.0072C130.147 62.4906 133.198 61.9654 135.328 61.9484C135.64 61.9459 135.895 61.8126 135.895 61.6521C135.895 61.4381 135.039 61.405 132.684 61.5279C130.919 61.6202 129.219 61.7648 128.908 61.8493C128.571 61.9403 128.341 61.89 128.341 61.7254C128.341 61.5726 128.653 61.3726 129.033 61.2808C129.414 61.189 129.92 60.9119 130.157 60.6651C130.609 60.1938 132.315 59.9285 135.455 59.8415C136.442 59.8142 137.129 59.6883 137.092 59.5416C137.017 59.2453 134.205 59.2121 130.995 59.4698L128.74 59.6509L129.503 59.1848C130.352 58.6659 132.96 58.1663 135.265 58.0805C136.172 58.0469 136.726 57.9233 136.65 57.7715C136.527 57.5242 134.489 57.525 130.229 57.7736C128.498 57.8745 128.307 57.8471 128.871 57.5783C129.232 57.4064 129.706 57.1154 129.926 56.9313C130.146 56.7469 131.207 56.5413 132.292 56.4733C134.761 56.3181 135.391 56.1899 135.391 55.8429C135.391 55.3726 129.888 55.6826 128.908 56.2081C128.457 56.4493 128.089 56.5439 128.089 56.4182C128.089 56.005 128.855 55.541 129.802 55.3802C130.46 55.2684 130.723 55.0987 130.7 54.8014C130.647 54.1348 133.008 53.6986 134.83 54.0385C135.667 54.1945 136.371 54.2137 136.507 54.084C136.922 53.6897 136.517 53.5853 133.971 53.4295C132.023 53.3104 131.156 53.3709 130.008 53.7059C128.465 54.1563 128.001 54.0819 128.608 53.4811C129.155 52.9392 133.259 51.8291 134.714 51.8291C135.739 51.8291 135.933 51.7659 135.681 51.5131C135.269 51.1004 130.535 51.0936 129.411 51.504C128.734 51.7513 128.593 51.7411 128.593 51.4466C128.593 51.2478 129.011 50.9787 129.537 50.8387C130.273 50.6427 135.37 49.8062 135.828 49.8062C135.881 49.8062 135.86 49.7013 135.781 49.5731C135.523 49.1541 132.461 48.9798 130.716 49.2848C129.793 49.4464 128.987 49.5275 128.925 49.4656C128.766 49.3063 132.015 48.3348 133.377 48.134C134 48.0422 134.63 47.8728 134.777 47.7577C134.923 47.6427 135.342 47.5729 135.707 47.6027C136.072 47.6325 136.405 47.543 136.448 47.404C136.557 47.0419 131.481 46.9399 130.136 47.2773C129.53 47.429 128.979 47.4968 128.91 47.4277C128.841 47.3587 129.11 47.2353 129.507 47.1534C129.904 47.0714 130.545 46.8413 130.931 46.6418C131.584 46.3045 135.565 45.4384 136.054 45.5277C136.506 45.6099 136.902 45.5001 136.902 45.2928C136.902 44.96 132.114 44.7468 130.883 45.0245C129.825 45.2632 129.095 45.1522 129.942 44.8814C131.184 44.4836 131.234 44.409 130.355 44.2573L129.474 44.1053L130.33 43.7948C130.82 43.617 132.43 43.4845 134.1 43.4845C136.907 43.4845 136.992 43.4688 136.407 43.0574C136 42.7712 135.13 42.5962 133.77 42.5269C131.849 42.4293 131.224 42.5451 129.222 43.3715C128.786 43.5515 128.762 43.526 129.042 43.179C129.22 42.9588 129.755 42.7057 130.23 42.6162C131.455 42.3853 131.582 41.9708 130.433 41.9496C129.035 41.9235 130.121 41.5025 131.646 41.4793C132.286 41.4697 133.188 41.3857 133.648 41.2932C134.374 41.1475 134.421 41.0962 133.995 40.9103C133.684 40.7748 134.083 40.7348 135.076 40.8018C135.942 40.86 136.65 40.8183 136.65 40.7085C136.65 40.0483 132.282 40.0258 130.406 40.6764C129.252 41.077 129.083 41.0871 129.147 40.7523C129.189 40.5396 129.562 40.2551 129.978 40.1204C130.968 39.799 131.041 39.714 130.6 39.4045C130.322 39.21 130.401 39.1825 130.915 39.2947C131.711 39.469 133.629 39.0889 133.862 38.7106C133.949 38.5677 134.502 38.3738 135.09 38.2795C135.677 38.1852 136.228 37.993 136.315 37.8526C136.572 37.4346 131.901 37.9103 130.5 38.4449C129.814 38.7066 129.203 38.8717 129.143 38.8113C128.856 38.523 129.397 37.9507 130.104 37.7947C130.608 37.6837 130.849 37.5009 130.769 37.2908C130.603 36.8586 132.391 36.3994 134.944 36.2181C137.884 36.0092 137.097 35.5589 134.035 35.6982C132.183 35.7824 131.162 35.9597 130.292 36.3478C129.3 36.7906 129.096 36.8171 129.096 36.5036C129.096 36.2957 129.521 35.942 130.041 35.7177C130.961 35.3202 130.969 35.3055 130.355 35.1373C129.802 34.9856 129.899 34.9125 131.146 34.5365C131.928 34.3011 133.428 34.0844 134.48 34.0553C136.641 33.9951 136.971 33.74 135.228 33.4773C134.445 33.3594 133.241 33.4606 131.598 33.782C130.246 34.0465 129.19 34.1802 129.253 34.0791C129.315 33.9779 129.754 33.8219 130.229 33.7324C130.704 33.6429 131.236 33.3961 131.412 33.1839C131.69 32.8471 131.62 32.8183 130.854 32.9561C130.224 33.0696 130.368 32.967 131.363 32.592C132.124 32.305 133.633 32.0043 134.716 31.9239C137.11 31.7464 136.793 31.3539 134.258 31.356C133.029 31.357 131.963 31.5469 130.733 31.9833C129.764 32.3275 128.871 32.6094 128.751 32.6102C128.206 32.6127 129.255 31.8349 130.487 31.3221C131.233 31.0115 131.793 30.6742 131.731 30.5728C131.538 30.2595 132.347 30.0787 134.685 29.9121C137.297 29.7257 137.178 29.3315 134.51 29.3317C132.966 29.3317 131.359 29.6112 129.411 30.2178C129.075 30.3225 128.845 30.2878 128.845 30.1326C128.845 29.9887 129.581 29.6248 130.481 29.3239C131.47 28.9934 132.118 28.6351 132.118 28.4181C132.118 28.0755 132.342 28.0239 134.258 27.9271C134.674 27.9061 135.353 27.8631 135.769 27.8317L136.524 27.7746L135.895 27.5139C135.042 27.1606 131.945 27.4357 130.23 28.0171C129.1 28.4002 128.845 28.4217 128.845 28.1339C128.845 27.6737 130.004 27.2069 132.496 26.6642C134.832 26.1552 135.837 25.6894 134.213 25.868C133.386 25.959 133.19 25.9084 133.296 25.6308C133.45 25.2264 133.157 25.185 132.323 25.494C132.003 25.6126 131.409 25.7903 131.004 25.889C130.378 26.0414 130.313 26.0131 130.571 25.7008C131.097 25.0641 133.426 24.2041 135.517 23.8751C137.995 23.4852 138.637 23.4723 141.812 23.7507ZM21.4177 24.9197C23.8845 25.5577 24.5608 25.9676 24.8708 27.0129C25.148 27.9481 24.8678 29.3239 24.3997 29.3239C23.9845 29.3239 23.0438 28.1185 23.3235 27.9448C23.4723 27.8525 23.5942 27.4552 23.5942 27.062C23.5942 26.4976 23.4139 26.2612 22.7378 25.939C21.3001 25.254 18.7124 25.5322 19.9666 26.2369C20.2483 26.3952 20.3241 26.639 20.2073 27.0094C20.0557 27.4886 19.8815 27.5412 18.6824 27.4689C17.1266 27.3751 16.5439 27.0008 16.5439 26.095V25.4568L14.7184 25.6161C13.7145 25.7039 11.7117 26.0649 10.2684 26.4187C8.4069 26.8746 7.56566 26.9831 7.3748 26.7914C7.18393 26.5998 7.20509 26.4597 7.44756 26.3092C8.39205 25.7231 15.3532 24.6292 18.6479 24.549C19.3202 24.5328 20.5666 24.6995 21.4177 24.9197ZM136.032 25.2606C135.952 25.39 135.973 25.5471 136.08 25.6098C136.391 25.7934 137.909 25.4945 137.909 25.2494C137.909 24.9503 136.216 24.9604 136.032 25.2606ZM139.343 25.1867C139.142 25.3888 139.369 25.7838 139.687 25.7838C139.817 25.7838 139.924 25.6131 139.924 25.4045C139.924 25.0135 139.626 24.902 139.343 25.1867ZM4.83544 27.301C4.28149 27.5584 3.71495 27.7685 3.57647 27.7675C3.43798 27.7665 3.7779 27.5503 4.33185 27.2871C4.8858 27.0238 5.45234 26.8139 5.59083 26.8205C5.72931 26.8273 5.38939 27.0435 4.83544 27.301ZM13.1084 27.3108C12.5346 27.4249 11.4728 27.6949 10.7489 27.9109C9.94336 28.1511 9.2824 28.2189 9.04521 28.0854C8.62949 27.852 11.9663 27.0972 13.3965 27.1012C14.0058 27.103 13.9502 27.1437 13.1084 27.3108ZM127.473 39.1718C127.412 45.1446 127.296 50.4075 127.216 50.867C127.136 51.3267 126.959 54.263 126.823 57.3922C126.688 60.5215 126.466 64.9024 126.331 67.1277C126.195 69.3529 125.921 73.9045 125.722 77.2424C125.523 80.5802 125.299 83.4819 125.225 83.6905C125.151 83.8991 124.973 86.0841 124.829 88.5461C124.685 91.008 124.456 93.7959 124.32 94.7413C124.185 95.6868 123.955 98.1672 123.811 100.253C123.457 105.359 122.728 109.528 122.132 109.862C121.107 110.436 120.032 111.725 120.032 112.378C120.032 113.151 120.683 114.54 121.045 114.54C121.18 114.54 121.291 114.644 121.291 114.77C121.291 114.897 120.322 115.082 119.138 115.181C117.24 115.34 116.946 115.308 116.658 114.912C116.299 114.418 115.696 114.607 115.903 115.148C116.081 115.614 115.436 115.821 113.285 115.989L111.448 116.132L111.752 115.462C112.137 114.613 112.034 114.521 110.903 114.706C110.048 114.845 109.995 114.906 110.13 115.583C110.371 116.794 109.749 116.513 108.342 114.776C107.717 114.006 107.557 114.481 108.046 115.655L108.423 116.563H107.696C107.296 116.563 106.899 116.451 106.814 116.313C106.718 116.157 106.453 116.194 106.107 116.413C105.036 117.09 93.4162 117.909 92.7507 117.354C92.4702 117.12 92.3612 117.139 92.2456 117.442C92.0349 117.994 91.1412 117.918 90.8235 117.322C90.4813 116.68 90.0681 116.669 90.0681 117.302C90.0681 117.726 89.8374 117.802 88.2426 117.897C87.2384 117.957 85.4816 118.191 84.3385 118.417C81.3706 119.004 72.4878 119.445 70.4213 119.108C69.5249 118.963 68.0549 118.837 67.1547 118.829C64.8946 118.81 60.6 118.24 59.9214 117.869C59.613 117.701 59.2408 117.338 59.0943 117.063C58.7249 116.37 58.3419 116.438 58.3419 117.197V117.831L56.1387 117.689C51.2914 117.379 51.1894 117.262 49.9529 110.621C49.8622 110.133 49.8516 110.132 49.653 110.595C49.5251 110.892 49.6988 112.328 50.1097 114.374C50.4746 116.189 50.7254 117.722 50.6672 117.78C50.493 117.956 41.8954 117.276 41.2664 117.037C40.9459 116.916 40.3698 116.816 39.9865 116.816C38.9831 116.816 38.9126 116.624 39.495 115.478C39.943 114.595 39.9755 114.322 39.7297 113.499C39.4502 112.562 38.5851 111.732 37.5535 111.411C37.1274 111.278 36.9534 110.832 36.5805 108.912C36.3305 107.627 35.7501 104.982 35.2903 103.035C34.8305 101.088 34.3247 98.4706 34.166 97.2189C34.0074 95.9672 33.7652 94.6639 33.628 94.3226C33.4905 93.9815 33.2636 92.8436 33.1234 91.7939C32.4576 86.8091 32.3415 86.1089 31.0425 79.2653C29.5698 71.5048 29.3973 70.5621 28.8907 67.507C28.1537 63.0613 27.6702 59.5687 27.3686 56.5072C27.218 54.9774 26.9365 52.808 26.7431 51.6865C26.55 50.5651 26.2665 47.891 26.1134 45.7441C25.9603 43.5973 25.676 41.4426 25.4819 40.9558C25.1196 40.0473 24.0978 33.3238 24.0978 31.8478V31.0234L25.4197 31.2045C26.1469 31.3041 27.4781 31.4756 28.3783 31.5853C29.2785 31.6953 31.147 32.0311 32.5304 32.3315C33.914 32.6319 35.3631 32.8077 35.7511 32.7219C36.8645 32.4764 37.5756 33.1301 38.1641 34.9404C38.7467 36.7334 39.3591 39.4647 39.4155 40.5227C39.4364 40.9103 39.6446 41.8156 39.8788 42.5342C40.2781 43.7606 40.3174 43.8011 40.5186 43.1952C40.651 42.7957 40.6246 42.27 40.4486 41.8158C40.2925 41.4125 40.114 40.3426 40.0518 39.4386C39.9898 38.5346 39.6607 36.7709 39.3205 35.5192C38.9806 34.2675 38.7021 33.1612 38.7021 33.061C38.7019 32.8036 41.7886 31.9125 43.7378 31.6071C45.7962 31.2846 49.8783 31.2738 51.0399 31.5878C53.6935 32.3055 67.1026 33.3784 74.4568 33.4616C81.7954 33.5448 83.2442 34.0141 83.6163 36.429C83.8568 37.9889 84.2705 39.1858 84.5691 39.1858C84.7253 39.1858 84.7948 38.3149 84.7504 36.9104C84.7112 35.659 84.7867 34.5279 84.9184 34.3972C85.3253 33.9934 89.0861 32.6989 91.0753 32.2782C93.4069 31.7848 99.0486 31.3377 102.91 31.3403C106.314 31.3423 116.533 30.7109 119.354 30.324C121.622 30.013 124.549 29.2958 125.823 28.7388C127.735 27.9033 127.597 27.0301 127.473 39.1718ZM2.1294 30.8449C2.57457 30.8543 2.97191 31.3112 3.18568 32.0599C3.38409 32.7541 3.35262 32.8641 2.95604 32.8641C2.70349 32.8641 2.14476 32.5338 1.71469 32.1305C1.13355 31.5853 0.932617 31.1736 0.932617 30.5288C0.932617 29.3376 1.24484 29.1272 1.6248 30.0623C1.79879 30.4906 2.02591 30.8429 2.1294 30.8449ZM137.154 29.8296C137.154 29.9687 137.267 30.0825 137.406 30.0825C137.544 30.0825 137.657 29.9687 137.657 29.8296C137.657 29.6906 137.544 29.5768 137.406 29.5768C137.267 29.5768 137.154 29.6906 137.154 29.8296ZM137.657 32.6112C137.657 32.7503 137.771 32.8641 137.909 32.8641C138.048 32.8641 138.161 32.7503 138.161 32.6112C138.161 32.4721 138.048 32.3583 137.909 32.3583C137.771 32.3583 137.657 32.4721 137.657 32.6112ZM137.03 37.6726C137.118 37.8139 137.294 37.8643 137.423 37.7841C137.772 37.5674 137.707 37.4157 137.265 37.4157C137.049 37.4157 136.944 37.5312 137.03 37.6726ZM12.767 38.2929C12.767 38.5184 12.9148 38.6072 13.1432 38.5192C13.3501 38.4393 13.4569 38.2724 13.3801 38.1477C13.1605 37.7907 12.767 37.8837 12.767 38.2929ZM138.161 38.4272C138.161 38.5662 138.274 38.68 138.413 38.68C138.551 38.68 138.665 38.5662 138.665 38.4272C138.665 38.2881 138.551 38.1743 138.413 38.1743C138.274 38.1743 138.161 38.2881 138.161 38.4272ZM137.808 41.1692C137.721 41.3109 137.772 41.5028 137.922 41.5958C138.309 41.8361 138.559 41.5071 138.236 41.1824C138.055 41.0008 137.914 40.9965 137.808 41.1692ZM12.1297 41.4742C11.8905 41.8631 12.2181 42.114 12.5414 41.7893C12.7222 41.6077 12.7264 41.4664 12.5545 41.3597C12.4135 41.2722 12.2224 41.3238 12.1297 41.4742ZM84.5286 42.3317C84.5286 42.5322 84.6419 42.7664 84.7804 42.8523C84.9189 42.9383 85.0322 42.7742 85.0322 42.488C85.0322 42.2017 84.9189 41.9673 84.7804 41.9673C84.6419 41.9673 84.5286 42.1312 84.5286 42.3317ZM137.657 43.3581C137.657 43.5667 137.771 43.7374 137.909 43.7374C138.048 43.7374 138.161 43.5667 138.161 43.3581C138.161 43.1495 138.048 42.9788 137.909 42.9788C137.771 42.9788 137.657 43.1495 137.657 43.3581ZM40.2995 44.6335C40.1464 45.0338 40.3431 46.7344 40.5687 46.9607C40.6379 47.0302 40.8744 47.0178 41.0939 46.9331C41.4049 46.8133 41.4351 46.6701 41.2307 46.2865C41.0861 46.0155 40.968 45.4447 40.968 45.0184C40.968 44.2047 40.5543 43.9665 40.2995 44.6335ZM84.6653 44.7314C84.4934 45.0108 84.8904 45.3127 85.1231 45.0791C85.3623 44.8386 85.3177 44.496 85.047 44.496C84.9166 44.496 84.7449 44.6019 84.6653 44.7314ZM13.4174 46.7379C13.3089 46.9142 13.2882 47.1266 13.3713 47.21C13.5967 47.4363 13.8424 47.1035 13.7205 46.7369C13.6354 46.48 13.576 46.48 13.4174 46.7379ZM23.9089 47.3407C23.9666 47.5147 24.165 47.6568 24.3496 47.6568C24.5341 47.6568 24.7325 47.5147 24.7902 47.3407C24.8527 47.1526 24.6741 47.0247 24.3496 47.0247C24.025 47.0247 23.8465 47.1526 23.9089 47.3407ZM84.9483 47.6991C84.8559 47.7916 84.7804 48.0857 84.7804 48.3522C84.7804 49.0079 85.3885 48.7745 85.4905 48.0796C85.5683 47.5478 85.2918 47.3539 84.9483 47.6991ZM13.6833 48.7174C13.3997 49.0021 13.5108 49.3005 13.9001 49.3005C14.1078 49.3005 14.2778 49.1935 14.2778 49.0625C14.2778 48.7437 13.8845 48.5153 13.6833 48.7174ZM40.8842 48.7105C40.5868 49.0089 40.7049 49.7589 41.1143 50.1698C41.7708 50.8291 41.9307 50.4637 41.7438 48.7315C41.7186 48.4966 41.1118 48.4817 40.8842 48.7105ZM85.284 50.9292C85.284 51.1297 85.3973 51.3639 85.5358 51.4498C85.6743 51.5358 85.7876 51.3717 85.7876 51.0855C85.7876 50.7992 85.6743 50.5648 85.5358 50.5648C85.3973 50.5648 85.284 50.7287 85.284 50.9292ZM136.902 51.7027C136.902 51.9113 137.015 52.082 137.154 52.082C137.292 52.082 137.406 51.9113 137.406 51.7027C137.406 51.4941 137.292 51.3234 137.154 51.3234C137.015 51.3234 136.902 51.4941 136.902 51.7027ZM9.61955 52.5877C9.53394 52.7268 9.32898 52.8388 9.16405 52.8368C8.98377 52.8343 9.01499 52.7349 9.24186 52.5877C9.72556 52.2737 9.81268 52.2737 9.61955 52.5877ZM41.5794 53.6822C41.5089 53.8668 41.5691 54.3293 41.7131 54.7101C41.8574 55.0906 41.9752 55.7188 41.9752 56.1054C41.9752 56.8999 42.6463 58.4037 43.0008 58.4037C43.3845 58.4037 43.2798 57.6307 42.4443 54.2946C42.2049 53.3383 41.8158 53.0629 41.5794 53.6822ZM85.4298 55.4325C85.3311 56.3808 85.3875 57.5692 85.5713 58.4037C85.7395 59.1686 85.8523 60.4575 85.8216 61.2679C85.7649 62.7672 85.9311 63.7139 86.2506 63.7139C86.3483 63.7139 86.3962 62.8319 86.3571 61.7542C86.168 56.5257 85.9779 53.8521 85.7951 53.8521C85.6848 53.8521 85.5204 54.5634 85.4298 55.4325ZM24.408 54.4071C24.5268 54.7657 25.8603 55.1728 25.8603 54.8507C25.8603 54.596 25.0282 54.105 24.5968 54.105C24.4377 54.105 24.3528 54.241 24.408 54.4071ZM24.4113 56.1911C24.5344 56.5669 25.6085 56.777 25.6085 56.4255C25.6085 56.1802 25.0271 55.875 24.5598 55.875C24.4211 55.875 24.3544 56.0174 24.4113 56.1911ZM24.6014 57.3834C24.6014 57.6995 25.4945 58.1812 25.6992 57.9756C25.9193 57.7546 25.3666 57.1394 24.9483 57.1394C24.7575 57.1394 24.6014 57.2491 24.6014 57.3834ZM43.1224 60.4039C42.9451 60.6919 43.2161 61.4381 43.4981 61.4381C43.8355 61.4381 44.0037 61.0108 43.8375 60.5758C43.667 60.1298 43.3395 60.0509 43.1224 60.4039ZM16.662 61.9565C16.4228 62.3454 16.7504 62.5963 17.0737 62.2716C17.2545 62.09 17.2588 61.9487 17.0868 61.8419C16.9458 61.7545 16.7547 61.806 16.662 61.9565ZM136.398 61.9439C136.398 62.0829 136.512 62.1967 136.65 62.1967C136.789 62.1967 136.902 62.0829 136.902 61.9439C136.902 61.8048 136.789 61.691 136.65 61.691C136.512 61.691 136.398 61.8048 136.398 61.9439ZM43.486 64.1142C43.486 64.9065 44.0772 64.8197 44.1961 64.0103C44.2494 63.6454 44.1437 63.4611 43.8813 63.4611C43.6242 63.4611 43.486 63.6894 43.486 64.1142ZM16.4077 64.4895C16.3163 64.6377 16.2934 64.8111 16.3568 64.8746C16.5323 65.0511 17.2993 64.7019 17.2993 64.4455C17.2993 64.1289 16.6086 64.163 16.4077 64.4895ZM12.0116 65.9897C11.5186 66.3099 11.1852 66.3099 11.3821 65.9897C11.4677 65.8507 11.7293 65.7387 11.9635 65.7407C12.3304 65.7442 12.3372 65.7786 12.0116 65.9897ZM25.8603 69.0242C25.8603 69.1632 25.9736 69.277 26.1121 69.277C26.2506 69.277 26.3639 69.1632 26.3639 69.0242C26.3639 68.8851 26.2506 68.7713 26.1121 68.7713C25.9736 68.7713 25.8603 68.8851 25.8603 69.0242ZM28.0006 71.3C28.0862 71.439 28.2061 71.5528 28.2672 71.5528C28.3284 71.5528 28.3783 71.439 28.3783 71.3C28.3783 71.1609 28.2582 71.0471 28.1116 71.0471C27.9651 71.0471 27.915 71.1609 28.0006 71.3ZM134.006 73.07C133.921 73.2091 134.091 73.3229 134.384 73.3229C134.677 73.3229 134.847 73.2091 134.762 73.07C134.676 72.931 134.506 72.8172 134.384 72.8172C134.262 72.8172 134.092 72.931 134.006 73.07ZM13.7742 73.4428C13.7742 73.5088 13.4342 73.7394 13.0188 73.9551C12.0718 74.4469 12.0146 74.2332 12.9558 73.7204C13.7472 73.2893 13.7742 73.2802 13.7742 73.4428ZM135.003 73.8456C134.912 73.9938 134.898 74.1758 134.971 74.2502C135.152 74.4312 135.643 74.1121 135.643 73.8137C135.643 73.4906 135.208 73.5121 135.003 73.8456ZM134.258 75.8516C134.173 75.9907 134.223 76.1045 134.369 76.1045C134.516 76.1045 134.636 75.9907 134.636 75.8516C134.636 75.7125 134.586 75.5987 134.525 75.5987C134.464 75.5987 134.344 75.7125 134.258 75.8516ZM21.0762 79.3917C21.0762 79.5308 21.1895 79.6446 21.328 79.6446C21.4665 79.6446 21.5798 79.5308 21.5798 79.3917C21.5798 79.2527 21.4665 79.1389 21.328 79.1389C21.1895 79.1389 21.0762 79.2527 21.0762 79.3917ZM133.88 80.909C133.88 81.048 134.001 81.1618 134.147 81.1618C134.294 81.1618 134.344 81.048 134.258 80.909C134.173 80.7699 134.053 80.6561 133.991 80.6561C133.93 80.6561 133.88 80.7699 133.88 80.909ZM133.768 84.4276C133.687 84.5594 133.728 84.7336 133.859 84.815C133.99 84.8964 134.164 84.8552 134.245 84.7235C134.326 84.5917 134.285 84.4175 134.154 84.3361C134.022 84.2547 133.849 84.2959 133.768 84.4276ZM20.9924 84.8706C20.6487 85.2155 20.8418 85.4932 21.3713 85.4151C22.0633 85.3127 22.2957 84.702 21.6428 84.702C21.3774 84.702 21.0845 84.7778 20.9924 84.8706ZM133.686 86.7724C133.842 87.2413 134.384 87.3189 134.384 86.8723C134.384 86.6521 134.205 86.472 133.985 86.472C133.766 86.472 133.631 86.6071 133.686 86.7724ZM133.755 90.7708C133.84 90.9099 134.017 91.0237 134.147 91.0237C134.278 91.0237 134.384 90.9099 134.384 90.7708C134.384 90.6317 134.207 90.5179 133.991 90.5179C133.776 90.5179 133.669 90.6317 133.755 90.7708ZM22.0834 91.2765C22.0834 91.4156 22.1967 91.5294 22.3352 91.5294C22.4737 91.5294 22.587 91.4156 22.587 91.2765C22.587 91.1375 22.4737 91.0237 22.3352 91.0237C22.1967 91.0237 22.0834 91.1375 22.0834 91.2765ZM24.0978 91.2915C24.0978 91.4386 24.2111 91.4889 24.3496 91.403C24.4881 91.317 24.6014 91.1966 24.6014 91.1352C24.6014 91.0737 24.4881 91.0237 24.3496 91.0237C24.2111 91.0237 24.0978 91.1443 24.0978 91.2915ZM47.1728 92.857C47.4732 95.6946 48.0888 98.6732 48.2975 98.2984C48.4285 98.0638 48.3613 97.0088 48.1299 95.6663C47.9173 94.4341 47.6869 93.0562 47.6177 92.6041C47.4311 91.3853 47.0406 91.607 47.1728 92.857ZM133.772 93.7766C133.696 93.8998 133.793 94.1329 133.987 94.2945C134.379 94.6217 134.781 94.2457 134.51 93.8052C134.317 93.4922 133.956 93.478 133.772 93.7766ZM133.797 95.4911C133.507 95.7819 133.613 96.081 134.006 96.081C134.214 96.081 134.384 95.9103 134.384 95.7017C134.384 95.3067 134.086 95.2 133.797 95.4911ZM23.0906 96.4603C23.0906 96.6689 23.1352 96.8396 23.1895 96.8396C23.2439 96.8396 23.3537 96.6689 23.4335 96.4603C23.5131 96.2517 23.4685 96.081 23.3346 96.081C23.2004 96.081 23.0906 96.2517 23.0906 96.4603ZM133.629 98.5799C133.629 98.7189 133.742 98.903 133.88 98.989C134.019 99.075 134.132 99.0315 134.132 98.8924C134.132 98.7533 134.019 98.5692 133.88 98.4833C133.742 98.3973 133.629 98.4408 133.629 98.5799ZM48.4184 102.276C48.6098 104.431 48.777 105.184 49.0635 105.184C49.3929 105.184 49.0733 102.523 48.6234 101.518C48.3036 100.804 48.2918 100.848 48.4184 102.276ZM24.2657 101.56C23.9759 101.851 24.0822 102.15 24.4755 102.15C24.6832 102.15 24.8532 101.979 24.8532 101.771C24.8532 101.376 24.5553 101.269 24.2657 101.56ZM24.7849 103.7C24.5455 103.835 24.3496 104.053 24.3496 104.185C24.3496 104.573 25.2895 104.461 25.4446 104.054C25.6327 103.562 25.3245 103.397 24.7849 103.7ZM25.9971 105.925C25.8251 106.205 26.2222 106.507 26.4548 106.273C26.694 106.033 26.6495 105.69 26.3788 105.69C26.2484 105.69 26.0766 105.796 25.9971 105.925ZM26.1121 107.713C26.1121 107.852 26.2254 107.966 26.3639 107.966C26.5024 107.966 26.6157 107.852 26.6157 107.713C26.6157 107.574 26.5024 107.46 26.3639 107.46C26.2254 107.46 26.1121 107.574 26.1121 107.713ZM133.629 109.229C137.413 109.505 139.612 110.032 142.497 111.354C143.993 112.04 144.478 112.39 144.598 112.873C144.867 113.948 144.485 114.113 143.578 113.313C141.452 111.438 133.211 109.814 127.88 110.22C126.726 110.307 125.742 110.314 125.693 110.235C125.644 110.156 125.706 109.926 125.83 109.724C125.978 109.483 126.688 109.305 127.891 109.208C128.9 109.126 129.839 109.042 129.978 109.02C130.116 108.999 131.759 109.093 133.629 109.229ZM129.6 111.143C126.354 111.513 125.167 111.574 125.379 111.362C125.665 111.075 128.015 110.807 130.229 110.81L132.496 110.813L129.6 111.143ZM34.2373 111.672C34.0668 111.741 33.7269 111.745 33.4819 111.681C33.2369 111.617 33.3764 111.56 33.7919 111.555C34.2073 111.55 34.4078 111.603 34.2373 111.672ZM30.964 111.925C30.7935 111.994 30.4536 111.998 30.2086 111.934C29.9636 111.87 30.1031 111.813 30.5185 111.808C30.934 111.803 31.1344 111.855 30.964 111.925ZM37.3085 112.118C38.3378 112.55 39.066 113.803 38.8321 114.74C38.6407 115.506 36.3768 117.777 36.234 117.347C36.1804 117.185 36.4327 116.819 36.7948 116.533C37.4807 115.991 38.2031 114.803 38.1915 114.237C38.1877 114.056 37.8763 113.536 37.4991 113.082C37.0066 112.489 36.4941 112.194 35.6803 112.035L34.5473 111.814L35.4996 111.787C36.0233 111.771 36.8373 111.921 37.3085 112.118ZM27.2452 112.524C24.831 113.023 24.1836 113.106 24.4014 112.887C24.6031 112.684 27.8835 112.059 28.756 112.057C29.1714 112.056 28.4916 112.267 27.2452 112.524ZM33.8548 112.449C33.3356 112.503 32.4858 112.503 31.9664 112.449C31.4472 112.394 31.8719 112.35 32.9106 112.35C33.9493 112.35 34.3743 112.394 33.8548 112.449ZM30.7122 112.683C30.5417 112.753 30.2018 112.757 29.9568 112.693C29.7118 112.628 29.8513 112.572 30.2668 112.567C30.6822 112.562 30.8826 112.614 30.7122 112.683ZM125.823 112.767C125.823 112.904 125.44 113.177 124.972 113.373C124.505 113.57 124.045 113.856 123.95 114.009C123.738 114.353 123.053 114.378 123.053 114.041C123.053 113.708 124.411 113.023 125.07 113.023C125.362 113.023 125.531 112.909 125.445 112.77C125.36 112.631 125.41 112.517 125.556 112.517C125.703 112.517 125.823 112.63 125.823 112.767ZM136.021 112.855C137.963 113.12 139.924 113.777 139.924 114.162C139.924 114.226 139.442 114.52 138.853 114.818C138.265 115.115 137.609 115.511 137.396 115.699C137.063 115.991 137.002 115.968 136.97 115.531C136.946 115.214 137.163 114.916 137.546 114.74C138.274 114.408 138.378 113.931 137.674 114.156C137.406 114.241 136.584 114.142 135.848 113.934C134.534 113.564 132.875 113.439 130.079 113.499C128.829 113.526 128.568 113.629 127.763 114.414C127.207 114.956 126.606 115.299 126.213 115.299C125.447 115.299 125.362 114.894 126.08 114.665C126.36 114.576 127.076 114.129 127.672 113.673C128.267 113.216 128.917 112.778 129.114 112.7C129.75 112.448 133.686 112.536 136.021 112.855ZM34.5473 113.023C34.647 113.185 33.9515 113.261 32.6107 113.234L30.5185 113.191L32.0293 113.023C32.8602 112.931 33.7317 112.836 33.9659 112.813C34.2 112.79 34.4617 112.884 34.5473 113.023ZM123.053 113.276C122.532 113.8 122.046 113.941 122.046 113.568C122.046 113.365 122.962 112.824 123.368 112.787C123.472 112.778 123.33 112.998 123.053 113.276ZM141.896 113.427C142.528 113.871 142.579 115.046 141.976 115.246C141.709 115.334 141.695 115.248 141.912 114.841C142.404 113.918 141.997 113.455 140.83 113.61C139.889 113.734 139.841 113.715 140.286 113.385C140.911 112.923 141.189 112.93 141.896 113.427ZM24.8532 113.782C23.9923 114.059 23.3303 114.059 23.9719 113.782C24.2488 113.662 24.7021 113.568 24.9791 113.572C25.3839 113.578 25.3593 113.619 24.8532 113.782ZM126.075 114.009C126.075 114.28 124.902 114.796 124.715 114.608C124.42 114.311 124.572 114.015 125.131 113.803C125.713 113.582 126.075 113.661 126.075 114.009ZM36.1839 114.506C36.1839 115.05 35.0063 116.123 33.2188 117.209C32.1492 117.858 31.0712 118.604 30.8235 118.867C30.3516 119.368 29.8891 119.497 29.8891 119.128C29.8891 119.009 30.2816 118.396 30.7613 117.765C31.6171 116.639 33.7617 115.299 34.7077 115.299C34.9494 115.299 35.217 115.185 35.3027 115.046C35.668 114.453 32.6596 115.244 31.8893 115.944C31.5061 116.292 31.1521 116.338 29.9739 116.19C28.8192 116.045 28.6195 115.957 28.9811 115.754C29.2301 115.614 30.1313 115.436 30.9834 115.358C31.8357 115.281 32.9861 115.011 33.5401 114.758C34.5896 114.279 36.1839 114.127 36.1839 114.506ZM129.983 115.375C129.279 117.065 130.497 118.572 132.593 118.604C133.9 118.624 135.279 119.043 134.132 119.072C132.764 119.107 130.219 118.551 129.918 118.153C129.351 117.401 129.275 116.163 129.735 115.188C130.289 114.017 130.486 114.166 129.983 115.375ZM25.0367 114.693C24.9531 114.777 24.7358 114.786 24.5543 114.713C24.3533 114.632 24.413 114.572 24.7064 114.56C24.9718 114.549 25.1203 114.609 25.0367 114.693ZM128.845 115.046C128.637 115.181 128.24 115.282 127.963 115.27C127.548 115.252 127.57 115.213 128.089 115.046C128.98 114.76 129.286 114.76 128.845 115.046ZM135.225 115.762L135.908 116.478L135.38 117.153C134.702 118.018 134.482 118.003 134.298 117.082C134.206 116.615 133.887 116.196 133.449 115.963C132.937 115.691 132.849 115.557 133.125 115.465C133.333 115.396 133.673 115.282 133.88 115.212C134.493 115.007 134.512 115.015 135.225 115.762ZM24.8323 115.403C24.6442 115.589 21.5272 116.342 21.4141 116.228C21.3537 116.168 21.961 115.945 22.764 115.734C24.2587 115.34 25.0183 115.219 24.8323 115.403ZM19.6788 117.533C19.4391 117.744 16.6393 118.839 16.3397 118.839C16.2518 118.839 16.4306 118.663 16.7365 118.448C17.7072 117.765 20.3478 116.944 19.6788 117.533ZM29.7002 117.489C29.5272 117.56 29.244 117.56 29.0707 117.489C28.8977 117.419 29.0392 117.362 29.3855 117.362C29.7317 117.362 29.8734 117.419 29.7002 117.489ZM27.8065 117.728C27.7229 117.811 27.5056 117.821 27.324 117.748C27.1231 117.667 27.1828 117.607 27.4761 117.595C27.7415 117.584 27.8901 117.644 27.8065 117.728ZM19.9431 118.556C19.1122 118.798 18.1677 119.14 17.8442 119.317C17.5209 119.494 17.1903 119.573 17.11 119.492C16.9188 119.3 16.9551 119.277 18.4324 118.64C19.1248 118.341 20.0879 118.102 20.5726 118.107C21.3497 118.115 21.2754 118.169 19.9431 118.556ZM22.587 118.802C22.587 119.044 18.5953 119.972 18.3999 119.776C18.2949 119.671 19.3001 119.245 20.8244 118.749C21.4655 118.54 22.587 118.575 22.587 118.802ZM30.1409 120.103C30.4234 120.66 30.5958 121.129 30.5236 121.147C30.4516 121.164 30.2841 121.192 30.1517 121.21C30.0192 121.227 29.7395 121.469 29.5303 121.747C29.1589 122.24 29.1495 122.237 29.1417 121.597C29.1372 121.236 28.9013 120.729 28.6175 120.471C28.1879 120.081 27.9794 120.048 27.3746 120.278C26.801 120.495 26.6203 120.48 26.5158 120.207C26.4249 119.969 26.7557 119.745 27.5698 119.494C29.3678 118.938 29.5736 118.987 30.1409 120.103ZM23.5942 119.572C23.5942 119.771 20.9667 120.356 20.0693 120.356C19.4093 120.356 20.0758 120.029 21.3834 119.711C23.0198 119.313 23.5942 119.277 23.5942 119.572ZM25.7921 119.75C25.7085 119.834 25.4912 119.844 25.3097 119.77C25.1087 119.69 25.1684 119.63 25.4617 119.618C25.7271 119.607 25.8757 119.667 25.7921 119.75ZM133.22 121.81C134.043 124.638 134.108 130.158 133.36 133.841C133.074 135.251 132.818 136.426 132.792 136.453C132.633 136.612 128.593 136.175 128.593 135.998C128.593 135.879 128.972 135.781 129.437 135.781C129.901 135.781 130.621 135.662 131.037 135.516C131.793 135.252 131.796 135.244 132.082 132.404C132.24 130.838 132.371 128.141 132.372 126.41C132.375 123.098 132.553 121.368 132.889 121.368C133 121.368 133.149 121.567 133.22 121.81ZM30.2091 126.362C31.2188 128.554 31.8702 130.686 32.6409 134.323C33.3457 137.649 33.3336 138.31 32.5677 138.31C32.0341 138.31 31.956 138.166 31.8098 136.918C31.7201 136.152 31.1347 133.869 30.5087 131.844C28.7235 126.069 28.41 124.402 29.1087 124.402C29.2173 124.402 29.7123 125.284 30.2091 126.362ZM128.391 134.315C128.156 134.551 128.089 134.483 128.089 134.011C128.089 133.539 128.156 133.472 128.391 133.708C128.626 133.944 128.626 134.079 128.391 134.315ZM132.37 137.665C132.37 137.85 132.147 138.27 131.874 138.598L131.379 139.195L131.371 138.268C131.366 137.748 131.501 137.291 131.677 137.227C132.094 137.077 132.37 137.251 132.37 137.665ZM34.0898 139.369C34.0094 139.57 33.9498 139.511 33.9377 139.216C33.9268 138.949 33.9863 138.8 34.0699 138.884C34.1535 138.968 34.1625 139.186 34.0898 139.369ZM33.0715 139.448C33.2601 139.942 32.9713 141.091 32.6588 141.091C32.3463 141.091 32.0575 139.942 32.2461 139.448C32.3259 139.24 32.5115 139.069 32.6588 139.069C32.8061 139.069 32.9917 139.24 33.0715 139.448ZM30.0895 140.322C29.7423 140.88 29.4975 140.811 29.7241 140.217C29.8062 140.003 29.991 139.827 30.1351 139.827C30.3007 139.827 30.2841 140.008 30.0895 140.322ZM131.363 140.333C130.866 140.655 130.283 140.655 130.481 140.333C130.567 140.194 130.885 140.082 131.189 140.084C131.637 140.087 131.669 140.134 131.363 140.333Z" fill="url(#paint0_linear_13_19)"/>
<defs>
<linearGradient id="paint0_linear_13_19" x1="75.5" y1="0" x2="75.5" y2="144" gradientUnits="userSpaceOnUse">
<stop stop-color="#FFFFC8"/>
<stop offset="1" stop-color="#97793D"/>
</linearGradient>
</defs>
</svg>
