<svg width="197" height="54" viewBox="0 0 197 54" fill="none" xmlns="http://www.w3.org/2000/svg">
<path fill-rule="evenodd" clip-rule="evenodd" d="M32.4704 3.37839C33.4248 3.21217 34.1365 2.72758 34.4985 1.99731C34.5441 1.90544 34.577 1.82906 34.5717 1.82755C34.5664 1.82604 34.4994 1.89419 34.4229 1.97902C34.1081 2.32779 33.6646 2.59945 33.1427 2.76306C32.813 2.86645 32.671 2.89179 32.2093 2.92969C31.6496 2.97564 31.3443 2.97527 30.4977 2.92772C29.6112 2.87791 29.0854 2.86946 28.4314 2.89453C26.7148 2.96027 25.296 3.28942 24.0213 3.91764C23.2311 4.30707 22.3521 4.9938 21.8513 5.61295C21.5994 5.92441 21.3968 6.21558 21.4332 6.21386C21.4507 6.21303 21.5214 6.1336 21.5903 6.03736C22.0699 5.3673 22.7209 4.7987 23.5412 4.33339C24.6526 3.70305 25.9127 3.35768 27.4177 3.27095C28.2765 3.22147 28.9633 3.24215 30.1106 3.35201C31.4016 3.47563 31.8812 3.48098 32.4704 3.37839ZM34.334 3.0728C34.4501 2.94656 34.4911 2.87879 34.5452 2.7235C34.5821 2.61754 34.6338 2.42261 34.6601 2.29034L34.7079 2.04983L34.6302 2.19714C34.3967 2.64018 34.0488 2.97241 33.4998 3.27653C32.7667 3.6826 32.369 3.74904 30.4973 3.778C29.2762 3.7969 29.0493 3.8055 28.357 3.85916C26.1554 4.02977 24.5341 4.47805 23.0298 5.33202C22.5946 5.57903 22.0007 5.9709 21.9872 6.01984C21.9847 6.02908 22.0672 6.0153 22.1706 5.98921C22.274 5.96314 22.5192 5.91257 22.7156 5.87683C23.0633 5.81355 23.0774 5.80799 23.2624 5.66074C24.0331 5.04737 25.2436 4.57964 26.6283 4.36021C27.2435 4.26272 27.8495 4.21324 29.4488 4.12991C31.5023 4.0229 32.6631 3.88224 33.3454 3.65777C33.7062 3.53905 34.1427 3.28077 34.334 3.0728ZM33.2032 3.95822C33.7197 3.78955 34.2012 3.49607 34.3376 3.26686C34.4122 3.14159 34.3854 3.13775 34.2639 3.25623C34.2048 3.31384 34.0437 3.42468 33.9058 3.50251C33.2217 3.88889 32.2745 4.03714 29.6283 4.17204C28.1714 4.24631 27.6316 4.28903 27.0008 4.38004C26.144 4.50366 25.4712 4.66743 24.8615 4.90077C24.4167 5.071 23.2089 5.76506 23.3083 5.79333C23.3248 5.79803 23.5129 5.7021 23.7264 5.58016C24.7821 4.97708 26.0197 4.7087 28.3012 4.58807C29.7608 4.51088 30.6987 4.43468 31.422 4.33449C31.9794 4.25729 32.8517 4.07303 33.2032 3.95822ZM31.6227 4.92796C32.7029 4.65834 33.5031 4.26577 33.9851 3.76915C34.0639 3.68787 34.1244 3.62049 34.1195 3.61944C34.1145 3.61839 34.0295 3.66989 33.9306 3.73388C33.2735 4.15902 31.8698 4.42628 29.3309 4.60963C28.0162 4.70457 27.0424 4.78968 26.5574 4.85202C25.4706 4.99172 24.6206 5.23624 23.9535 5.60109C23.7064 5.73621 23.6824 5.75525 23.7699 5.74635C23.8254 5.74069 24.002 5.69392 24.1624 5.64242C24.9418 5.39215 25.7314 5.30909 27.3188 5.31034C29.4211 5.312 30.4506 5.22052 31.6227 4.92796ZM30.3942 2.83979C30.7197 2.85428 30.9989 2.86493 31.0147 2.86344C31.0305 2.86193 30.9789 2.84374 30.8999 2.82304C30.8209 2.80234 30.3511 2.67843 29.8559 2.5477C29.027 2.32885 28.6878 2.25834 28.3806 2.24101C28.1417 2.22755 26.8865 2.42134 26.295 2.56301C25.5145 2.74996 24.6627 3.0852 23.9535 3.48466C22.9388 4.05605 22.4812 4.45191 21.2147 5.8539C20.8715 6.23375 20.5947 6.54567 20.5996 6.54706C20.6045 6.54845 20.723 6.50002 20.863 6.43946C21.003 6.37887 21.1522 6.31823 21.1947 6.30474C21.2371 6.29121 21.2767 6.26236 21.2827 6.24066C21.3076 6.14995 21.6352 5.69719 21.84 5.47046C22.3125 4.94717 22.7562 4.59307 23.4643 4.17418C24.0284 3.84046 24.4392 3.64531 24.9654 3.461C26.4785 2.93107 28.1504 2.73975 30.3942 2.83979ZM24.6201 2.55256C25.447 2.21717 26.258 2.02947 27.0864 1.98173C27.4593 1.96026 27.4221 1.94319 26.9248 1.90762C25.955 1.83822 25.4917 1.90275 24.6991 2.21763C24.0157 2.48917 22.4515 3.46935 21.8482 4.00419C21.8452 4.00686 21.8422 4.00952 21.8393 4.01215C21.7943 4.05199 21.7549 4.08688 21.7172 4.12182C21.7102 4.12829 21.7032 4.13476 21.6963 4.14126C21.4558 4.36768 21.2516 4.63396 20.0205 6.27391C19.9384 6.38324 19.8518 6.49867 19.7602 6.62061C19.7462 6.63933 19.732 6.6582 19.7177 6.67723C19.4777 6.99713 19.2744 7.26963 19.2661 7.2828C19.2578 7.29597 19.3508 7.24618 19.4726 7.17215C19.8978 6.91385 20.1996 6.60222 20.6193 5.98796C21.5745 4.58977 22.4952 3.71111 23.7548 2.99549C24.0661 2.81862 24.4555 2.61932 24.6201 2.55256ZM27.5855 2.25349C27.7217 2.23388 27.8472 2.21069 27.8642 2.20195L27.8675 2.20025C27.8784 2.19466 27.8855 2.19104 27.8851 2.18864C27.8844 2.184 27.8557 2.18394 27.7728 2.18306C27.2787 2.17784 27.0118 2.18515 26.7342 2.21151C24.9242 2.38339 23.2605 3.1934 21.9165 4.55703C21.5163 4.96316 21.316 5.21866 20.79 5.99419C20.6399 6.21547 20.4579 6.46794 20.3856 6.55525C20.2841 6.67793 20.2681 6.70704 20.3153 6.68332C20.3489 6.66646 20.699 6.29666 21.0934 5.86159C22.3689 4.45427 22.8469 4.04598 23.9575 3.41527C24.6301 3.03329 25.2089 2.79046 25.9097 2.59613C26.2601 2.49897 27.1651 2.31394 27.5855 2.25349ZM33.1918 5.43891C33.7048 5.13454 34.1144 4.75079 34.3966 4.31008C34.4703 4.19497 34.5269 4.09411 34.5224 4.08597C34.5178 4.07782 34.4752 4.11552 34.4276 4.16975C34.273 4.34607 33.6484 4.87721 33.4265 5.02108C32.4204 5.6733 30.7896 6.08681 28.8723 6.17583C28.2825 6.2032 27.6622 6.20957 26.3319 6.20194C24.0909 6.18907 22.9149 6.2646 21.7529 6.49605C21.3063 6.585 21.0693 6.67846 20.4717 7.0014L20.1758 7.1613L20.4575 7.07123C21.0869 6.87001 21.8245 6.73614 22.8248 6.64165C23.1167 6.61409 24.377 6.54158 25.6255 6.4805C30.0544 6.26392 30.5809 6.24045 31.096 6.14983C31.1849 6.13417 31.2736 6.11652 31.3819 6.09552C32.1318 5.95019 32.6423 5.76498 33.1918 5.43891ZM32.9538 4.90005C33.3186 4.71373 33.4705 4.58049 33.7916 4.16496C33.8787 4.05227 33.9468 3.95458 33.9431 3.94786C33.9393 3.94112 33.8668 3.991 33.7818 4.05865C33.2646 4.47092 32.1212 4.92169 31.0789 5.12432C29.9307 5.34753 29.1912 5.40668 27.444 5.41506C26.1838 5.42107 25.8044 5.43922 25.2315 5.52083C24.9327 5.56339 24.4533 5.66645 24.4642 5.68582C24.4678 5.69237 24.5778 5.69652 24.7086 5.69504C25.1797 5.68972 25.8534 5.72199 26.909 5.80046C28.5707 5.92395 29.1555 5.9318 29.9368 5.84098C31.0511 5.71146 31.8581 5.45976 32.9538 4.90005ZM33.6905 5.44489C33.9841 5.21254 34.2644 4.85749 34.4649 4.464C34.5182 4.35937 34.5585 4.26788 34.5545 4.26072C34.5505 4.25354 34.4998 4.32017 34.4419 4.40881C33.9322 5.18864 32.943 5.82222 31.81 6.09446C30.9728 6.29563 30.9221 6.29955 25.6714 6.56805C23.267 6.69102 22.6653 6.73629 21.9653 6.84693C21.0229 6.99587 20.1201 7.27425 19.5387 7.59514C19.3139 7.71921 19.3071 7.72505 19.4651 7.65894C20.4837 7.23274 21.6033 6.99452 22.9463 6.91822C23.5354 6.88474 24.2728 6.88584 25.7419 6.92232C27.9159 6.97631 28.1232 6.97359 29.0288 6.87904C29.6355 6.81568 30.7702 6.60799 31.4288 6.43979C32.5097 6.16364 33.1231 5.89382 33.6905 5.44489ZM30.5265 3.71153C31.1743 3.70089 31.7262 3.68642 31.7529 3.67941C31.8245 3.66063 31.7808 3.65671 31.4418 3.65154C31.1476 3.64706 30.9335 3.62837 29.6652 3.49644C28.5863 3.3842 27.4272 3.38523 26.5557 3.49916C24.7228 3.73883 23.0785 4.53994 22.0382 5.70009C21.5988 6.19016 21.5952 6.23724 22.0233 5.89349C22.7213 5.33309 23.6829 4.81028 24.6053 4.48966C25.3664 4.2251 26.6606 3.954 27.6647 3.84877C28.4417 3.76735 29.1259 3.73453 30.5265 3.71153ZM22.9887 3.09066C23.8086 2.55068 24.4394 2.21453 24.9718 2.03379C25.123 1.98247 25.2356 1.93816 25.2219 1.93534C25.1717 1.92503 24.5146 2.03948 24.2095 2.11169C23.7974 2.20926 23.3397 2.35294 23.1696 2.43816C22.9147 2.56592 21.9595 3.28771 21.4966 3.70241C20.7321 4.38724 20.2625 5.00253 19.544 6.26074C19.0901 7.05566 18.9189 7.33791 18.7425 7.58255C18.6598 7.69716 18.6039 7.7829 18.6183 7.77308C18.9552 7.54326 18.9856 7.50643 20.5795 5.39168C21.542 4.1147 21.7825 3.88497 22.9887 3.09066ZM32.1342 5.54055C32.4856 5.42503 33.0685 5.15167 33.2635 5.01093C33.3243 4.96711 33.3694 4.92999 33.364 4.92843C33.3585 4.92687 33.1991 5.012 33.0097 5.11758C32.8204 5.22319 32.5174 5.36703 32.3364 5.43727C31.9435 5.58973 31.8694 5.62759 32.1342 5.54055ZM22.6784 2.66622C22.7181 2.64792 22.7517 2.6289 22.753 2.62393C22.7588 2.60298 22.7336 2.61251 22.6719 2.65464L22.6063 2.69948L22.6784 2.66622ZM21.8708 2.69308C22.0041 2.6449 22.095 2.59327 22.1261 2.54801C22.1527 2.50937 22.1662 2.47606 22.156 2.47401C22.1185 2.46641 21.3895 2.81475 21.0123 3.02051C19.9591 3.59508 19.4214 4.11829 18.9792 4.99881C18.8396 5.27659 18.7699 5.45113 18.3472 6.57935C18.1323 7.15312 17.8742 7.74206 17.5636 8.36771C17.4265 8.64397 17.3172 8.87526 17.3208 8.88167C17.3244 8.88808 17.3654 8.85646 17.4118 8.81141C17.5548 8.67286 18.0006 7.75821 18.413 6.75762C19.1263 5.02682 19.5742 4.30703 20.3701 3.61229C20.7954 3.24114 21.4303 2.85221 21.8708 2.69308ZM19.5852 6.01833C20.4406 4.58467 20.9819 3.96817 22.218 3.01954C22.4357 2.85244 22.6103 2.71473 22.6059 2.71348C22.5812 2.70646 21.5792 3.37086 21.3693 3.53345C20.8186 3.95992 19.9189 4.90746 19.5237 5.47727C19.1008 6.08687 18.9177 6.43005 18.5916 7.22426C18.4733 7.51212 18.3381 7.82275 18.291 7.91452C18.2439 8.00629 18.2084 8.08681 18.2121 8.09342C18.2387 8.14097 18.7657 7.38898 19.1153 6.80487C19.2311 6.61121 19.4426 6.25727 19.5852 6.01833ZM19.0491 5.86576C19.6688 4.77882 20.704 3.64771 21.7213 2.9461C21.8702 2.84339 21.9889 2.7537 21.9851 2.74679C21.969 2.71804 21.4182 2.98013 21.1229 3.15703C20.0667 3.78973 19.3232 4.74634 18.7 6.27461C18.1774 7.55601 18.0772 7.7932 17.9388 8.07675C17.8556 8.24718 17.7696 8.41965 17.7478 8.46002C17.7102 8.52935 17.7133 8.52868 17.8038 8.44772C18.0204 8.25374 18.2436 7.82714 18.5173 7.08379C18.7657 6.40926 18.8523 6.21106 19.0491 5.86576ZM19.7958 3.78506C20.1388 3.46749 20.4196 3.27122 20.988 2.95179C21.2952 2.77914 21.5433 2.63727 21.5394 2.63657C21.5355 2.63586 21.4321 2.67875 21.3098 2.73187C20.5486 3.06229 19.6616 3.5603 19.2789 3.87219C18.6208 4.40842 18.4138 4.79845 18.0647 6.15946C17.7682 7.31515 17.425 8.30044 17.0296 9.13088C17.0045 9.18359 17.0044 9.196 17.0294 9.17318C17.0864 9.12106 17.957 7.36393 18.1329 6.94613C18.1591 6.88372 18.3001 6.5137 18.4461 6.12388C18.9265 4.84088 19.2377 4.30175 19.7958 3.78506ZM32.7113 6.77307C32.8614 6.52987 33.0332 6.26546 33.0932 6.18546C33.1531 6.10548 33.1999 6.04022 33.1972 6.04046C33.1944 6.04068 33.0668 6.11763 32.9135 6.2114C32.5641 6.42524 32.0681 6.63103 31.2793 6.88952C30.062 7.28837 29.0496 7.49478 27.8175 7.59531C26.9727 7.66424 26.0916 7.65913 24.2477 7.57458C22.8259 7.50937 21.9736 7.52888 21.1218 7.64604C20.2381 7.76762 19.3377 8.03333 18.7714 8.33969L18.5609 8.45353L18.8088 8.37219C19.6621 8.09223 20.7665 7.97797 22.4617 7.99423C22.7712 7.99719 23.1916 8.0098 23.3961 8.02221C26.5751 8.21548 27.9944 8.25085 29.1663 8.16599C30.4682 8.07172 31.3415 7.88486 31.9124 7.57842C32.3208 7.35915 32.3971 7.28232 32.7113 6.77307ZM31.132 6.84496C31.6398 6.68227 32.2379 6.4605 32.4785 6.34574C32.6328 6.27212 32.5986 6.27424 32.3931 6.35099C32.0897 6.46431 31.42 6.63629 30.8119 6.75707C29.3554 7.04628 27.8347 7.16048 25.7426 7.13775C24.0227 7.11908 23.6893 7.12137 23.0366 7.15631C21.2027 7.25444 19.9075 7.5638 18.8077 8.16644L18.5441 8.31089L18.769 8.2056C19.9397 7.65755 21.1996 7.42901 22.9844 7.44098C23.3711 7.44356 24.6354 7.49612 25.8558 7.56035C27.5846 7.65134 29.3718 7.40901 31.132 6.84496ZM27.8974 6.10732C27.9188 6.11342 27.9625 6.11495 27.9945 6.11069C28.0311 6.10581 28.0382 6.09887 28.0136 6.09189C27.9922 6.08579 27.9486 6.08426 27.9166 6.08852C27.88 6.0934 27.8729 6.10034 27.8974 6.10732ZM26.4285 6.10496C27.0738 6.10971 27.659 6.11171 27.7289 6.10936C27.9602 6.10162 27.7854 6.08254 27.2533 6.05743C26.9646 6.04383 26.5049 6.02059 26.2318 6.00584C24.9152 5.93463 23.6303 5.9524 23.1129 6.04893C22.7875 6.10961 22.2268 6.24852 22.1533 6.28663C22.1363 6.29543 22.269 6.28157 22.4482 6.25583C23.3497 6.12635 24.3233 6.08943 26.4285 6.10496ZM31.3677 8.28487C31.7633 8.06884 31.8909 7.96035 32.1702 7.60271C32.2074 7.55508 32.2354 7.51576 32.2325 7.51538C32.2295 7.51499 32.1054 7.58119 31.9566 7.66252C31.4709 7.92805 30.8238 8.08777 29.8108 8.19206C28.5876 8.31798 27.4315 8.3159 24.9194 8.18317C23.0913 8.08661 22.0979 8.07253 21.0445 8.12832C19.8559 8.19125 19.1199 8.33527 18.4804 8.63009C18.1774 8.76976 18.041 8.85447 18.3011 8.74135C18.843 8.50575 19.5611 8.34793 20.5788 8.24068C21.7203 8.12038 22.4387 8.1038 23.3504 8.17668C24.3407 8.25583 24.7926 8.33077 26.0707 8.62777C27.0811 8.86257 27.2325 8.89423 27.6192 8.95169C28.6571 9.10586 29.7382 8.98161 30.7315 8.59403C30.8664 8.54138 31.1527 8.40226 31.3677 8.28487ZM18.4058 4.48268C18.4848 4.40423 18.5625 4.3215 18.5783 4.29885C18.6002 4.26756 18.5933 4.2537 18.5496 4.24123C18.5113 4.23033 18.3965 4.28062 18.2077 4.39099C17.7705 4.64667 17.502 4.97927 17.2713 5.55097C17.0999 5.97579 17.0151 6.46611 16.9584 7.36006C16.8901 8.43694 16.8732 8.56197 16.7197 9.13224C16.6413 9.4232 16.5884 9.64953 16.602 9.63518C16.6372 9.59798 16.8553 9.08644 16.9956 8.7118C17.1319 8.34794 17.2642 7.79979 17.3081 7.41726C17.3246 7.2744 17.3573 6.99148 17.3808 6.78855C17.4044 6.58562 17.451 6.29395 17.4844 6.14039C17.611 5.5579 17.9662 4.91894 18.4058 4.48268ZM17.0818 5.91286C17.2672 5.22218 17.5889 4.71079 18.0439 4.38342C18.1387 4.31518 18.2123 4.25819 18.2073 4.25679C18.1682 4.24565 17.9164 4.36899 17.8155 4.44872C17.5144 4.68664 17.2835 5.0905 17.0266 5.82803C16.804 6.46707 16.6925 7.05201 16.6378 7.86764C16.5833 8.67956 16.3457 9.59754 16.0232 10.2421C16.0062 10.276 16.0469 10.2461 16.1135 10.1754C16.2888 9.98976 16.4589 9.64364 16.6057 9.17444C16.7472 8.72169 16.7917 8.4608 16.8455 7.76558C16.9363 6.59476 16.9702 6.32854 17.0818 5.91286ZM16.1742 5.9714C16.4874 5.43725 17.0625 4.80997 17.5704 4.44858C17.6544 4.38887 17.7202 4.33505 17.7168 4.32901C17.7018 4.30258 17.4329 4.39636 17.3182 4.46806C16.5897 4.92335 15.9473 5.62822 15.56 6.39734C15.3564 6.80163 15.1894 7.29 15.1091 7.71603C14.9784 8.40922 14.9778 8.85179 15.1062 10.1165C15.1496 10.5442 15.1293 10.9106 15.0407 11.3012L14.9629 11.6437L15.0445 11.5345C15.1808 11.3521 15.31 10.9913 15.4757 10.3302C15.6865 9.48899 15.7513 8.97103 15.8066 7.68165C15.8192 7.39016 15.8426 7.04885 15.8586 6.92317C15.8957 6.63323 16.0382 6.20341 16.1742 5.9714ZM17.7997 6.39911C18.0728 5.39787 18.1827 5.02867 18.2513 4.88297C18.3011 4.77704 18.3373 4.68906 18.3317 4.68747C18.315 4.68272 18.1549 4.89103 18.029 5.08132C17.7253 5.54072 17.5389 6.11867 17.4746 6.80113C17.4292 7.28371 17.3603 7.77475 17.3091 7.98114C17.274 8.12244 17.2755 8.12064 17.3557 7.92491C17.4013 7.81366 17.6011 7.12704 17.7997 6.39911ZM29.9537 9.2028C30.2559 9.08527 31.0497 8.65648 31.2036 8.52758C31.2486 8.4899 31.2815 8.45883 31.2767 8.4585C31.2719 8.45815 31.1669 8.50478 31.0433 8.56209C30.5551 8.78862 29.8969 8.97737 29.3469 9.04856C28.5042 9.15765 27.7441 9.08279 26.3034 8.74882C24.9872 8.44376 24.0923 8.3089 23.0589 8.25997C22.5708 8.23687 21.8724 8.23653 21.8852 8.25943C21.8893 8.26684 22.0379 8.28877 22.2153 8.30819C22.6265 8.35316 23.2877 8.4567 23.916 8.5745C24.4237 8.66966 25.4656 8.95243 26.9115 9.38748C27.828 9.66321 27.9996 9.68454 28.5416 9.59014C29.0109 9.50839 29.5434 9.3623 29.9537 9.2028ZM15.4741 6.42939C15.864 5.67292 16.3891 5.04023 17.0241 4.56164C17.0798 4.51964 17.1193 4.48356 17.1119 4.48145C17.0703 4.46963 16.4957 4.73355 16.2332 4.88503C15.8842 5.08641 15.7993 5.1752 15.578 5.57068C15.3016 6.06458 15.2136 6.28376 15.0391 6.91262C14.8653 7.53931 14.8281 7.77598 14.813 8.35014C14.8043 8.6812 14.8389 9.24248 14.8818 9.46542C14.9776 9.96376 14.9995 10.5848 14.9406 11.1339L14.9142 11.3805L14.9744 11.1153C15.0514 10.7768 15.0646 10.3013 15.0136 9.70358C14.9564 9.03319 14.9422 8.57555 14.9675 8.21927C14.9872 7.94233 15.0108 7.82626 15.1497 7.32525C15.2953 6.79965 15.3235 6.72158 15.4741 6.42939ZM16.9245 5.7975C17.0697 5.39546 17.2718 4.94332 17.3923 4.75108C17.4313 4.68883 17.459 4.63672 17.4539 4.63527C17.4488 4.63381 17.3437 4.72118 17.2203 4.82943C16.7961 5.20151 16.4153 5.67806 16.1962 6.11099C15.9625 6.57265 15.9071 6.89499 15.8454 8.15184C15.7924 9.23217 15.7068 9.88078 15.5159 10.6482L15.4569 10.8856L15.6216 10.5654C16.1995 9.44209 16.2898 9.13157 16.5502 7.37093C16.6406 6.75941 16.7633 6.24372 16.9245 5.7975ZM15.0286 6.6021C15.1612 6.20629 15.373 5.71442 15.5145 5.47382C15.5555 5.404 15.5849 5.34563 15.5797 5.34415C15.5539 5.33683 15.2276 5.6827 15.0845 5.86892C14.5436 6.5727 14.2454 7.48268 14.2555 8.39779C14.2567 8.50683 14.2923 8.73962 14.3346 8.9151C14.4875 9.55 14.6018 10.3631 14.6034 10.8262C14.6044 11.145 14.537 11.6504 14.4373 12.0706C14.3812 12.307 14.3434 12.5027 14.3533 12.5055C14.4262 12.5263 14.6582 11.947 14.7696 11.4664C14.9122 10.8508 14.9163 10.3836 14.7878 9.41729C14.6457 8.34944 14.7151 7.53836 15.0286 6.6021ZM26.8298 9.6337L26.2152 9.42567C25.2641 9.10379 24.3436 8.85774 23.5555 8.71482C23.1176 8.63539 22.177 8.5134 21.8006 8.48721C20.5905 8.40302 19.5657 8.50895 18.7302 8.80464C18.4757 8.89472 17.9232 9.13863 17.7904 9.21949C17.7067 9.27048 17.7402 9.26595 17.9861 9.19296C18.9763 8.89923 20.5094 8.71156 21.6582 8.74342C22.4817 8.76625 22.8525 8.81322 23.3623 8.9593C23.6369 9.03795 23.9804 9.15734 24.231 9.26124C24.8448 9.51565 25.5143 9.70186 25.9082 9.72776C26.2602 9.75093 26.5328 9.73284 26.7066 9.67484L26.8298 9.6337ZM26.1367 10.3223C26.9151 10.4435 27.7543 10.2119 27.7422 9.87925C27.7399 9.81748 27.7388 9.81703 27.5543 9.79853C27.4869 9.79176 27.3254 9.75694 27.1955 9.72113C26.976 9.66059 26.9537 9.65954 26.8778 9.70615C26.5105 9.93169 25.3174 9.78073 24.4047 9.39325C23.4705 8.99662 22.8329 8.87659 21.6102 8.86707C19.9509 8.85417 18.2001 9.14264 17.454 9.55184L17.2481 9.66479L17.4228 9.58922C17.9088 9.37899 18.4121 9.24468 19.1257 9.13481C20.1895 8.97097 20.8651 8.91574 21.5921 8.93308C22.6122 8.95742 23.0995 9.08494 24.2556 9.63003C25.2887 10.1172 25.6329 10.2438 26.1367 10.3223ZM13.7765 9.53201C13.6527 8.4971 13.7024 7.94194 13.9805 7.2514C14.032 7.12366 14.1011 6.90685 14.134 6.76966L14.1939 6.5202L14.0202 6.72316C13.9247 6.83478 13.7854 7.02306 13.7106 7.14154C13.5829 7.34397 13.5661 7.38776 13.433 7.86722C13.2971 8.35656 13.291 8.39183 13.2838 8.72826C13.2715 9.29962 13.3268 9.79758 13.5056 10.7255C13.6932 11.6987 13.7602 12.3805 13.7242 12.9501L13.7077 13.2112L13.7526 13.0545C13.9669 12.3055 13.9745 11.1877 13.7765 9.53201ZM21.8613 9.8724C22.1834 9.76888 22.6507 9.56617 22.8818 9.42978L23.0139 9.35182L22.8587 9.31011C22.5161 9.21802 21.2857 9.32803 20.1338 9.55376C17.6266 10.0451 16.2304 10.67 15.5716 11.5959L15.4547 11.7602L15.5671 11.6793C16.0864 11.3054 16.8243 10.9962 17.7736 10.7547C18.2384 10.6364 19.3268 10.4068 20.6223 10.1538C21.1322 10.0541 21.6898 9.92752 21.8613 9.8724ZM21.5138 10.4392C22.247 10.1516 23.2445 9.59132 23.2849 9.4445C23.2871 9.43656 23.2566 9.42142 23.2172 9.4108C23.1638 9.39645 23.0752 9.42939 22.8698 9.54C22.5261 9.72513 22.1079 9.89672 21.7841 9.98552C21.6476 10.023 20.8559 10.1902 20.0248 10.3572C17.866 10.791 17.2364 10.9513 16.584 11.2337C16.0947 11.4455 15.587 11.7702 15.2692 12.0745C15.2198 12.1218 15.2326 12.1177 15.3159 12.0595C15.5312 11.9089 15.9658 11.6799 16.2326 11.5765C16.8274 11.3457 17.4278 11.2199 18.6727 11.0651C20.1979 10.8755 20.6633 10.7729 21.5138 10.4392ZM16.403 10.713C17.3498 10.0483 19.403 9.49122 21.7841 9.25283C22.3807 9.19311 22.414 9.16825 21.9424 9.13493C21.2237 9.08415 20.0561 9.17894 18.9792 9.37547C18.1489 9.52701 17.5691 9.7292 16.9533 10.0821C16.6466 10.2578 16.5859 10.3052 16.4259 10.4933C16.3265 10.6102 16.2055 10.7601 16.1571 10.8264L16.0691 10.9469L16.1409 10.8967C16.1804 10.8691 16.2984 10.7865 16.403 10.713ZM13.4389 7.61517C13.5118 7.37948 13.5976 7.14523 13.6295 7.09461C13.733 6.93025 13.6759 6.96981 13.4826 7.19633C13.1394 7.59851 13.1177 7.63476 13.0315 7.94794C12.9009 8.4231 12.8701 8.93873 12.9153 9.89394C12.9495 10.6152 12.9944 11.0289 13.1256 11.8314C13.3073 12.9427 13.3502 13.4285 13.311 13.9305C13.3002 14.0675 13.2992 14.1818 13.3085 14.1845C13.3382 14.1931 13.4976 13.7113 13.5368 13.4945C13.6641 12.7907 13.625 12.0075 13.3893 10.5364C13.1679 9.15462 13.1798 8.45237 13.4389 7.61517ZM22.7259 10.4121C22.8571 10.273 23.0094 10.0951 23.0644 10.0169C23.1194 9.93864 23.1618 9.87392 23.1587 9.87302C23.1555 9.87213 23.0653 9.93859 22.9583 10.0207C22.5221 10.3551 21.8194 10.6942 21.0382 10.9473C20.4579 11.1353 20.2047 11.1951 19.2406 11.3713C18.7876 11.4541 18.1781 11.5659 17.8862 11.6196C17.2741 11.7322 16.682 11.8912 16.246 12.0601C15.847 12.2146 15.3031 12.5267 15.0086 12.7703C14.6088 13.101 14.1026 13.6705 14.4132 13.4401C14.6084 13.2954 15.0535 13.0415 15.3427 12.9099C15.9456 12.6356 16.4643 12.4962 17.9782 12.2015C19.8748 11.8322 20.491 11.6352 21.9186 10.9416L22.4874 10.6652L22.7259 10.4121ZM14.0483 8.39527C13.9945 8.11745 13.9737 7.7883 13.9925 7.51117C13.9984 7.42354 13.9982 7.35045 13.9921 7.34871C13.974 7.34357 13.9312 7.52099 13.871 7.85057C13.7477 8.52593 13.7698 9.27962 13.9489 10.508C14.0696 11.3359 14.0559 12.1541 13.9094 12.8648C13.8795 13.0096 13.8624 13.1361 13.8714 13.1459C13.9003 13.1776 14.0535 12.7318 14.2075 12.1676C14.3342 11.7036 14.3613 11.568 14.3809 11.3021C14.4171 10.8092 14.3826 10.3647 14.2508 9.62235C14.1838 9.24513 14.1225 8.87523 14.1146 8.80034C14.1068 8.72546 14.0769 8.54318 14.0483 8.39527ZM18.8173 11.3386C20.4147 11.0431 21.3765 10.7321 22.2577 10.2261C22.431 10.1265 22.567 10.0442 22.5599 10.0432C22.5528 10.0421 22.4093 10.1102 22.2411 10.1945C21.2702 10.6807 20.2545 10.9499 18.6007 11.1592C17.8062 11.2597 17.3284 11.3437 16.9386 11.4512C16.0338 11.7009 15.172 12.1948 14.8534 12.6464C14.7328 12.8173 14.7344 12.8171 14.9789 12.6271C15.2372 12.4263 15.8076 12.1147 16.1896 11.9658C16.6001 11.8057 17.2115 11.6355 17.7016 11.5449L18.8173 11.3386ZM12.9556 11.2061C12.8018 10.199 12.759 9.08286 12.8486 8.4156C12.8643 8.29874 12.8887 8.14922 12.9027 8.08333L12.9283 7.96355L12.8682 8.0594C12.6073 8.4761 12.5153 8.80287 12.4986 9.37255C12.4835 9.88704 12.5336 10.3232 12.7356 11.438C12.8364 11.9947 12.9351 12.5918 12.9548 12.7649C13.0261 13.3904 13.0264 14.0894 12.9556 14.6488C12.9279 14.8678 12.929 14.8758 12.976 14.7958C13.0033 14.7492 13.0647 14.5444 13.1124 14.3405C13.2801 13.6235 13.2585 13.1897 12.9556 11.2061ZM20.085 11.9375C20.7087 11.8087 21.3435 11.591 21.5631 11.4306C21.6435 11.3719 21.7047 11.3227 21.6991 11.3211C21.6936 11.3195 21.5542 11.376 21.3893 11.4466C21.2245 11.5172 20.8253 11.6608 20.5022 11.7658C20.1791 11.8708 19.8885 11.9658 19.8564 11.9768C19.8242 11.9878 19.9271 11.9701 20.085 11.9375ZM12.5474 11.0939C12.3876 10.2685 12.3362 9.79826 12.3563 9.34373C12.3607 9.24634 12.3613 9.16158 12.3579 9.1554C12.3544 9.14919 12.2596 9.37445 12.1472 9.65592C11.9744 10.0885 11.9379 10.2024 11.9114 10.3915C11.8411 10.892 11.8878 11.3704 12.1448 12.7805C12.3468 13.8884 12.3927 14.8809 12.283 15.7657C12.2586 15.9631 12.2348 16.1427 12.2302 16.1647C12.2255 16.1867 12.2829 16.0886 12.3575 15.9468C12.3967 15.8725 12.4252 15.8186 12.449 15.7625C12.5137 15.61 12.5431 15.4419 12.6557 14.8047C12.7717 14.1487 12.812 13.3861 12.7692 12.6608C12.7402 12.1707 12.6975 11.8685 12.5474 11.0939ZM20.3307 12.2448C20.5661 12.1442 20.7015 12.0596 21.0843 11.7743C21.1243 11.7446 21.1111 11.7346 21.0653 11.7599C20.9568 11.82 20.2209 11.9969 19.3134 12.1811C17.8448 12.4793 17.3305 12.6215 16.4539 12.9717C15.1688 13.4851 14.139 14.2536 13.3682 15.2745C13.2058 15.4896 12.984 15.8635 12.9528 15.9751C12.9467 15.9966 13.0319 15.9192 13.1421 15.8031C13.435 15.4943 14.0489 14.9655 14.4234 14.6995C15.0019 14.2886 15.7918 13.8689 16.538 13.5759C16.7097 13.5084 17.3764 13.2806 18.0194 13.0695C19.2208 12.6752 19.8448 12.4526 20.3307 12.2448ZM15.3978 10.9558C15.3906 10.9866 15.3951 10.9946 15.4091 10.9761C15.4218 10.9593 15.4271 10.9365 15.4208 10.9253C15.4146 10.9142 15.4042 10.9279 15.3978 10.9558ZM18.9836 12.9732C19.2872 12.8537 19.6289 12.6989 20.2121 12.4166C20.3853 12.3327 20.2951 12.3573 20.0178 12.4696C19.8706 12.5292 19.0992 12.7922 18.3036 13.0541C17.508 13.3159 16.7719 13.565 16.6678 13.6077C15.349 14.148 14.6432 14.5593 13.8476 15.2513C13.258 15.7641 12.5879 16.5588 12.5726 16.7636C12.5708 16.7867 12.636 16.718 12.7173 16.6108C13.2049 15.9684 14.029 15.1926 14.78 14.669C15.6511 14.0616 16.4566 13.6981 17.6247 13.3853C18.5524 13.1369 18.6192 13.1166 18.9836 12.9732ZM19.3214 13.1868C19.4832 13.1069 19.5654 13.0385 19.885 12.7177C19.9168 12.6858 19.8834 12.6982 19.6764 12.7952C19.1623 13.0362 18.5322 13.2574 17.9724 13.3934C16.8263 13.6718 16.0578 13.9796 15.2445 14.4859C14.6707 14.843 14.4862 14.9776 14.0412 15.3634C13.4605 15.8669 12.8668 16.5567 12.3793 17.2942C12.1045 17.7098 12.0317 17.8754 12.2579 17.5702C13.3174 16.1405 14.7239 14.9534 16.1021 14.3255C16.6937 14.056 16.9967 13.9463 18.1121 13.5978C18.6763 13.4215 19.2205 13.2365 19.3214 13.1868ZM11.9181 12.0243C11.8677 11.7305 11.8181 11.3034 11.8077 11.0752C11.7973 10.8471 11.7891 10.616 11.7894 10.5617L11.7899 10.463L11.7213 10.5931C11.5562 10.9059 11.5531 11.1677 11.7043 12.0057C11.827 12.6854 11.8994 13.2143 11.9919 14.1075C12.0784 14.9427 12.083 15.6648 12.006 16.3126C11.9662 16.6477 11.9641 16.6968 11.9901 16.6821C12.0111 16.6701 12.1924 15.7225 12.227 15.4438C12.2579 15.1951 12.27 14.672 12.2521 14.3639C12.2237 13.8753 12.1666 13.4752 11.9181 12.0243ZM17.9152 12.4077C18.059 12.373 18.178 12.3402 18.1795 12.3347C18.1803 12.3317 18.1851 12.3286 18.1847 12.3269C18.1829 12.3203 18.099 12.3361 17.3596 12.466C16.2948 12.653 15.3972 12.9658 14.8305 13.3472C14.3623 13.6623 13.9615 14.0858 13.7145 14.526C13.6207 14.6934 13.5313 14.8522 13.516 14.8789C13.5007 14.9056 13.5776 14.8348 13.687 14.7216C14.433 13.9493 15.241 13.3941 16.2564 12.9563C16.6099 12.8038 17.5185 12.5034 17.9152 12.4077ZM11.6226 12.1236C11.5766 11.8698 11.5309 11.59 11.521 11.5018C11.5111 11.4135 11.5037 11.2597 11.5046 11.1599C11.5061 10.9968 11.5017 10.9832 11.4614 11.0257C11.3958 11.0948 11.2405 11.6843 11.2189 11.9459C11.1763 12.4623 11.227 12.7942 11.505 13.8189C11.6271 14.2687 11.7537 14.7875 11.7865 14.9719C11.8866 15.5358 11.8944 16.1573 11.8096 16.8214L11.7748 17.0939L11.8224 16.8674C11.9545 16.2385 12.0018 15.4872 11.955 14.7593C11.9219 14.2442 11.7274 12.7018 11.6226 12.1236ZM17.2418 14.5742C18.1725 14.1775 18.8663 13.8162 19.036 13.6398C19.0943 13.5793 19.1381 13.5296 19.1333 13.5296C19.1285 13.5295 19.021 13.5628 18.8943 13.6035C18.7676 13.6443 18.4001 13.7439 18.0777 13.8248C16.9673 14.1035 16.4676 14.2972 15.6622 14.7613C15.062 15.107 14.7169 15.3476 14.2588 15.7397C13.5288 16.3647 12.8284 17.1596 12.0621 18.2332C11.9289 18.4198 11.8223 18.5768 11.8253 18.5821C11.8283 18.5874 11.9619 18.4548 12.1222 18.2874C12.7285 17.6542 13.6392 16.8155 14.2098 16.3647C14.8112 15.8896 15.66 15.3186 16.1304 15.0726C16.2708 14.9992 16.7709 14.7749 17.2418 14.5742ZM11.4003 13.7846C11.2214 13.174 11.1022 12.4165 11.1198 12.002C11.1238 11.9058 11.1487 11.7127 11.1751 11.5727L11.2231 11.3181L11.1007 11.4666C11.0011 11.5874 10.9633 11.6611 10.8971 11.8635C10.7062 12.4468 10.7401 12.8646 11.1088 14.4761C11.2878 15.2579 11.3468 15.6121 11.4105 16.2851C11.4529 16.7333 11.4908 17.4182 11.4871 17.6684C11.4853 17.7923 11.6278 17.211 11.6759 16.898C11.8325 15.8805 11.7539 14.9917 11.4003 13.7846ZM10.8515 13.7622C10.6579 12.7802 10.645 12.2324 10.8059 11.8359C10.8344 11.7657 10.853 11.7069 10.8472 11.7053C10.8384 11.7028 10.5036 12.0056 10.4289 12.0837C10.4158 12.0974 10.3693 12.1708 10.3256 12.2468L10.246 12.3851L10.3194 12.637C10.4357 13.0357 10.8852 14.2736 10.9733 14.4376C10.9832 14.4559 10.9284 14.152 10.8515 13.7622ZM17.2412 15.5121C17.8098 15.0961 18.3805 14.5585 18.6327 14.2014C18.7141 14.086 18.7792 13.9917 18.7771 13.9919C18.7751 13.992 18.663 14.0501 18.5281 14.1209C18.3931 14.1917 18.0496 14.3443 17.7646 14.4599C16.8899 14.8148 16.4996 14.9987 15.9381 15.3204C14.6455 16.0611 13.7219 16.7926 12.5217 18.0264C12.0046 18.558 11.507 19.0914 11.4981 19.1238C11.4937 19.14 11.5797 19.0709 11.6894 18.9704C12.3619 18.3537 13.1821 17.8339 15.1974 16.747C16.2041 16.2042 16.7281 15.8876 17.2412 15.5121ZM9.99778 13.5662C9.92404 13.264 9.87404 12.8821 9.87688 12.6432C9.87806 12.5426 9.90385 12.3403 9.93416 12.1936C9.98526 11.9462 9.98531 11.9319 9.93461 11.9961C9.78753 12.1823 9.63025 12.6773 9.59145 13.0759C9.53602 13.6456 9.62438 14.1633 9.98447 15.3791C10.6574 17.651 10.7898 18.272 10.7902 19.1582L10.7903 19.3548L10.8516 19.0899C10.9485 18.6714 10.9797 17.8433 10.9234 17.1855C10.8598 16.443 10.7348 15.8691 10.4492 15.0086C10.1402 14.0777 10.0603 13.8224 9.99778 13.5662ZM10.3451 13.2657C10.2642 13.0692 10.1762 12.8294 10.1494 12.7329C10.1227 12.6364 10.0925 12.4395 10.0825 12.2952C10.0653 12.05 10.0621 12.0399 10.033 12.1404C9.99011 12.288 9.95563 12.67 9.96494 12.8941C9.98285 13.3252 10.1688 14.033 10.4185 14.6208C10.8976 15.7485 11.1298 17.1071 11.0637 18.3957C11.0489 18.6837 11.0711 18.7425 11.1232 18.5532C11.1727 18.373 11.2395 17.7176 11.2491 17.3161C11.2649 16.6624 11.2141 16.1071 11.075 15.4124C10.9586 14.8309 10.8123 14.4006 10.3451 13.2657ZM13.6877 13.3184C13.6763 13.3618 13.6782 13.3779 13.6918 13.3543C13.7054 13.3307 13.7146 13.2953 13.7124 13.2755C13.7102 13.2557 13.699 13.2751 13.6877 13.3184ZM17.6901 15.5714C17.9664 15.3044 18.0371 15.2198 18.1357 15.0378C18.2001 14.9188 18.2484 14.8135 18.243 14.8039C18.2376 14.7942 18.2295 14.7996 18.225 14.8158C18.2122 14.8627 17.5888 15.3906 17.2966 15.6021C16.8435 15.93 16.2745 16.2695 15.3359 16.7718C14.0053 17.484 12.9465 18.0921 12.5977 18.3445C12.2498 18.5963 11.8488 18.9395 11.5545 19.2374C11.3217 19.4729 11.2867 19.5322 11.4781 19.3667C11.9459 18.962 12.6945 18.5387 13.9584 17.9639C15.0965 17.4464 15.5171 17.2356 15.9097 16.9861C16.5661 16.5689 17.0827 16.1584 17.6901 15.5714ZM9.87665 15.3118C9.68091 14.5932 9.56906 14.0806 9.52829 13.7157C9.51216 13.5713 9.50018 13.3392 9.50169 13.1999L9.50439 12.9466L9.45258 13.1302C9.22604 13.9329 9.27387 14.8924 9.59448 15.9773C9.70773 16.3604 9.73889 16.4501 10.0874 17.395C10.441 18.354 10.5479 18.7254 10.6031 19.1871C10.6379 19.478 10.6458 19.4557 10.6492 19.0573C10.6554 18.3266 10.5707 17.8417 10.2216 16.6094C10.1282 16.2801 10.05 15.9912 10.0477 15.9676C10.0454 15.9439 9.96845 15.6488 9.87665 15.3118ZM16.2843 17.4027C16.9794 16.8984 17.575 16.263 17.7672 15.8207C17.8182 15.7032 17.8584 15.6034 17.8564 15.5988C17.8545 15.5942 17.7389 15.693 17.5995 15.8184C16.5396 16.7716 15.5351 17.3964 13.9696 18.076C12.5111 18.7092 11.9841 19.0222 11.4484 19.5733C11.2674 19.7595 11.1027 19.9848 11.1221 20.0196C11.1248 20.0243 11.2092 19.9597 11.3097 19.8761C11.5571 19.6703 12.0136 19.3788 12.328 19.2258C12.7266 19.0319 12.9631 18.9345 13.8058 18.6177C15.1355 18.1177 15.6386 17.8711 16.2843 17.4027ZM9.73195 16.7935C9.23015 15.5638 9.0887 14.9883 9.10498 14.2426C9.10824 14.0936 9.10736 13.9654 9.10305 13.9576C9.08853 13.9317 9.00873 14.131 8.95444 14.3288C8.87678 14.6117 8.87619 14.8398 8.95205 15.2458C9.02291 15.6249 9.17484 16.0482 9.53644 16.8738C9.92681 17.765 10.2076 18.6313 10.3448 19.368C10.4274 19.8114 10.4399 19.8032 10.4189 19.3197C10.3889 18.6287 10.2051 17.9531 9.73195 16.7935ZM16.3659 18.2033C16.6723 18.019 16.82 17.8855 17.0835 17.5548L17.2939 17.2908L17.523 16.4019L17.3077 16.6386C16.5407 17.4823 15.4684 18.1475 14.0971 18.6305C13.8328 18.7235 13.4798 18.8485 13.3124 18.9082C12.564 19.1751 11.9743 19.4758 11.5862 19.7886C11.2992 20.0199 10.9654 20.3869 10.8997 20.5435L10.8468 20.6697L11.0174 20.4947C11.2852 20.22 11.6829 19.9256 12.0623 19.7213C12.6433 19.4084 13.2038 19.2091 14.3418 18.911C15.5534 18.5935 15.9447 18.4567 16.3659 18.2033ZM15.6287 19.0544C16.7853 18.5927 17.4735 18.0056 17.7096 17.2796C17.7704 17.0925 17.7871 17.0122 17.7664 17.0063C17.7502 17.0017 17.7313 17.0186 17.7243 17.0437C17.699 17.1346 17.2057 17.8326 17.07 17.9696C16.5834 18.4605 15.8967 18.7727 14.5359 19.1216C13.87 19.2923 12.9738 19.5831 12.5535 19.765C11.9592 20.022 11.2831 20.4651 10.9693 20.8033C10.8108 20.9741 10.6004 21.2685 10.5784 21.3502C10.5699 21.3818 10.6275 21.3277 10.7065 21.2299C11.0592 20.7929 11.7265 20.3382 12.3946 20.0796C12.5655 20.0135 13.0905 19.8451 13.5612 19.7054C14.8159 19.333 15.3596 19.1618 15.6287 19.0544ZM15.7175 19.2525C16.3272 19.0262 16.8957 18.6488 17.2261 18.251C17.3751 18.0718 17.3859 18.0266 17.2435 18.1789C16.9609 18.4809 16.3996 18.8186 15.7675 19.0668C15.3273 19.2397 14.289 19.589 13.5457 19.8143C12.7843 20.0451 12.2649 20.252 11.8322 20.4968C11.4232 20.7282 11.1679 20.926 10.9115 21.2104C10.644 21.5071 10.6429 21.5386 10.9075 21.3222C11.3493 20.961 11.8206 20.6568 12.3219 20.4093C12.6708 20.2371 13.6418 19.8422 13.6862 19.8545C13.6983 19.8579 13.7472 19.8465 13.7949 19.8292C13.8425 19.812 14.2209 19.7025 14.6358 19.5859C15.0507 19.4693 15.5375 19.3193 15.7175 19.2525ZM10.067 20.236C9.93432 19.2366 9.59642 18.3243 9.13041 17.7074C8.93186 17.4445 8.93139 17.459 9.12653 17.8248C9.4218 18.3783 9.60673 18.9139 9.80224 19.7819C9.91584 20.2863 9.9642 20.7215 9.95525 21.1587L9.9493 21.4481L10.0587 21.16C10.1659 20.8777 10.1675 20.8687 10.1399 20.7226C10.1244 20.6405 10.0916 20.4215 10.067 20.236ZM11.687 21.4029C12.5951 20.8837 13.5531 20.5217 14.6307 20.2907C14.9336 20.2257 15.0037 20.2021 14.9431 20.1856C14.859 20.1625 14.5493 20.1706 14.3369 20.2015C13.977 20.2537 13.0792 20.5283 12.618 20.727C11.952 21.0141 11.1669 21.4726 10.6025 21.9039L10.3016 22.1339L10.1561 22.5624L10.3326 22.3895C10.7152 22.0145 11.0727 21.7541 11.687 21.4029ZM7.88392 30.0836C7.99428 29.9398 8.09823 29.7974 8.11495 29.7672C8.14127 29.7196 8.13507 29.7094 8.06846 29.6905C7.91963 29.6481 7.83692 29.7571 7.66294 30.2248C7.52476 30.5962 7.51816 30.6265 7.60926 30.4713C7.64998 30.4018 7.77358 30.2274 7.88392 30.0836Z" fill="url(#paint0_linear_821_2043)"/>
<path fill-rule="evenodd" clip-rule="evenodd" d="M27.8675 2.20025C27.8784 2.19466 27.8855 2.19104 27.8851 2.18864L27.8675 2.20025Z" fill="url(#paint1_linear_821_2043)"/>
<path d="M21.564 6.28161C21.5469 6.29037 21.3477 6.37585 21.1212 6.4716C19.472 7.16879 17.7378 8.57866 16.2096 10.4645C14.2603 12.8702 12.2484 16.4959 10.845 20.1327C10.6005 20.7663 9.53562 23.7189 9.24273 24.5754C9.00364 25.2745 8.26159 27.8963 8.1514 28.4314C8.05079 28.9199 8.02827 29.2407 8.07963 29.4537L8.11037 29.5812L8.02119 29.5877C7.90545 29.5961 7.82426 29.6775 7.69614 29.9136L7.59203 30.1054L7.72948 29.5234C7.8934 28.8292 8.74924 25.8135 9.04179 24.8994C10.5108 20.3088 12.1941 16.4529 14.0786 13.3624C16.2254 9.84161 18.327 7.71615 20.783 6.58202C21.0807 6.44453 21.7409 6.19059 21.564 6.28161Z" fill="url(#paint2_linear_821_2043)"/>
<path d="M5.16477 33.7355C4.95823 33.7348 4.85875 33.4991 5.00467 33.3562C5.15057 33.2133 5.39009 33.3118 5.39021 33.5147C5.39026 33.5872 5.37097 33.6434 5.3334 33.6802C5.29583 33.717 5.23858 33.7358 5.16477 33.7355Z" fill="url(#paint3_linear_821_2043)"/>
<path d="M1.69126 34.1983C1.69124 34.1583 1.70658 34.1106 1.72535 34.0922C1.8068 34.0124 2.00422 34.0899 2.00429 34.2018C2.00433 34.2747 1.92595 34.339 1.8373 34.3386C1.73975 34.3383 1.69132 34.2917 1.69126 34.1983Z" fill="url(#paint4_linear_821_2043)"/>
<path d="M2.1482 36.935C2.14818 36.9014 2.17598 36.8449 2.20999 36.8094C2.244 36.7739 2.30161 36.745 2.33801 36.7451C2.49238 36.7457 2.57204 36.9447 2.46129 37.0532C2.43001 37.0838 2.3724 37.1088 2.33327 37.1086C2.24554 37.1083 2.14825 37.017 2.1482 36.935Z" fill="url(#paint5_linear_821_2043)"/>
<path d="M0.860891 41.3401C0.878575 41.0273 0.886301 41.0033 0.990783 40.9371C1.04455 40.903 1.11926 40.8816 1.16881 40.886C1.29977 40.8975 1.38246 41.0791 1.38214 41.3543C1.38187 41.5742 1.37696 41.5912 1.10276 42.319C0.961268 42.6946 0.882836 42.7796 0.678603 42.7787C0.52488 42.7781 0.374356 42.7019 0.344564 42.6098C0.310667 42.5049 0.356285 42.4145 0.539886 42.223C0.703751 42.052 0.724248 42.0164 0.783508 41.8004C0.819115 41.6706 0.853936 41.4635 0.860891 41.3401Z" fill="url(#paint6_linear_821_2043)"/>
<path fill-rule="evenodd" clip-rule="evenodd" d="M8.14964 32.0663C8.43993 31.9396 8.88525 31.7942 9.14542 31.7413C9.40995 31.6874 9.6175 31.7039 9.79367 31.7925C10.0175 31.9051 10.1711 32.0429 10.2678 32.2176C10.3355 32.3399 10.35 32.4007 10.3525 32.5708C10.3549 32.7415 10.3627 32.7735 10.3981 32.7598C10.6537 32.6612 11.0323 32.5637 11.5647 32.4594C11.9168 32.3904 12.3367 32.3021 12.4979 32.2632C12.8885 32.1688 12.9637 32.1852 13.1049 32.3949C13.1617 32.4793 13.4293 32.9204 13.6996 33.375C13.9698 33.8297 14.3641 34.4728 14.5758 34.8042C15.2023 35.7852 15.4173 36.1396 15.6642 36.5979L15.6937 36.6527C15.8177 36.8823 15.8922 37.0202 15.8993 37.1615C15.9099 37.374 15.7678 37.594 15.4118 38.145L15.3554 38.2323C14.8013 39.091 14.1279 40.0394 13.7217 40.5333C13.3324 41.0067 12.9598 41.419 12.8233 41.5277C12.5439 41.7501 12.0242 41.8827 10.8447 42.0324C9.60832 42.1894 7.79549 42.3265 7.41336 42.2919C7.15026 42.2681 7.10622 42.2302 6.77948 41.7454C6.49645 41.3255 6.29036 40.9801 5.62381 39.8089C5.4628 39.526 5.076 38.8739 4.76421 38.3598C4.28205 37.5648 4.19736 37.4086 4.1973 37.3141C4.19724 37.2154 4.22175 37.1758 4.41802 36.9573C4.53948 36.8221 4.83187 36.4858 5.06781 36.2098C5.48873 35.7174 5.69717 35.5041 5.8574 35.4014L5.93787 35.3499L5.78157 35.2717C5.53096 35.1463 5.39665 34.9576 5.32235 34.6264L5.30563 34.5519L5.12772 34.591C4.66029 34.694 4.19984 35.0419 4.0208 35.4275C3.94079 35.5999 3.9297 35.658 3.90727 36.0238C3.87875 36.4891 3.85859 36.5707 3.72323 36.7684C3.4672 37.1424 2.92752 37.2769 2.93633 36.9645C2.93945 36.8546 2.98833 36.7591 3.13063 36.5851C3.27824 36.4045 3.25409 36.2411 3.06083 36.1125C2.93121 36.0262 2.73839 36.0271 2.51634 36.115C1.8878 36.3637 1.29964 37.048 1.17992 37.6699C1.14355 37.8588 1.18595 38.0038 1.3294 38.1811C1.44009 38.3178 1.44274 38.3262 1.42507 38.4808C1.40956 38.6166 1.41439 38.6438 1.45794 38.6664C1.54456 38.7113 1.63183 38.6537 1.75075 38.4732C1.8133 38.3783 1.86444 38.2914 1.86444 38.28C1.86443 38.2687 1.83907 38.2045 1.80806 38.1374C1.70765 37.9198 1.74897 37.6294 1.8909 37.5553C1.96102 37.5186 2.11141 37.5188 2.13451 37.5555C2.16738 37.6079 2.11795 37.6919 2.01913 37.7515C1.88537 37.8323 1.86971 37.917 1.95292 38.1101C2.04724 38.329 2.04332 38.5297 1.94069 38.7357C1.88032 38.8569 1.77629 38.9726 1.49314 39.2335C1.29024 39.4205 1.11943 39.5998 1.11356 39.632C1.05153 39.9727 1.0261 40.0741 0.96506 40.2239C0.874643 40.4458 0.813267 40.5005 0.655247 40.4999C0.426769 40.4991 0.272338 40.2648 0.314712 39.9833C0.325285 39.9131 0.39563 39.7237 0.471058 39.5625C0.641807 39.1976 0.683952 39.0085 0.642988 38.7914C0.603251 38.5807 0.507659 38.4265 0.317246 38.2661C0.0489364 38.04 -0.0393768 37.8275 0.0155439 37.5403C0.0662096 37.2755 0.175414 37.115 0.601263 36.6798C1.03377 36.2378 1.14974 36.0634 1.17344 35.8197C1.1886 35.6636 1.15662 35.6299 1.0385 35.6775C0.933549 35.7199 0.838448 35.6742 0.838392 35.5814C0.838305 35.4348 1.32287 34.9177 1.6719 34.692C1.92501 34.5283 2.23368 34.4 2.58282 34.3135C2.83098 34.2519 2.91397 34.2189 2.96431 34.1615C3.0706 34.0404 3.06086 34.0201 2.79276 33.8044C2.56906 33.6244 2.72872 33.1679 3.09951 32.9272C3.29001 32.8036 3.47888 32.7755 3.63311 32.848C3.82473 32.938 3.83285 33.1053 3.65356 33.2687C3.47401 33.4323 3.44349 33.6014 3.55216 33.8308C3.62747 33.9898 3.75098 34.0969 3.94128 34.1683C4.12279 34.2364 4.57266 34.2321 4.84992 34.1596C5.30743 34.04 5.36885 34.0059 5.68251 33.6973C6.2434 33.1455 7.34424 32.4178 8.14964 32.0663ZM13.1564 32.8667C13.3176 33.2211 13.6327 33.7714 14.0806 34.4809C14.285 34.8046 14.7314 35.5234 15.0727 36.0783C15.5664 36.8809 15.6932 37.1071 15.6934 37.185C15.6939 37.3716 15.4614 37.7678 14.8173 38.6778C14.1674 39.596 13.7219 40.154 13.1397 40.7788C12.9347 40.9989 12.7249 41.2333 12.6736 41.2996C12.5992 41.3957 12.5571 41.4238 12.4664 41.4377C12.4038 41.4473 12.0645 41.5212 11.7124 41.6019C11.3603 41.6827 10.9186 41.7741 10.7308 41.8051C9.8368 41.9527 8.66065 42.077 7.96442 42.0974C7.52082 42.1104 7.42841 42.1058 7.32413 42.0657C7.31547 42.0624 7.30778 42.0599 7.30061 42.0577C7.29468 42.0558 7.2891 42.054 7.28363 42.0519C7.19771 42.0195 7.13707 41.9152 6.12472 40.1754L5.87348 39.7437C5.175 38.5437 4.96525 38.2036 4.71451 37.8643C4.6258 37.7443 4.5374 37.6239 4.51809 37.5968C4.48585 37.5516 4.4974 37.5471 4.66034 37.5422C4.75789 37.5392 4.86972 37.5307 4.90884 37.5233C4.94796 37.5159 5.27448 37.4792 5.63443 37.4417C6.49565 37.3519 7.52569 37.2083 8.28944 37.0715C8.62889 37.0107 9.00909 36.9444 9.13428 36.9244C9.58147 36.8525 9.79179 36.7527 10.0647 36.4826C10.2456 36.3036 10.3915 36.1283 11.1046 35.2329C11.7737 34.3925 12.8293 32.9476 12.9712 32.6777C12.9981 32.6264 13.024 32.5887 13.0285 32.594C13.0331 32.5993 13.0907 32.722 13.1564 32.8667ZM9.48755 37.1198C9.45764 37.1104 9.43318 37.09 9.43317 37.0747C9.43315 37.0432 9.51876 37.0646 9.64264 37.127C9.68742 37.1495 9.71548 37.1543 9.705 37.1377C9.66999 37.0819 9.76215 37.1067 9.89181 37.188C9.96235 37.2322 10.0658 37.3301 10.1217 37.4055C10.1776 37.4809 10.5194 38.0394 10.8813 38.6466C11.2432 39.2537 11.5474 39.7581 11.5573 39.7675C11.5672 39.7768 11.2918 39.2267 10.9454 38.545C10.5989 37.8633 10.3155 37.2912 10.3154 37.2737C10.3154 37.2561 10.3763 37.2977 10.4507 37.366C10.9899 37.8617 11.65 38.1436 12.4003 38.1987L12.6535 38.2172L12.5447 38.2534C12.4435 38.2871 12.3365 38.3792 12.3365 38.4326C12.3366 38.4454 12.365 38.4756 12.3998 38.4997C12.4843 38.5581 12.849 38.5606 12.962 38.5036C13.123 38.4224 13.0984 38.2832 12.917 38.2491C12.8637 38.2391 12.8202 38.2229 12.8202 38.2131C12.8202 38.2032 12.9597 38.1735 13.1303 38.1469C13.6342 38.0684 14.7111 37.765 15.0206 37.6143C15.2138 37.5203 15.3712 37.3703 15.4575 37.1981L15.5274 37.0586L15.5125 37.2263C15.4943 37.4307 15.3685 37.6856 15.0237 38.2168C14.6013 38.8676 14.0842 39.5159 13.1747 40.535C12.7179 41.0469 12.5457 41.198 12.3381 41.2693C12.1342 41.3393 10.6979 41.5558 9.27943 41.7304C8.29855 41.8511 8.119 41.8646 7.84955 41.8376L7.629 41.8154L7.91352 41.7317L7.74277 41.7106C7.64885 41.699 7.53999 41.6767 7.50086 41.661C7.43969 41.6365 7.45164 41.6322 7.58621 41.6309C7.67229 41.63 7.7718 41.6217 7.80733 41.6125C7.8641 41.5978 7.8504 41.5834 7.69429 41.4936C7.33732 41.2885 7.09221 40.982 6.40812 39.8851C6.07298 39.3478 5.74655 38.7714 5.5607 38.3888C5.48434 38.2316 5.37858 38.0577 5.3257 38.0025L5.2296 37.9021L5.49242 37.8977L5.35723 37.853C5.28288 37.8284 5.22203 37.801 5.22202 37.792C5.222 37.758 5.71038 37.6723 6.74992 37.5239C7.77277 37.3779 7.85347 37.3704 8.39468 37.371C8.87921 37.3716 8.98075 37.3791 9.07767 37.4215C9.2285 37.4876 9.49042 37.6446 9.49044 37.6691C9.49044 37.6797 9.42626 37.6642 9.34782 37.6347C9.26938 37.6051 9.17654 37.581 9.14148 37.5812C9.09185 37.5814 9.10703 37.5985 9.21013 37.6585C9.46921 37.8093 9.73892 38.0482 9.58317 37.9889C9.37112 37.9082 9.10343 37.9053 9.03768 37.983C8.95641 38.0789 9.09376 38.159 9.47444 38.2377C9.73553 38.2916 9.86881 38.2747 9.94656 38.1778C10.0819 38.0091 9.98112 37.7846 9.59858 37.4028C9.44517 37.2497 9.32415 37.12 9.3297 37.1145C9.33524 37.1091 9.40108 37.1307 9.47599 37.1625C9.57613 37.205 9.60291 37.2093 9.57705 37.1786C9.55771 37.1557 9.51743 37.1292 9.48755 37.1198ZM10.1354 33.0825C10.2298 32.8026 10.2355 32.5259 10.1501 32.3673C10.1163 32.3044 10.0321 32.1915 9.96306 32.1164L9.83754 31.9798L9.81722 32.0622C9.74122 32.3703 9.17801 32.8936 8.35425 33.4217C7.4278 34.0155 6.51781 34.4244 5.88582 34.5309C5.69367 34.5633 5.67296 34.5719 5.74258 34.5905C5.95202 34.6466 6.54294 34.5332 7.04819 34.34C7.33846 34.229 7.80388 34.0101 8.26741 33.7666L8.56904 33.6081L8.55654 33.7409C8.5411 33.9047 8.62442 34.0438 8.78439 34.1214C8.8496 34.1531 8.89077 34.1929 8.89079 34.2243C8.89084 34.3092 8.68212 34.4512 8.17168 34.7133C8.0118 34.7955 7.8919 34.863 7.90524 34.8633C7.91862 34.8637 8.11705 34.7701 8.34619 34.6553C8.83126 34.4124 9.15337 34.1941 9.5321 33.8517C9.79964 33.6099 9.88618 33.5639 9.78659 33.7165C9.70423 33.8426 9.30002 34.2169 9.09138 34.3602C8.91363 34.4823 8.90103 34.4974 8.93711 34.546C8.99145 34.6192 8.98701 34.6587 8.90541 34.8281C8.8497 34.9438 8.84026 34.9908 8.86163 35.046C8.88882 35.1163 9.02145 35.2035 9.10164 35.2038C9.22056 35.2042 9.80269 34.6973 10.3941 34.0783C10.5687 33.8955 10.7209 33.7553 10.7323 33.7667C10.7862 33.8197 10.454 34.3252 10.1199 34.6988C9.68747 35.1824 8.79758 35.723 7.98773 35.9942C7.57345 36.1329 7.28758 36.1832 6.98625 36.1706C6.70358 36.1586 6.71169 36.2005 6.99641 36.2229C7.37618 36.2529 8.22131 36.016 8.85619 35.7016C9.06699 35.5973 9.25842 35.512 9.28164 35.512C9.30486 35.5121 9.36342 35.54 9.41179 35.574C9.4704 35.6152 9.55525 35.64 9.66609 35.6483C9.80898 35.6589 9.8574 35.6486 10.0094 35.5749C10.2036 35.4807 10.6242 35.1811 11.0731 34.8174C11.3195 34.6177 11.4473 34.478 11.9335 33.8767C12.5448 33.1207 12.7024 32.9131 12.8594 32.6573C12.975 32.4689 12.9812 32.428 12.8991 32.3978C12.7765 32.3528 11.882 32.524 11.2003 32.7229C10.8922 32.8128 10.5857 32.8946 10.5191 32.9046C10.4526 32.9146 10.3983 32.9369 10.3983 32.9542C10.3983 32.9714 10.457 33.0976 10.5287 33.2345C10.6416 33.4501 10.6536 33.4888 10.6185 33.5232C10.5834 33.5576 10.5654 33.5525 10.4842 33.4851C10.4326 33.4423 10.3609 33.3448 10.325 33.2685L10.2596 33.1297L10.2099 33.232C10.1638 33.3269 10.1052 33.3626 10.0768 33.3129C10.0702 33.3014 10.0965 33.1977 10.1354 33.0825ZM9.63946 31.9397C9.67758 31.9995 9.61602 32.1352 9.48384 32.2827C9.39605 32.3807 9.38985 32.3831 9.3689 32.3275C9.3508 32.2795 9.32285 32.2686 9.21557 32.2683C9.04944 32.2677 8.39824 32.4493 7.98062 32.6127C7.6512 32.7417 6.90564 33.09 6.52834 33.2912C6.2421 33.4439 6.36981 33.3371 6.84121 33.0297C7.61052 32.5281 8.27003 32.2026 8.98905 31.9698C9.31367 31.8647 9.58361 31.8522 9.63946 31.9397ZM2.15405 34.8115C2.31986 34.7584 2.43144 34.7077 2.43143 34.6855C2.43137 34.5936 2.13251 34.6621 1.80863 34.8282C1.59222 34.9392 1.13775 35.3266 1.16782 35.3744C1.1768 35.3887 1.25474 35.3373 1.34097 35.2601C1.55991 35.0642 1.82937 34.9155 2.15405 34.8115ZM1.36201 36.1773C1.36993 36.1899 1.34666 36.2622 1.31028 36.3379C1.26367 36.435 1.13215 36.5822 0.863926 36.8377C0.580745 37.1073 0.462786 37.2408 0.401961 37.3605C0.298813 37.5635 0.278564 37.726 0.338777 37.8676C0.392892 37.9949 0.393063 37.9964 0.354675 37.9962C0.305502 37.9961 0.214959 37.7666 0.2142 37.6403C0.21382 37.5755 0.240978 37.4498 0.274561 37.3609C0.327265 37.2213 0.387152 37.1495 0.712479 36.8351C0.919751 36.6348 1.13577 36.3996 1.19254 36.3125C1.29208 36.1599 1.33136 36.1285 1.36201 36.1773ZM6.22402 35.6687L6.15385 35.5791C6.11526 35.5298 6.07198 35.4872 6.05767 35.4843C6.03205 35.4791 5.03165 36.4672 4.84275 36.6843C4.68552 36.865 4.38065 37.2658 4.36027 37.3186C4.34743 37.352 4.36148 37.3796 4.40458 37.4058C4.5064 37.4675 4.92309 37.4212 6.44227 37.1793C8.32441 36.8795 9.34026 36.6981 9.30897 36.6672C9.30168 36.6601 9.09932 36.692 8.85928 36.7382C7.74352 36.9531 6.4605 37.1094 5.17898 37.1866L4.92288 37.2021L5.0618 37.1128C5.14467 37.0597 5.18482 37.019 5.16134 37.0121C5.09807 36.9934 5.05076 36.918 5.05071 36.8357C5.05069 36.7906 5.10625 36.6791 5.18649 36.5634C5.5871 35.9855 5.91999 35.6676 6.12391 35.6684L6.22402 35.6687ZM5.81544 34.9076L5.93176 34.9722L5.93171 34.9024C5.93164 34.7709 6.10193 34.7814 6.19978 34.919C6.24806 34.9868 6.21637 35.0535 6.13607 35.0533C6.05249 35.053 6.14204 35.1051 6.28756 35.1415C6.50671 35.1964 6.51356 35.2314 6.30184 35.2145C6.12975 35.2008 6.12281 35.2024 6.20225 35.2373C6.24922 35.258 6.30577 35.2756 6.32797 35.2764C6.35013 35.2772 6.36044 35.2855 6.35086 35.2949C6.32546 35.3197 6.05007 35.2501 5.91765 35.1853C5.7256 35.0914 5.62867 34.9762 5.53245 34.7275C5.5072 34.6623 5.51209 34.6639 5.60221 34.7501C5.65551 34.8012 5.75148 34.872 5.81544 34.9076ZM7.06639 35.7174C7.15308 35.6869 7.13729 35.6838 6.89564 35.684C6.7492 35.6841 6.58517 35.6744 6.53112 35.6624L6.43288 35.6407L6.51693 35.7278C6.69256 35.91 6.9735 35.9915 7.15595 35.9131L7.25552 35.8704L7.07292 35.8686C6.88038 35.8668 6.86377 35.8482 7.01927 35.8087C7.09967 35.7882 7.09372 35.7866 6.97803 35.7972C6.89969 35.8045 6.84286 35.7982 6.84285 35.7823C6.84284 35.7672 6.87166 35.754 6.90686 35.753C6.94206 35.7519 7.01387 35.7359 7.06639 35.7174Z" fill="url(#paint7_linear_821_2043)"/>
<path d="M47.7202 42.96C46.8136 42.96 45.9069 42.8533 45.0002 42.64C44.1202 42.4267 43.2936 42.08 42.5202 41.6C41.5602 41.0133 40.8002 40.2133 40.2402 39.2C39.6802 38.2133 39.4002 37.1733 39.4002 36.08C39.4002 35.8933 39.4402 35.7867 39.5202 35.76C39.6002 35.8133 39.6669 35.9333 39.7202 36.12C39.7736 36.28 39.8536 36.36 39.9602 36.36C40.0936 36.36 40.2002 36.2667 40.2802 36.08C40.3602 35.8667 40.4136 35.7333 40.4402 35.68C40.5736 35.3867 40.6802 35.16 40.7602 35C40.8402 34.84 41.0269 34.6667 41.3202 34.48C41.4269 34.4267 41.6002 34.3467 41.8402 34.24C42.1069 34.1333 42.3602 34.04 42.6002 33.96C42.8669 33.8533 43.0402 33.8 43.1202 33.8C43.1469 33.8 43.1602 33.8133 43.1602 33.84C43.1602 33.8933 43.0002 33.9867 42.6802 34.12C42.3869 34.2533 42.0802 34.4667 41.7602 34.76C41.4669 35.0267 41.3202 35.4133 41.3202 35.92C41.3202 36 41.3469 36.1467 41.4002 36.36C41.8802 38.2267 42.8136 39.5733 44.2002 40.4C45.5869 41.2533 47.1869 41.68 49.0002 41.68C50.6536 41.68 52.2936 41.4 53.9202 40.84C55.5469 40.28 57.0936 39.5333 58.5602 38.6C60.0269 37.6933 61.3336 36.68 62.4802 35.56C63.5736 34.52 64.6402 33.4667 65.6802 32.4C66.7469 31.3067 67.7736 30.2 68.7602 29.08L61.6002 28.72C61.4402 28.72 61.2802 28.72 61.1202 28.72C60.9602 28.6933 60.8002 28.68 60.6402 28.68C60.0269 28.68 59.3069 28.76 58.4802 28.92C57.6536 29.0533 57.0402 29.3867 56.6402 29.92C56.4536 30.1867 56.3069 30.4933 56.2002 30.84C56.0936 31.1867 55.9869 31.52 55.8802 31.84C55.7202 31.7867 55.5736 31.6933 55.4402 31.56C55.3069 31.4 55.2402 31.2267 55.2402 31.04C55.2402 30.7467 55.3869 30.4533 55.6802 30.16C56.0002 29.8667 56.3469 29.6133 56.7202 29.4C57.0936 29.16 57.4002 28.9733 57.6402 28.84C58.4936 28.3867 59.3736 28.0133 60.2802 27.72C61.1869 27.4267 62.1336 27.28 63.1202 27.28C64.2936 27.28 65.4536 27.32 66.6002 27.4C67.7736 27.4533 68.9336 27.5067 70.0802 27.56C71.8936 25.4267 73.6269 23.2533 75.2802 21.04C76.9602 18.8267 78.7736 16.72 80.7202 14.72C79.2536 14.1067 77.6402 13.5467 75.8802 13.04C74.1469 12.5067 72.3736 12.0933 70.5602 11.8C68.7736 11.48 67.0802 11.32 65.4802 11.32C64.5202 11.32 63.4802 11.4133 62.3602 11.6C61.2669 11.76 60.2402 12.08 59.2802 12.56C58.3202 13.0133 57.5469 13.68 56.9602 14.56C56.4802 15.2267 56.2402 16 56.2402 16.88C56.2402 18 56.5736 18.9467 57.2402 19.72C57.9069 20.4667 58.7336 21.0267 59.7202 21.4C60.7069 21.7733 61.6936 21.96 62.6802 21.96C63.0802 21.96 63.4536 21.88 63.8002 21.72C64.1469 21.5333 64.4536 21.3067 64.7202 21.04C64.8002 21.0667 64.8402 21.12 64.8402 21.2C64.8402 21.2267 64.8269 21.2667 64.8002 21.32C64.8002 21.3467 64.8002 21.3867 64.8002 21.44C64.4536 21.9467 63.9869 22.2933 63.4002 22.48C62.8136 22.64 62.2269 22.72 61.6402 22.72C60.5202 22.72 59.4269 22.5067 58.3602 22.08C57.3202 21.6533 56.4536 21.0133 55.7602 20.16C55.0936 19.3067 54.7602 18.2533 54.7602 17C54.7602 16.4667 54.8269 15.96 54.9602 15.48C55.1202 14.9733 55.3336 14.4933 55.6002 14.04C56.2402 12.9733 57.0936 12.1467 58.1602 11.56C59.2269 10.9733 60.3736 10.56 61.6002 10.32C62.8269 10.0533 64.0136 9.92 65.1602 9.92C66.9469 9.92 68.7869 10.12 70.6802 10.52C72.5736 10.92 74.4402 11.44 76.2802 12.08C78.1469 12.6933 79.8936 13.3333 81.5202 14C81.7869 13.7867 82.1202 13.56 82.5202 13.32C82.9202 13.0533 83.2936 12.92 83.6402 12.92C84.0136 12.92 84.3069 13.04 84.5202 13.28C84.7336 13.4933 84.8402 13.7867 84.8402 14.16C84.8402 14.2667 84.8269 14.3867 84.8002 14.52C84.7736 14.6267 84.7469 14.7467 84.7202 14.88C84.6402 15.3333 84.5336 15.6267 84.4002 15.76C84.2669 15.8933 84.1202 16 83.9602 16.08C83.8269 16.1333 83.6536 16.3333 83.4402 16.68C83.0402 17.3467 82.5736 18.3333 82.0402 19.64C81.5336 20.92 81.0136 22.36 80.4802 23.96C79.9469 25.5333 79.4536 27.1333 79.0002 28.76C78.5469 30.36 78.1736 31.84 77.8802 33.2C77.6136 34.56 77.4802 35.6533 77.4802 36.48C77.4802 36.8267 77.5069 37.2 77.5602 37.6C77.6402 38 77.7869 38.3333 78.0002 38.6C78.2402 38.8933 78.5869 39.04 79.0402 39.04C79.4136 39.04 79.7336 38.9333 80.0002 38.72C80.2669 38.5333 80.5202 38.3067 80.7602 38.04C80.8402 37.9867 80.8802 38.0267 80.8802 38.16V38.24C80.8802 38.64 80.6402 38.9867 80.1602 39.28C79.7069 39.6 79.1869 39.84 78.6002 40C78.0402 40.16 77.5869 40.24 77.2402 40.24C76.3336 40.24 75.7736 39.9467 75.5602 39.36C75.3469 38.8 75.2402 38.1333 75.2402 37.36C75.2402 36.3733 75.3469 35.2933 75.5602 34.12C75.7736 32.9467 76.0402 31.7867 76.3602 30.64C76.7069 29.4667 77.0402 28.4 77.3602 27.44L75.6802 29.04C75.1469 29.0933 74.6136 29.1333 74.0802 29.16C73.5469 29.16 73.0136 29.16 72.4802 29.16C72.0536 29.16 71.6269 29.16 71.2002 29.16C70.8002 29.16 70.3869 29.1467 69.9602 29.12C68.6269 30.6133 67.2669 32.1067 65.8802 33.6C64.4936 35.0933 62.9736 36.4133 61.3202 37.56C60.0669 38.44 58.6802 39.2933 57.1602 40.12C55.6669 40.9467 54.1202 41.6267 52.5202 42.16C50.9202 42.6933 49.3202 42.96 47.7202 42.96ZM74.4402 27.76C74.9469 27.76 75.4402 27.7467 75.9202 27.72C76.4002 27.6667 76.8802 27.5733 77.3602 27.44C78.1069 25.2533 78.9336 23.1067 79.8402 21C80.7736 18.8933 81.5869 16.7467 82.2802 14.56L71.2402 27.64C71.7736 27.6667 72.3069 27.6933 72.8402 27.72C73.3736 27.7467 73.9069 27.76 74.4402 27.76ZM80.7034 38.52C80.65 38.52 80.6234 38.5067 80.6234 38.48C80.6234 38.3733 80.6767 38.2667 80.7834 38.16C80.8634 38.08 80.93 38 80.9834 37.92C81.2234 37.52 81.49 36.84 81.7834 35.88C82.1034 34.8933 82.41 33.8133 82.7034 32.64C83.0234 31.4667 83.3034 30.3733 83.5434 29.36C83.81 28.32 83.9967 27.5333 84.1034 27C84.1567 26.7867 84.21 26.5067 84.2634 26.16C84.3434 25.8133 84.4367 25.4667 84.5434 25.12C84.65 24.7733 84.77 24.5467 84.9034 24.44C85.1434 24.2267 85.5034 24.04 85.9834 23.88C86.4634 23.72 86.9434 23.6 87.4234 23.52C87.93 23.4133 88.3434 23.36 88.6634 23.36C88.7167 23.36 88.7834 23.3867 88.8634 23.44C88.9434 23.4933 88.9967 23.5467 89.0234 23.6L89.0634 23.72C89.0367 23.8 88.9967 23.84 88.9434 23.84C88.89 23.8133 88.8367 23.8 88.7834 23.8C88.2767 23.8 87.81 24.0933 87.3834 24.68C86.9567 25.24 86.5834 25.9333 86.2634 26.76C85.9434 27.5867 85.6634 28.3867 85.4234 29.16C85.21 29.9067 85.0634 30.4667 84.9834 30.84C85.25 30.2267 85.5967 29.5333 86.0234 28.76C86.4767 27.96 86.9967 27.2 87.5834 26.48C88.17 25.7333 88.81 25.12 89.5034 24.64C90.1967 24.1333 90.93 23.88 91.7034 23.88C91.81 23.88 91.9834 23.9067 92.2234 23.96C92.49 23.9867 92.73 24.0533 92.9434 24.16C93.1834 24.24 93.3034 24.3467 93.3034 24.48L93.2634 24.52H93.2234L92.9834 24.44C93.0634 24.6267 93.1167 24.8133 93.1434 25C93.17 25.1867 93.1834 25.3733 93.1834 25.56C93.1834 25.72 93.13 26.0667 93.0234 26.6C92.9434 27.1333 92.8234 27.64 92.6634 28.12C92.53 28.5733 92.3834 28.8 92.2234 28.8C92.1167 28.8 92.0634 28.76 92.0634 28.68C92.0634 28.5467 92.1034 28.3333 92.1834 28.04C92.29 27.72 92.3434 27.4267 92.3434 27.16C92.3434 26.68 92.2234 26.2933 91.9834 26C91.7434 25.7067 91.3834 25.56 90.9034 25.56C90.1034 25.56 89.33 25.9067 88.5834 26.6C87.8367 27.2667 87.1567 28.1067 86.5434 29.12C85.93 30.1067 85.41 31.1067 84.9834 32.12C84.5567 33.1333 84.2634 33.96 84.1034 34.6C83.9967 34.9467 83.9034 35.4 83.8234 35.96C83.7434 36.4933 83.5434 36.8667 83.2234 37.08C83.1434 37.1067 82.89 37.24 82.4634 37.48C82.0634 37.72 81.6767 37.9467 81.3034 38.16C80.9034 38.4 80.7034 38.52 80.7034 38.52ZM92.9462 38.12C92.5195 38.12 92.2262 38.0133 92.0662 37.8C91.9062 37.5867 91.8262 37.28 91.8262 36.88C91.8262 36.1867 91.9862 35.32 92.3062 34.28C92.6262 33.2133 93.0262 32.0933 93.5062 30.92C93.9862 29.72 94.4528 28.5867 94.9062 27.52C95.3862 26.4267 95.7728 25.5333 96.0662 24.84C95.7195 24.8667 95.3728 24.88 95.0262 24.88C94.6795 24.88 94.3195 24.8933 93.9462 24.92C93.8928 24.8667 93.8662 24.8133 93.8662 24.76C93.8662 24.6 93.9728 24.4133 94.1862 24.2C94.3995 23.9867 94.6395 23.8133 94.9062 23.68C95.1995 23.52 95.4128 23.44 95.5462 23.44H96.6662C96.9328 22.8 97.1995 22.16 97.4662 21.52C97.7595 20.88 98.0262 20.24 98.2662 19.6C98.3995 19.2533 98.5462 18.9733 98.7062 18.76C98.8928 18.52 99.1462 18.2933 99.4662 18.08C99.9195 17.7867 100.48 17.5467 101.146 17.36C101.813 17.1733 102.4 17.08 102.906 17.08C102.96 17.08 103.013 17.1067 103.066 17.16C103.146 17.2133 103.2 17.2533 103.226 17.28V17.44C103.226 17.52 103.186 17.5467 103.106 17.52C103.053 17.4933 103 17.48 102.946 17.48C102.626 17.48 102.253 17.7467 101.826 18.28C101.4 18.7867 100.96 19.4 100.506 20.12C100.053 20.84 99.6528 21.5333 99.3062 22.2C98.9862 22.84 98.7595 23.28 98.6262 23.52H100.226C100.653 23.52 101.08 23.52 101.506 23.52C101.933 23.4933 102.36 23.4533 102.786 23.4L102.826 23.48C102.8 23.48 102.786 23.4933 102.786 23.52C102.786 23.5467 102.773 23.56 102.746 23.56C102.666 23.64 102.466 23.7733 102.146 23.96C101.826 24.12 101.506 24.2667 101.186 24.4C100.866 24.5333 100.64 24.6133 100.506 24.64C100.08 24.6933 99.6528 24.7333 99.2262 24.76C98.8262 24.7867 98.4128 24.8 97.9862 24.8C97.7195 25.3867 97.3728 26.16 96.9462 27.12C96.5195 28.08 96.0928 29.1067 95.6662 30.2C95.2395 31.2667 94.8795 32.2933 94.5862 33.28C94.3195 34.24 94.1862 35.04 94.1862 35.68C94.1862 35.84 94.2128 36.0267 94.2662 36.24C94.3195 36.4533 94.4528 36.56 94.6662 36.56C94.8528 36.56 95.0395 36.4933 95.2262 36.36C95.8128 36.0133 96.3862 35.5467 96.9462 34.96C97.5328 34.3467 98.0662 33.6933 98.5462 33C99.0528 32.28 99.4528 31.6267 99.7462 31.04C99.7995 31.0667 99.8262 31.12 99.8262 31.2C99.8262 31.36 99.7328 31.6 99.5462 31.92C99.3595 32.2133 99.1462 32.5333 98.9062 32.88C98.6662 33.2267 98.4395 33.5333 98.2262 33.8C98.0395 34.0667 97.9462 34.2267 97.9462 34.28C97.9195 34.4933 97.8662 34.6533 97.7862 34.76C97.7328 34.84 97.6662 34.9867 97.5862 35.2C97.2395 35.52 96.7995 35.92 96.2662 36.4C95.7328 36.8533 95.1728 37.2533 94.5862 37.6C93.9995 37.9467 93.4528 38.12 92.9462 38.12ZM120.739 40.12C117.805 40.12 115.445 39.3867 113.659 37.92C111.899 36.4533 111.019 34.1867 111.019 31.12C111.019 28.7733 111.485 26.5467 112.419 24.44C113.352 22.3067 114.592 20.36 116.139 18.6C117.712 16.84 119.445 15.3333 121.339 14.08C120.299 13.9467 119.245 13.8133 118.179 13.68C117.112 13.5467 116.059 13.48 115.019 13.48C113.819 13.48 112.739 13.64 111.779 13.96C110.845 14.28 109.965 14.8933 109.139 15.8C108.899 16.0667 108.712 16.3067 108.579 16.52C108.445 16.7333 108.379 17.0267 108.379 17.4C108.379 18.0133 108.485 18.4533 108.699 18.72C108.912 18.9867 109.165 19.16 109.459 19.24C109.752 19.32 110.032 19.3733 110.299 19.4C110.565 19.4267 110.739 19.5067 110.819 19.64C110.792 19.72 110.699 19.7867 110.539 19.84C110.379 19.8667 110.245 19.88 110.139 19.88C109.739 19.88 109.392 19.7867 109.099 19.6C108.832 19.4133 108.592 19.24 108.379 19.08C108.192 18.8933 108.019 18.8 107.859 18.8C107.805 18.8 107.752 18.8267 107.699 18.88C107.672 18.9333 107.619 18.96 107.539 18.96C107.325 18.96 107.205 18.8133 107.179 18.52C107.152 18.2 107.139 17.9867 107.139 17.88C107.139 17.5867 107.259 17.2533 107.499 16.88C107.739 16.5067 107.952 16.2133 108.139 16C109.285 14.6133 110.512 13.64 111.819 13.08C113.152 12.52 114.699 12.24 116.459 12.24C117.605 12.24 118.739 12.32 119.859 12.48C120.979 12.6133 122.099 12.7733 123.219 12.96C124.525 12.24 125.912 11.7067 127.379 11.36C128.845 10.9867 130.312 10.8 131.779 10.8C132.632 10.8 133.525 10.8933 134.459 11.08C135.392 11.24 136.259 11.52 137.059 11.92C137.885 12.32 138.552 12.8667 139.059 13.56C139.565 14.2533 139.819 15.12 139.819 16.16C139.819 16.9867 139.672 17.8 139.379 18.6C139.379 18.7067 139.352 18.8 139.299 18.88C139.272 18.9333 139.232 19 139.179 19.08C138.992 19.4267 138.805 19.7467 138.619 20.04C138.459 20.3067 138.139 20.44 137.659 20.44C137.312 20.44 137.139 20.2533 137.139 19.88C137.139 19.7467 137.139 19.6133 137.139 19.48C137.165 19.32 137.192 19.1867 137.219 19.08C135.085 17.9067 132.765 16.9333 130.259 16.16C127.779 15.36 125.339 14.7467 122.939 14.32C121.712 15.2267 120.525 16.3067 119.379 17.56C118.232 18.8133 117.192 20.1867 116.259 21.68C115.352 23.1467 114.632 24.68 114.099 26.28C113.565 27.88 113.299 29.4667 113.299 31.04C113.299 32.8267 113.699 34.32 114.499 35.52C115.299 36.72 116.379 37.6133 117.739 38.2C119.099 38.7867 120.632 39.08 122.339 39.08C123.805 39.08 125.285 38.8533 126.779 38.4C128.299 37.9733 129.739 37.3733 131.099 36.6C132.459 35.8 133.645 34.88 134.659 33.84C135.379 33.0933 136.112 32.2133 136.859 31.2C137.632 30.1867 138.219 29.1867 138.619 28.2C138.619 28.1733 138.645 28.0933 138.699 27.96C138.779 27.8267 138.832 27.76 138.859 27.76C138.912 27.76 138.939 27.84 138.939 28C138.965 28.16 138.979 28.2533 138.979 28.28C138.979 28.4133 138.965 28.72 138.939 29.2C138.939 29.6533 138.912 29.9467 138.859 30.08C138.485 31.2533 137.765 32.3733 136.699 33.44C135.659 34.48 134.445 35.4267 133.059 36.28C131.699 37.1333 130.299 37.8533 128.859 38.44C127.445 39.0267 126.165 39.44 125.019 39.68C124.325 39.8133 123.619 39.92 122.899 40C122.179 40.08 121.459 40.12 120.739 40.12ZM137.539 17.32C137.565 17.16 137.579 17 137.579 16.84C137.605 16.68 137.619 16.5067 137.619 16.32C137.619 15.12 137.285 14.1867 136.619 13.52C135.952 12.8267 135.125 12.3467 134.139 12.08C133.152 11.7867 132.152 11.64 131.139 11.64C130.072 11.64 128.965 11.7733 127.819 12.04C126.672 12.28 125.619 12.6667 124.659 13.2C126.872 13.6267 129.059 14.1867 131.219 14.88C133.379 15.5733 135.485 16.3867 137.539 17.32ZM136.828 38.52C136.774 38.52 136.748 38.5067 136.748 38.48C136.748 38.3733 136.801 38.2667 136.908 38.16C136.988 38.08 137.054 38 137.108 37.92C137.321 37.5733 137.534 37.12 137.748 36.56C137.961 35.9733 138.161 35.3867 138.348 34.8C138.561 34.1867 138.734 33.68 138.868 33.28C139.401 31.7067 139.921 30.12 140.428 28.52C140.934 26.92 141.481 25.3333 142.068 23.76C142.414 22.8267 142.828 21.7733 143.308 20.6C143.788 19.4 144.348 18.2 144.988 17C145.628 15.8 146.348 14.7067 147.148 13.72C147.974 12.7067 148.894 11.8933 149.908 11.28C150.921 10.6667 152.041 10.36 153.268 10.36C154.601 10.36 155.481 10.6 155.908 11.08C156.361 11.56 156.588 12.0533 156.588 12.56C156.588 12.7733 156.508 12.9067 156.348 12.96C156.214 13.0133 156.148 12.9467 156.148 12.76C156.148 12.2 155.921 11.7467 155.468 11.4C155.014 11.0267 154.481 10.84 153.868 10.84C153.308 10.84 152.708 11.0533 152.068 11.48C151.454 11.88 150.868 12.36 150.308 12.92C149.748 13.48 149.308 13.9733 148.988 14.4C147.921 15.84 147.054 17.1733 146.388 18.4C145.721 19.6267 145.148 20.8267 144.668 22C144.214 23.1733 143.774 24.4133 143.348 25.72C142.948 27.0267 142.468 28.48 141.908 30.08V30.24C141.908 30.32 141.921 30.36 141.948 30.36C142.028 30.28 142.068 30.24 142.068 30.24C142.894 29.1467 143.734 28.08 144.588 27.04C145.468 25.9733 146.521 25.1067 147.748 24.44C147.934 24.3333 148.148 24.2267 148.388 24.12C148.628 23.9867 148.854 23.92 149.068 23.92C149.414 23.92 149.614 24.08 149.668 24.4C149.748 24.6933 149.788 24.9733 149.788 25.24C149.788 25.8 149.601 26.5333 149.228 27.44C148.881 28.32 148.454 29.28 147.948 30.32C147.468 31.36 147.041 32.3867 146.668 33.4C146.321 34.3867 146.148 35.28 146.148 36.08C146.148 36.1867 146.161 36.32 146.188 36.48C146.241 36.6133 146.348 36.68 146.508 36.68C146.774 36.68 147.134 36.4667 147.588 36.04C148.041 35.5867 148.468 35.1067 148.868 34.6C149.268 34.0667 149.521 33.68 149.628 33.44C149.734 33.5467 149.788 33.6267 149.788 33.68C149.788 33.92 149.548 34.3067 149.068 34.84C148.614 35.3467 148.068 35.88 147.428 36.44C146.788 37 146.174 37.48 145.588 37.88C145.001 38.28 144.588 38.48 144.348 38.48C144.081 38.48 143.894 38.28 143.788 37.88C143.708 37.48 143.668 37.1867 143.668 37C143.668 36.4933 143.774 35.8533 143.988 35.08C144.228 34.3067 144.508 33.4933 144.828 32.64C145.174 31.7867 145.508 30.9733 145.828 30.2C146.174 29.4267 146.454 28.7867 146.668 28.28C146.748 28.12 146.868 27.84 147.028 27.44C147.188 27.0133 147.268 26.7067 147.268 26.52C147.268 26.3867 147.241 26.24 147.188 26.08C147.161 25.92 147.054 25.84 146.868 25.84C146.574 25.84 146.214 26.0133 145.788 26.36C145.388 26.7067 145.081 26.9867 144.868 27.2C143.721 28.4533 142.721 29.88 141.868 31.48C141.041 33.0533 140.361 34.6533 139.828 36.28C139.774 36.4933 139.734 36.64 139.708 36.72C139.681 36.8 139.561 36.92 139.348 37.08C139.268 37.1067 139.014 37.24 138.588 37.48C138.188 37.72 137.801 37.9467 137.428 38.16C137.054 38.4 136.854 38.52 136.828 38.52ZM151.496 38.08C151.07 38.08 150.79 37.92 150.656 37.6C150.55 37.2533 150.496 36.9067 150.496 36.56C150.496 35.3067 150.736 33.96 151.216 32.52C151.696 31.08 152.323 29.7067 153.096 28.4C153.87 27.0667 154.71 25.9733 155.616 25.12C156.576 24.24 157.71 23.8 159.016 23.8C159.55 23.8 160.07 23.8667 160.576 24C161.11 24.1067 161.63 24.2667 162.136 24.48C162.59 24.16 163.083 23.88 163.616 23.64C164.15 23.4 164.696 23.28 165.256 23.28C165.39 23.28 165.496 23.36 165.576 23.52V23.64C165.576 23.72 165.536 23.76 165.456 23.76C165.403 23.7333 165.35 23.72 165.296 23.72C164.87 23.72 164.403 24.0533 163.896 24.72C163.39 25.36 162.883 26.1867 162.376 27.2C161.87 28.2133 161.403 29.28 160.976 30.4C160.576 31.52 160.243 32.5467 159.976 33.48C159.736 34.4133 159.616 35.12 159.616 35.6C159.616 35.7867 159.643 36 159.696 36.24C159.776 36.48 159.936 36.6 160.176 36.6C160.31 36.6 160.416 36.5733 160.496 36.52C160.603 36.4667 160.71 36.4133 160.816 36.36C161.403 36.0133 161.976 35.5467 162.536 34.96C163.123 34.3467 163.656 33.6933 164.136 33C164.643 32.28 165.056 31.6267 165.376 31.04C165.403 31.0667 165.416 31.12 165.416 31.2C165.416 31.36 165.323 31.6 165.136 31.92C164.95 32.2133 164.736 32.5333 164.496 32.88C164.256 33.2267 164.03 33.5333 163.816 33.8C163.63 34.0667 163.536 34.2267 163.536 34.28C163.51 34.4667 163.47 34.6267 163.416 34.76C163.363 34.8667 163.283 35.0133 163.176 35.2C162.83 35.5467 162.39 35.9467 161.856 36.4C161.323 36.8533 160.763 37.2533 160.176 37.6C159.616 37.92 159.07 38.08 158.536 38.08C157.71 38.08 157.296 37.64 157.296 36.76C157.296 36.2267 157.403 35.6133 157.616 34.92C157.856 34.2 158.123 33.4933 158.416 32.8C158.736 32.08 159.016 31.48 159.256 31C159.256 30.9733 159.256 30.9333 159.256 30.88C159.256 30.8267 159.243 30.8 159.216 30.8C159.19 30.8 159.15 30.8267 159.096 30.88C158.776 31.3067 158.31 31.92 157.696 32.72C157.083 33.52 156.403 34.3333 155.656 35.16C154.936 35.96 154.203 36.6533 153.456 37.24C152.71 37.8 152.056 38.08 151.496 38.08ZM153.256 36.36C153.55 36.36 153.91 36.1733 154.336 35.8C154.79 35.4 155.256 34.9333 155.736 34.4C156.243 33.84 156.683 33.3067 157.056 32.8C157.456 32.2933 157.736 31.92 157.896 31.68C158.216 31.2 158.576 30.6 158.976 29.88C159.403 29.16 159.763 28.4133 160.056 27.64C160.376 26.8667 160.536 26.2133 160.536 25.68C160.536 24.8533 160.123 24.44 159.296 24.44C158.816 24.44 158.31 24.6533 157.776 25.08C157.243 25.5067 156.816 25.8933 156.496 26.24C156.15 26.6667 155.75 27.28 155.296 28.08C154.87 28.88 154.47 29.7467 154.096 30.68C153.723 31.6133 153.403 32.5067 153.136 33.36C152.896 34.2133 152.776 34.92 152.776 35.48C152.776 35.64 152.803 35.8267 152.856 36.04C152.91 36.2533 153.043 36.36 153.256 36.36ZM172.498 38.08C171.698 38.0267 170.898 38 170.098 38C169.298 37.9733 168.498 37.96 167.698 37.96H163.818C163.578 37.96 163.432 37.8 163.378 37.48C163.298 37.16 163.232 36.92 163.178 36.76C163.738 35.9867 164.445 35.1733 165.298 34.32C166.152 33.44 167.285 32.2667 168.698 30.8C169.098 30.3733 169.832 29.6267 170.898 28.56C171.992 27.4667 173.258 26.28 174.698 25C174.512 24.9733 174.312 24.96 174.098 24.96C173.885 24.96 173.672 24.96 173.458 24.96C172.605 24.96 171.712 25.0133 170.778 25.12C169.872 25.2267 169.045 25.3867 168.298 25.6C167.578 25.8133 167.058 26.0667 166.738 26.36C166.712 26.3867 166.632 26.4667 166.498 26.6C166.365 26.7067 166.258 26.76 166.178 26.76C166.178 26.76 166.165 26.76 166.138 26.76C166.138 26.7333 166.138 26.7067 166.138 26.68C166.138 26.6267 166.178 26.5467 166.258 26.44C166.365 26.3067 166.432 26.2267 166.458 26.2C166.725 25.8533 166.965 25.48 167.178 25.08C167.418 24.6533 167.712 24.3067 168.058 24.04C168.912 24.12 169.765 24.1733 170.618 24.2C171.472 24.2 172.325 24.2 173.178 24.2H175.218C175.725 24.2 176.032 24.4 176.138 24.8C176.272 25.2 176.338 25.5467 176.338 25.84C175.218 26.8 174.112 27.7733 173.018 28.76C171.952 29.72 170.872 30.7067 169.778 31.72C169.032 32.44 168.285 33.2 167.538 34C166.818 34.7733 166.218 35.5867 165.738 36.44C166.218 36.5733 167.072 36.64 168.298 36.64C168.778 36.64 169.272 36.6267 169.778 36.6C170.285 36.5467 170.738 36.48 171.138 36.4C171.912 36.24 172.605 35.9867 173.218 35.64C173.832 35.2667 174.458 34.6933 175.098 33.92C175.125 33.8667 175.192 33.7867 175.298 33.68C175.432 33.5467 175.525 33.48 175.578 33.48C175.685 33.48 175.738 33.52 175.738 33.6C175.738 33.68 175.698 33.7733 175.618 33.88C175.565 33.9867 175.498 34.0933 175.418 34.2C175.152 34.52 174.845 34.96 174.498 35.52C174.152 36.0533 173.792 36.56 173.418 37.04C173.072 37.52 172.765 37.8667 172.498 38.08ZM183.88 20.8C183.667 20.8 183.334 20.72 182.88 20.56C182.454 20.3733 182.24 20.1467 182.24 19.88C182.24 19.8533 182.24 19.84 182.24 19.84C182.267 19.8133 182.28 19.7867 182.28 19.76C182.414 19.4933 182.707 19.3333 183.16 19.28C183.64 19.2267 184 19.1467 184.24 19.04C184.774 18.8267 185.294 18.6533 185.8 18.52C186.307 18.3867 186.787 18.1467 187.24 17.8C187.347 17.8533 187.4 17.9067 187.4 17.96C187.4 18.0667 187.28 18.2133 187.04 18.4C186.827 18.5867 186.68 18.7467 186.6 18.88C186.494 19.04 186.254 19.28 185.88 19.6C185.534 19.8933 185.16 20.1733 184.76 20.44C184.36 20.68 184.067 20.8 183.88 20.8ZM177.12 38.12C176.694 38.12 176.4 38.0133 176.24 37.8C176.08 37.5867 176 37.28 176 36.88C176 36 176.174 34.9333 176.52 33.68C176.894 32.4267 177.307 31.16 177.76 29.88C178.214 28.5733 178.574 27.4133 178.84 26.4C178.947 26.0267 179.2 25.7733 179.6 25.64C180.027 25.48 180.387 25.2933 180.68 25.08C181.107 24.7867 181.56 24.5467 182.04 24.36C182.52 24.1467 183.027 24.04 183.56 24.04C183.694 24.04 183.774 24.0667 183.8 24.12C183.854 24.1733 183.88 24.2133 183.88 24.24C183.88 24.4 183.787 24.48 183.6 24.48C183.227 24.48 182.84 24.7067 182.44 25.16C182.04 25.5867 181.64 26.1467 181.24 26.84C180.84 27.5333 180.48 28.2533 180.16 29C179.84 29.7467 179.56 30.44 179.32 31.08C179.08 31.6933 178.92 32.1467 178.84 32.44C178.707 32.8667 178.574 33.3733 178.44 33.96C178.307 34.52 178.24 35.04 178.24 35.52C178.24 35.7067 178.267 35.9333 178.32 36.2C178.374 36.44 178.534 36.56 178.8 36.56C178.987 36.56 179.187 36.4933 179.4 36.36C179.987 36.0133 180.56 35.5467 181.12 34.96C181.707 34.3467 182.24 33.6933 182.72 33C183.227 32.28 183.627 31.6267 183.92 31.04C183.974 31.0667 184 31.12 184 31.2C184 31.36 183.907 31.6 183.72 31.92C183.534 32.2133 183.32 32.5333 183.08 32.88C182.84 33.2267 182.614 33.5333 182.4 33.8C182.214 34.0667 182.12 34.2267 182.12 34.28C182.094 34.4933 182.054 34.6533 182 34.76C181.947 34.84 181.867 34.9867 181.76 35.2C181.44 35.52 181.014 35.92 180.48 36.4C179.947 36.8533 179.387 37.2533 178.8 37.6C178.214 37.9467 177.654 38.12 177.12 38.12ZM181.015 38.52C180.988 38.52 180.975 38.5067 180.975 38.48C180.975 38.3733 181.028 38.2667 181.135 38.16C181.215 38.0533 181.268 37.9733 181.295 37.92C181.482 37.6267 181.708 37.1333 181.975 36.44C182.215 35.72 182.455 34.92 182.695 34.04C182.962 33.1333 183.202 32.2267 183.415 31.32C183.655 30.3867 183.868 29.5333 184.055 28.76C184.242 27.9867 184.375 27.4 184.455 27C184.508 26.7867 184.562 26.5067 184.615 26.16C184.668 25.8133 184.748 25.4667 184.855 25.12C184.962 24.7733 185.082 24.5467 185.215 24.44C185.482 24.2267 185.842 24.04 186.295 23.88C186.775 23.72 187.268 23.6 187.775 23.52C188.282 23.4133 188.695 23.36 189.015 23.36C189.068 23.36 189.135 23.3867 189.215 23.44C189.295 23.4933 189.348 23.5467 189.375 23.6V23.72C189.375 23.8 189.348 23.84 189.295 23.84C189.242 23.8133 189.188 23.8 189.135 23.8C188.548 23.8 188.028 24.1333 187.575 24.8C187.122 25.44 186.735 26.24 186.415 27.2C186.095 28.1333 185.828 29.04 185.615 29.92C185.402 30.8 185.242 31.4667 185.135 31.92C185.988 30.4533 186.962 29.0533 188.055 27.72C189.175 26.36 190.482 25.2667 191.975 24.44C192.162 24.3333 192.375 24.2267 192.615 24.12C192.855 23.9867 193.068 23.92 193.255 23.92C193.602 23.92 193.815 24.08 193.895 24.4C193.975 24.6933 194.015 24.9733 194.015 25.24C194.015 25.5867 193.895 26.0933 193.655 26.76C193.415 27.4267 193.135 28.0933 192.815 28.76C192.522 29.4 192.295 29.9067 192.135 30.28C191.975 30.7067 191.788 31.2533 191.575 31.92C191.362 32.5867 191.175 33.2533 191.015 33.92C190.855 34.5867 190.775 35.1467 190.775 35.6C190.775 35.7867 190.802 36 190.855 36.24C190.908 36.48 191.055 36.6 191.295 36.6C191.428 36.6 191.535 36.5733 191.615 36.52C191.722 36.4667 191.828 36.4133 191.935 36.36C192.548 36.0133 193.135 35.5467 193.695 34.96C194.282 34.3467 194.815 33.6933 195.295 33C195.775 32.28 196.175 31.6267 196.495 31.04C196.522 31.0667 196.535 31.12 196.535 31.2C196.535 31.36 196.442 31.6 196.255 31.92C196.068 32.2133 195.855 32.5333 195.615 32.88C195.375 33.2267 195.148 33.5333 194.935 33.8C194.748 34.0667 194.655 34.2267 194.655 34.28C194.628 34.4667 194.588 34.6267 194.535 34.76C194.482 34.8667 194.415 35.0133 194.335 35.2C194.015 35.52 193.548 35.92 192.935 36.4C192.348 36.8533 191.735 37.2667 191.095 37.64C190.482 37.9867 189.935 38.16 189.455 38.16C189.028 38.16 188.735 38 188.575 37.68C188.442 37.3333 188.375 36.9733 188.375 36.6C188.375 35.88 188.522 35.0267 188.815 34.04C189.108 33.0267 189.455 32.0267 189.855 31.04C190.255 30.0267 190.588 29.1733 190.855 28.48C190.935 28.2667 191.055 27.9333 191.215 27.48C191.402 27.0267 191.495 26.7067 191.495 26.52C191.495 26.3867 191.468 26.24 191.415 26.08C191.388 25.92 191.268 25.84 191.055 25.84C190.788 25.84 190.442 26.0133 190.015 26.36C189.615 26.7067 189.308 26.9867 189.095 27.2C187.948 28.48 186.962 29.9067 186.135 31.48C185.308 33.0267 184.615 34.6267 184.055 36.28C183.975 36.4933 183.922 36.6533 183.895 36.76C183.895 36.84 183.788 36.9467 183.575 37.08C183.495 37.1333 183.242 37.28 182.815 37.52C182.415 37.76 182.028 37.9867 181.655 38.2C181.255 38.4133 181.042 38.52 181.015 38.52Z" fill="url(#paint8_linear_821_2043)"/>
<defs>
<linearGradient id="paint0_linear_821_2043" x1="20.9734" y1="1" x2="20.9734" y2="31.9844" gradientUnits="userSpaceOnUse">
<stop stop-color="#FFFFC8"/>
<stop offset="1" stop-color="#97793D"/>
</linearGradient>
<linearGradient id="paint1_linear_821_2043" x1="20.9734" y1="1" x2="20.9734" y2="31.9844" gradientUnits="userSpaceOnUse">
<stop stop-color="#FFFFC8"/>
<stop offset="1" stop-color="#97793D"/>
</linearGradient>
<linearGradient id="paint2_linear_821_2043" x1="20.9734" y1="1" x2="20.9734" y2="31.9844" gradientUnits="userSpaceOnUse">
<stop stop-color="#FFFFC8"/>
<stop offset="1" stop-color="#97793D"/>
</linearGradient>
<linearGradient id="paint3_linear_821_2043" x1="7.94993" y1="31.7104" x2="7.94993" y2="42.7787" gradientUnits="userSpaceOnUse">
<stop stop-color="#FFFFC8"/>
<stop offset="1" stop-color="#97793D"/>
</linearGradient>
<linearGradient id="paint4_linear_821_2043" x1="7.94993" y1="31.7104" x2="7.94993" y2="42.7787" gradientUnits="userSpaceOnUse">
<stop stop-color="#FFFFC8"/>
<stop offset="1" stop-color="#97793D"/>
</linearGradient>
<linearGradient id="paint5_linear_821_2043" x1="7.94993" y1="31.7104" x2="7.94993" y2="42.7787" gradientUnits="userSpaceOnUse">
<stop stop-color="#FFFFC8"/>
<stop offset="1" stop-color="#97793D"/>
</linearGradient>
<linearGradient id="paint6_linear_821_2043" x1="7.94993" y1="31.7104" x2="7.94993" y2="42.7787" gradientUnits="userSpaceOnUse">
<stop stop-color="#FFFFC8"/>
<stop offset="1" stop-color="#97793D"/>
</linearGradient>
<linearGradient id="paint7_linear_821_2043" x1="7.94993" y1="31.7104" x2="7.94993" y2="42.7787" gradientUnits="userSpaceOnUse">
<stop stop-color="#FFFFC8"/>
<stop offset="1" stop-color="#97793D"/>
</linearGradient>
<linearGradient id="paint8_linear_821_2043" x1="118" y1="0" x2="118" y2="54" gradientUnits="userSpaceOnUse">
<stop stop-color="#FFFFC8"/>
<stop offset="1" stop-color="#97793D"/>
</linearGradient>
</defs>
</svg>
