<svg width="40" height="33" viewBox="0 0 40 33" fill="none" xmlns="http://www.w3.org/2000/svg">
<path d="M34 0.5C35.5913 0.5 37.1174 1.13214 38.2426 2.25736C39.3679 3.38258 40 4.9087 40 6.5V26.5C40 28.0913 39.3679 29.6174 38.2426 30.7426C37.1174 31.8679 35.5913 32.5 34 32.5H6C4.4087 32.5 2.88258 31.8679 1.75736 30.7426C0.632141 29.6174 0 28.0913 0 26.5V6.5C0 4.9087 0.632141 3.38258 1.75736 2.25736C2.88258 1.13214 4.4087 0.5 6 0.5H34ZM36 12.5H4V26.5C4.00006 26.9899 4.17991 27.4627 4.50543 27.8287C4.83095 28.1948 5.2795 28.4287 5.766 28.486L6 28.5H34C34.4899 28.4999 34.9627 28.3201 35.3287 27.9946C35.6948 27.6691 35.9287 27.2205 35.986 26.734L36 26.5V12.5ZM30 18.5C30.5098 18.5006 31.0001 18.6958 31.3707 19.0457C31.7414 19.3956 31.9645 19.8739 31.9943 20.3828C32.0242 20.8917 31.8587 21.3928 31.5315 21.7837C31.2043 22.1746 30.7402 22.4258 30.234 22.486L30 22.5H24C23.4902 22.4994 22.9999 22.3042 22.6293 21.9543C22.2586 21.6044 22.0355 21.1261 22.0057 20.6172C21.9758 20.1083 22.1413 19.6072 22.4685 19.2163C22.7957 18.8254 23.2598 18.5742 23.766 18.514L24 18.5H30ZM34 4.5H6C5.46957 4.5 4.96086 4.71071 4.58579 5.08579C4.21071 5.46086 4 5.96957 4 6.5V8.5H36V6.5C36 5.96957 35.7893 5.46086 35.4142 5.08579C35.0391 4.71071 34.5304 4.5 34 4.5Z" fill="#292929"/>
</svg>
