<svg width="42" height="43" viewBox="0 0 42 43" fill="none" xmlns="http://www.w3.org/2000/svg">
<path fill-rule="evenodd" clip-rule="evenodd" d="M28.875 39.875C31.6598 39.875 34.3305 38.7688 36.2996 36.7996C38.2688 34.8305 39.375 32.1598 39.375 29.375C39.375 26.5902 38.2688 23.9195 36.2996 21.9504C34.3305 19.9812 31.6598 18.875 28.875 18.875C26.0902 18.875 23.4195 19.9812 21.4504 21.9504C19.4812 23.9195 18.375 26.5902 18.375 29.375C18.375 32.1598 19.4812 34.8305 21.4504 36.7996C23.4195 38.7688 26.0902 39.875 28.875 39.875ZM42 29.375C42 32.856 40.6172 36.1944 38.1558 38.6558C35.6944 41.1172 32.356 42.5 28.875 42.5C25.394 42.5 22.0556 41.1172 19.5942 38.6558C17.1328 36.1944 15.75 32.856 15.75 29.375C15.75 25.894 17.1328 22.5556 19.5942 20.0942C22.0556 17.6328 25.394 16.25 28.875 16.25C32.356 16.25 35.6944 17.6328 38.1558 20.0942C40.6172 22.5556 42 25.894 42 29.375Z" fill="#292929"/>
<path d="M24.7751 31.853C24.8985 33.4175 26.1348 34.6355 28.353 34.7825V35.9375H29.3373V34.7746C31.6342 34.6145 32.9756 33.386 32.9756 31.6063C32.9756 29.984 31.9518 29.1493 30.1143 28.7188L29.3373 28.535V25.385C30.3243 25.4979 30.9491 26.036 31.0987 26.7815H32.826C32.7026 25.2721 31.4085 24.0935 29.3373 23.9649V22.8125H28.353V23.9937C26.3921 24.1854 25.0586 25.364 25.0586 27.0335C25.0586 28.5087 26.0508 29.4485 27.702 29.8317L28.353 29.9919V33.3309C27.345 33.1786 26.6756 32.6221 26.526 31.853H24.7725H24.7751ZM28.3451 28.2988C27.3765 28.0756 26.8515 27.6162 26.8515 26.9285C26.8515 26.1567 27.4185 25.5792 28.353 25.4112V28.2988H28.3451ZM29.4791 30.257C30.6577 30.53 31.1985 30.971 31.1985 31.7506C31.1985 32.6405 30.5238 33.2495 29.3373 33.3624V30.2255L29.4791 30.257Z" fill="#292929"/>
<path d="M2.625 0.5C1.92881 0.5 1.26113 0.776562 0.768845 1.26884C0.276562 1.76113 0 2.42881 0 3.125L0 24.125C0 24.8212 0.276562 25.4889 0.768845 25.9812C1.26113 26.4734 1.92881 26.75 2.625 26.75H13.3429C13.4951 25.847 13.7235 24.9702 14.0201 24.125H7.875C7.875 22.7326 7.32188 21.3973 6.33731 20.4127C5.35275 19.4281 4.01739 18.875 2.625 18.875V8.375C4.01739 8.375 5.35275 7.82188 6.33731 6.83731C7.32188 5.85275 7.875 4.51739 7.875 3.125H34.125C34.125 4.51739 34.6781 5.85275 35.6627 6.83731C36.6473 7.82188 37.9826 8.375 39.375 8.375V17.636C40.3725 18.5285 41.2571 19.547 42 20.6653V3.125C42 2.42881 41.7234 1.76113 41.2312 1.26884C40.7389 0.776562 40.0712 0.5 39.375 0.5L2.625 0.5Z" fill="#292929"/>
<path d="M26.2448 13.8429L26.25 13.625C26.2495 12.7209 26.0155 11.8323 25.5707 11.0452C25.1259 10.2581 24.4854 9.59925 23.7112 9.13237C22.937 8.66549 22.0554 8.40644 21.1517 8.38032C20.248 8.3542 19.3529 8.56189 18.553 8.98327C17.7531 9.40466 17.0756 10.0255 16.5861 10.7855C16.0966 11.5456 15.8117 12.4192 15.7589 13.3218C15.7062 14.2243 15.8874 15.1252 16.285 15.9371C16.6826 16.749 17.2832 17.4446 18.0285 17.9563C20.2959 15.7966 23.1571 14.3641 26.2448 13.8429Z" fill="#292929"/>
</svg>
