<svg width="44" height="45" viewBox="0 0 44 45" fill="none" xmlns="http://www.w3.org/2000/svg">
<path d="M18.3337 30.75L23.8337 32.5833C23.8337 32.5833 37.5837 29.8333 39.417 29.8333C41.2503 29.8333 41.2503 31.6667 39.417 33.5C37.5837 35.3333 31.167 40.8333 25.667 40.8333C20.167 40.8333 16.5003 38.0833 12.8337 38.0833H3.66699" stroke="#292929" stroke-width="4" stroke-linecap="round" stroke-linejoin="round"/>
<path d="M3.66699 27.0833C5.50033 25.25 9.16699 22.5 12.8337 22.5C16.5003 22.5 25.2087 26.1667 26.5837 28C27.9587 29.8333 23.8337 32.5833 23.8337 32.5833M14.667 17V9.66667C14.667 9.18044 14.8601 8.71412 15.204 8.3703C15.5478 8.02649 16.0141 7.83333 16.5003 7.83333H38.5003C38.9866 7.83333 39.4529 8.02649 39.7967 8.3703C40.1405 8.71412 40.3337 9.18044 40.3337 9.66667V24.3333" stroke="#292929" stroke-width="4" stroke-linecap="round" stroke-linejoin="round"/>
<path d="M22.917 7.83333H32.0837V16.0833H22.917V7.83333Z" stroke="#292929" stroke-width="4" stroke-linecap="round" stroke-linejoin="round"/>
</svg>
