<svg width="19" height="16" viewBox="0 0 19 16" fill="none" xmlns="http://www.w3.org/2000/svg">
<path fill-rule="evenodd" clip-rule="evenodd" d="M1.03022 0.46967C1.32311 0.176777 1.79798 0.176777 2.09088 0.46967L9.62121 8L2.09088 15.5303C1.79798 15.8232 1.32311 15.8232 1.03022 15.5303C0.737324 15.2374 0.737324 14.7626 1.03022 14.4697L7.49989 8L1.03022 1.53033C0.737324 1.23744 0.737324 0.762563 1.03022 0.46967ZM10.0302 0.46967C10.3231 0.176777 10.798 0.176777 11.0909 0.46967L18.6212 8L11.0909 15.5303C10.798 15.8232 10.3231 15.8232 10.0302 15.5303C9.73732 15.2374 9.73732 14.7626 10.0302 14.4697L16.4999 8L10.0302 1.53033C9.73732 1.23744 9.73732 0.762563 10.0302 0.46967Z" fill="black"/>
</svg>
