<svg width="22" height="23" viewBox="0 0 22 23" fill="none" xmlns="http://www.w3.org/2000/svg">
<path fill-rule="evenodd" clip-rule="evenodd" d="M8.93914 1.57124C9.49613 1.04471 10.2335 0.751343 11 0.751343C11.7665 0.751343 12.5039 1.04471 13.0609 1.57124C13.0609 1.57128 13.0608 1.5712 13.0609 1.57124L20.4338 8.53913C20.9285 9.00653 21.3226 9.57001 21.5919 10.1951C21.8612 10.8201 22.0001 11.4935 22 12.174C22 12.1741 22 12.174 22 12.174V20C22 20.7957 21.6839 21.5587 21.1213 22.1213C20.5587 22.684 19.7957 23 19 23H3C2.20435 23 1.44129 22.684 0.87868 22.1213C0.31607 21.5587 1.81195e-08 20.7957 1.81195e-08 20V12.1741C1.81195e-08 12.1741 1.81195e-08 12.1742 1.81195e-08 12.1741C-5.79176e-05 11.4936 0.138818 10.8201 0.408122 10.1951C0.67742 9.57006 1.07147 9.00662 1.56614 8.53924M1.56614 8.53924L8.93914 1.57124C8.93918 1.5712 8.93909 1.57128 8.93914 1.57124M11 2.75134C10.7445 2.75134 10.4987 2.84915 10.313 3.02469L2.93986 9.99281C2.64303 10.2733 2.40646 10.6114 2.24487 10.9865C2.08328 11.3615 1.99996 11.7656 2 12.1739V20C2 20.2652 2.10536 20.5196 2.29289 20.7071C2.48043 20.8947 2.73478 21 3 21H19C19.2652 21 19.5196 20.8947 19.7071 20.7071C19.8946 20.5196 20 20.2652 20 20V12.174C20 11.7657 19.9167 11.3615 19.7551 10.9865C19.5935 10.6114 19.3571 10.2734 19.0602 9.99292L11.6871 3.02481C11.5015 2.84928 11.2555 2.75134 11 2.75134Z" fill="#A7AAAB"/>
</svg>
