<svg width="20" height="17" viewBox="0 0 20 17" fill="none" xmlns="http://www.w3.org/2000/svg">
<path d="M20 5.108V13.25C20.0001 14.0801 19.6824 14.8788 19.1123 15.4822C18.5422 16.0856 17.7628 16.448 16.934 16.495L16.75 16.5H3.25C2.41986 16.5001 1.62117 16.1824 1.01777 15.6123C0.414367 15.0422 0.0519987 14.2628 0.00500011 13.434L0 13.25V5.108L9.652 10.164C9.75938 10.2202 9.87879 10.2496 10 10.2496C10.1212 10.2496 10.2406 10.2202 10.348 10.164L20 5.108ZM3.25 0.5H16.75C17.5556 0.499903 18.3325 0.798996 18.93 1.33927C19.5276 1.87954 19.9032 2.62248 19.984 3.424L10 8.654L0.016 3.424C0.0935234 2.65431 0.44305 1.93752 1.00175 1.40246C1.56045 0.867409 2.29168 0.549187 3.064 0.505L3.25 0.5H16.75H3.25Z" fill="#A7AAAB"/>
</svg>
