<svg width="20" height="25" viewBox="0 0 20 25" fill="none" xmlns="http://www.w3.org/2000/svg">
<path d="M9.99973 0.499949C8.72315 0.440076 7.44814 0.647406 6.25631 1.10867C5.06447 1.56993 3.98208 2.27496 3.07841 3.17863C2.17474 4.0823 1.46971 5.16469 1.00845 6.35653C0.547187 7.54836 0.339856 8.82337 0.399729 10.0999C0.399729 13.124 2.79973 16.0999 3.99973 17.2999C5.19973 18.5 9.99973 24.4999 9.99973 24.4999C9.99973 24.4999 14.7997 18.5 15.9997 17.2999C17.1997 16.0999 19.5997 13.124 19.5997 10.0999C19.6596 8.82337 19.4523 7.54836 18.991 6.35653C18.5297 5.16469 17.8247 4.0823 16.9211 3.17863C16.0174 2.27496 14.935 1.56993 13.7432 1.10867C12.5513 0.647406 11.2763 0.440076 9.99973 0.499949ZM9.99973 13.9999C9.22838 13.9999 8.47436 13.7712 7.83301 13.3427C7.19165 12.9141 6.69178 12.305 6.3966 11.5924C6.10142 10.8798 6.02418 10.0956 6.17467 9.3391C6.32515 8.58257 6.69659 7.88766 7.24201 7.34223C7.78744 6.79681 8.48235 6.42537 9.23888 6.27489C9.9954 6.1244 10.7796 6.20164 11.4922 6.49682C12.2048 6.792 12.8139 7.29187 13.2425 7.93323C13.671 8.57458 13.8997 9.3286 13.8997 10.0999C13.8997 10.6121 13.7989 11.1192 13.6029 11.5924C13.4069 12.0656 13.1196 12.4955 12.7574 12.8577C12.3953 13.2198 11.9654 13.5071 11.4922 13.7031C11.019 13.8991 10.5119 13.9999 9.99973 13.9999Z" fill="#E27158"/>
</svg>
