<svg width="52" height="41" viewBox="0 0 52 41" fill="none" xmlns="http://www.w3.org/2000/svg">
<g clip-path="url(#clip0_615_1869)">
<path d="M9.45342 40.7962V38.0826C9.45342 37.0422 8.82902 36.3639 7.75875 36.3639C7.22372 36.3639 6.644 36.5448 6.24262 37.1328C5.93062 36.6353 5.48477 36.3639 4.81588 36.3639C4.36981 36.3639 3.92416 36.4995 3.56727 36.997V36.4544H2.63086V40.7962H3.56727V38.3991C3.56727 37.6304 3.96864 37.2684 4.59305 37.2684C5.21705 37.2684 5.52945 37.6755 5.52945 38.3991V40.7962H6.46586V38.3991C6.46586 37.6304 6.91152 37.2684 7.49123 37.2684C8.11564 37.2684 8.42764 37.6755 8.42764 38.3991V40.7962H9.45342ZM23.321 36.4544H21.805V35.1428H20.8686V36.4544H20.0214V37.3135H20.8684V39.3038C20.8684 40.2989 21.2698 40.8867 22.3401 40.8867C22.7415 40.8867 23.1871 40.7511 23.4995 40.5702L23.2318 39.756C22.9643 39.9369 22.6523 39.9822 22.4292 39.9822C21.9834 39.9822 21.805 39.7109 21.805 39.2584V37.3135H23.321V36.4544ZM31.2583 36.3637C30.7232 36.3637 30.3666 36.6353 30.1435 36.997V36.4544H29.2071V40.7962H30.1435V38.354C30.1435 37.6304 30.4555 37.2233 31.0353 37.2233C31.2136 37.2233 31.4366 37.2686 31.615 37.3137L31.8825 36.4092C31.7041 36.3639 31.4366 36.3639 31.2583 36.3639V36.3637ZM19.2633 36.8161C18.8173 36.4995 18.1931 36.3639 17.5242 36.3639C16.4541 36.3639 15.7408 36.9066 15.7408 37.7659C15.7408 38.4897 16.2758 38.8966 17.2122 39.0324L17.658 39.0777C18.1486 39.168 18.4161 39.3038 18.4161 39.53C18.4161 39.8464 18.0594 40.0727 17.435 40.0727C16.8108 40.0727 16.3203 39.8464 16.0081 39.6204L15.5622 40.344C16.0527 40.7058 16.7216 40.8867 17.3903 40.8867C18.6389 40.8867 19.3525 40.2989 19.3525 39.4847C19.3525 38.7157 18.7728 38.3086 17.8809 38.1731L17.435 38.1277C17.0336 38.0824 16.7216 37.9922 16.7216 37.7208C16.7216 37.4042 17.0336 37.2233 17.5242 37.2233C18.0594 37.2233 18.5945 37.4493 18.862 37.5851L19.2633 36.8161ZM44.1451 36.3639C43.6099 36.3639 43.2532 36.6353 43.0302 36.997V36.4544H42.0938V40.7962H43.0302V38.354C43.0302 37.6304 43.3424 37.2233 43.9219 37.2233C44.1005 37.2233 44.3235 37.2686 44.5018 37.3137L44.7693 36.4092C44.591 36.3639 44.3235 36.3639 44.1451 36.3639ZM32.1947 38.6253C32.1947 39.9369 33.0864 40.8867 34.4689 40.8867C35.0931 40.8867 35.5389 40.7511 35.9848 40.3893L35.5389 39.6204C35.1823 39.8918 34.8256 40.0273 34.4242 40.0273C33.6661 40.0273 33.1311 39.4847 33.1311 38.6253C33.1311 37.8113 33.6661 37.2684 34.4242 37.2233C34.8256 37.2233 35.1823 37.3588 35.5389 37.6304L35.9848 36.8615C35.5389 36.4995 35.0931 36.3639 34.4689 36.3639C33.0864 36.3639 32.1947 37.3137 32.1947 38.6253ZM40.8454 38.6253V36.4544H39.909V36.997C39.5968 36.5901 39.1509 36.3639 38.5712 36.3639C37.3673 36.3639 36.4309 37.3137 36.4309 38.6253C36.4309 39.9369 37.3673 40.8867 38.5712 40.8867C39.1954 40.8867 39.6415 40.6607 39.909 40.2536V40.7962H40.8454V38.6253ZM37.4118 38.6253C37.4118 37.8564 37.9023 37.2233 38.7048 37.2233C39.4629 37.2233 39.9981 37.8113 39.9981 38.6253C39.9981 39.3942 39.4629 40.0273 38.7048 40.0273C37.9023 39.982 37.4118 39.3942 37.4118 38.6253ZM26.2196 36.3639C24.971 36.3639 24.079 37.2684 24.079 38.6253C24.079 39.9822 24.9708 40.8867 26.264 40.8867C26.8883 40.8867 27.5127 40.7058 28.0032 40.2989L27.5571 39.6204C27.2005 39.8918 26.7546 40.0727 26.3087 40.0727C25.729 40.0727 25.1493 39.8013 25.0154 39.0322H28.1815V38.6706C28.2262 37.2684 27.4235 36.3639 26.2194 36.3639H26.2196ZM26.2196 37.1779C26.7991 37.1779 27.2007 37.5399 27.2896 38.2184H25.0601C25.1493 37.6304 25.5507 37.1779 26.2196 37.1779ZM49.4514 38.6253V34.7357H48.515V36.997C48.2028 36.5901 47.7569 36.3639 47.1772 36.3639C45.9733 36.3639 45.0369 37.3137 45.0369 38.6253C45.0369 39.9369 45.9733 40.8867 47.1772 40.8867C47.8016 40.8867 48.2475 40.6607 48.515 40.2536V40.7962H49.4514V38.6253ZM46.018 38.6253C46.018 37.8564 46.5083 37.2233 47.311 37.2233C48.0691 37.2233 48.6041 37.8113 48.6041 38.6253C48.6041 39.3942 48.0691 40.0273 47.311 40.0273C46.5083 39.982 46.018 39.3942 46.018 38.6253ZM14.715 38.6253V36.4544H13.7786V36.997C13.4664 36.5901 13.0205 36.3639 12.4408 36.3639C11.2369 36.3639 10.3005 37.3137 10.3005 38.6253C10.3005 39.9369 11.2369 40.8867 12.4408 40.8867C13.0652 40.8867 13.511 40.6607 13.7786 40.2536V40.7962H14.715V38.6253ZM11.2369 38.6253C11.2369 37.8564 11.7274 37.2233 12.53 37.2233C13.288 37.2233 13.8233 37.8113 13.8233 38.6253C13.8233 39.3942 13.288 40.0273 12.53 40.0273C11.7274 39.982 11.2369 39.3942 11.2369 38.6253Z" fill="black"/>
<path d="M18.9512 3.48253H32.9973V29.082H18.9512V3.48253Z" fill="#FF5F00"/>
<path d="M19.8431 16.2824C19.8431 11.0811 22.2509 6.4677 25.9519 3.48253C23.232 1.31159 19.7986 0 16.053 0C7.17905 0 0 7.28172 0 16.2824C0 25.2828 7.17905 32.5647 16.0528 32.5647C19.7984 32.5647 23.2318 31.2531 25.9519 29.082C22.2509 26.1421 19.8431 21.4836 19.8431 16.2824Z" fill="#EB001B"/>
<path d="M51.948 16.2824C51.948 25.2828 44.7689 32.5647 35.8952 32.5647C32.1496 32.5647 28.7161 31.2531 25.9961 29.082C29.7417 26.097 32.1051 21.4836 32.1051 16.2824C32.1051 11.0811 29.697 6.4677 25.9961 3.48253C28.7159 1.31159 32.1496 0 35.8952 0C44.7689 0 51.9482 7.32705 51.9482 16.2824H51.948Z" fill="#F79E1B"/>
</g>
<defs>
<clipPath id="clip0_615_1869">
<rect width="52" height="41" fill="white"/>
</clipPath>
</defs>
</svg>
