<svg width="19" height="19" viewBox="0 0 19 19" fill="none" xmlns="http://www.w3.org/2000/svg">
<path fill-rule="evenodd" clip-rule="evenodd" d="M8.52632 16.2079C12.4068 16.2079 15.5526 13.0621 15.5526 9.18159C15.5526 5.30106 12.4068 2.15527 8.52632 2.15527C4.64579 2.15527 1.5 5.30106 1.5 9.18159C1.5 13.0621 4.64579 16.2079 8.52632 16.2079ZM8.52632 17.7079C13.2353 17.7079 17.0526 13.8905 17.0526 9.18159C17.0526 4.47264 13.2353 0.655273 8.52632 0.655273C3.81736 0.655273 0 4.47264 0 9.18159C0 13.8905 3.81736 17.7079 8.52632 17.7079Z" fill="white"/>
<path fill-rule="evenodd" clip-rule="evenodd" d="M14.7409 14.3355C15.0338 14.0426 15.5086 14.0426 15.8015 14.3355L18.5303 17.0643C18.8232 17.3572 18.8232 17.832 18.5303 18.1249C18.2374 18.4178 17.7626 18.4178 17.4697 18.1249L14.7409 15.3961C14.448 15.1032 14.448 14.6284 14.7409 14.3355Z" fill="white"/>
</svg>
