<svg width="79" height="25" viewBox="0 0 79 25" fill="none" xmlns="http://www.w3.org/2000/svg">
<path d="M40.8569 7.96024C40.8118 11.4289 44.024 13.3645 46.4437 14.5154C48.9297 15.6961 49.7648 16.4533 49.7549 17.5093C49.7364 19.1253 47.7719 19.8386 45.9336 19.8663C42.7263 19.9148 40.8615 19.0211 39.379 18.3452L38.2237 23.622C39.7111 24.291 42.4653 24.8744 45.3213 24.9C52.0255 24.9 56.4116 21.6699 56.4353 16.6617C56.4615 10.3057 47.4281 9.95392 47.4898 7.11295C47.5111 6.25151 48.3532 5.33223 50.1986 5.0985C51.1121 4.98042 53.6336 4.89006 56.4924 6.175L57.6145 1.06958C56.077 0.523195 54.1011 0 51.641 0C45.3309 0 40.8927 3.2741 40.8569 7.96024ZM68.3961 0.43976C67.1719 0.43976 66.1403 1.13675 65.6799 2.20633L56.1033 24.525H62.8025L64.1357 20.9289H72.322L73.0954 24.525H79L73.8474 0.43976H68.3961ZM69.3333 6.94608L71.2666 15.9904H65.9718L69.3333 6.94608ZM32.7344 0.440062L27.4537 24.5247H33.8376L39.1158 0.439459H32.7344M23.2905 0.439459L16.6459 16.8331L13.958 2.89428C13.6426 1.33825 12.3971 0.43976 11.014 0.43976H0.152137L0 1.13916C2.2299 1.61145 4.76345 2.37319 6.2984 3.18825C7.23776 3.68615 7.50562 4.12139 7.81421 5.30452L12.9051 24.525H19.6513L29.9941 0.43976H23.2905" fill="url(#paint0_linear_615_1875)"/>
<defs>
<linearGradient id="paint0_linear_615_1875" x1="36.3195" y1="25.3995" x2="37.023" y2="-0.174129" gradientUnits="userSpaceOnUse">
<stop stop-color="#222357"/>
<stop offset="1" stop-color="#254AA5"/>
</linearGradient>
</defs>
</svg>
